<svg width="137" height="55" viewBox="0 0 137 55" fill="none" xmlns="http://www.w3.org/2000/svg">
<g clip-path="url(#clip0_331_58440)">
<path d="M98.2595 44.1729C98.0603 44.1733 97.8694 44.2526 97.7284 44.3934C97.5875 44.5341 97.508 44.725 97.5073 44.9242V48.3895C97.5073 51.4235 99.0975 53.1641 101.868 53.1641H105.515C105.921 53.1641 106.249 52.8268 106.249 52.4119V52.3628C106.251 52.333 106.251 52.3032 106.249 52.2734V44.9242C106.249 44.7253 106.17 44.5346 106.03 44.3939C105.889 44.2533 105.698 44.1742 105.499 44.1742C105.3 44.1742 105.11 44.2533 104.969 44.3939C104.828 44.5346 104.749 44.7253 104.749 44.9242V51.6681H101.868C101.161 51.6681 99.0081 51.6681 99.0081 48.3895V44.9242C99.0079 44.7255 98.929 44.5349 98.7888 44.3942C98.6485 44.2534 98.4582 44.1738 98.2595 44.1729Z" fill="#00BDB6"/>
<path d="M108.254 50.7522C108.453 50.75 108.643 50.6692 108.783 50.5274C108.922 50.3855 109 50.1943 108.999 49.9952V41.4446C108.999 41.2461 108.92 41.0558 108.78 40.9155C108.64 40.7751 108.449 40.6963 108.251 40.6963C108.053 40.6963 107.862 40.7751 107.722 40.9155C107.582 41.0558 107.503 41.2461 107.503 41.4446V49.9952C107.502 50.1951 107.581 50.3869 107.722 50.5287C107.863 50.6706 108.054 50.7509 108.254 50.7522Z" fill="#00BDB6"/>
<path d="M102.681 41.9046C102.814 41.7621 102.886 41.5736 102.883 41.3787C102.879 41.1838 102.8 40.9979 102.662 40.8602C102.524 40.7225 102.338 40.6438 102.143 40.6407C101.948 40.6376 101.76 40.7104 101.618 40.8436C101.478 40.9867 101.399 41.1787 101.398 41.3789C101.398 41.4771 101.418 41.5744 101.456 41.665C101.493 41.7556 101.549 41.8379 101.619 41.907C101.688 41.9762 101.771 42.0309 101.862 42.068C101.953 42.1051 102.051 42.1239 102.149 42.1233C102.347 42.1216 102.538 42.0439 102.681 41.906V41.9046Z" fill="#00BDB6"/>
<path d="M86.3191 40.6763C86.2201 40.676 86.1221 40.6953 86.0306 40.733C85.9392 40.7707 85.856 40.826 85.786 40.8959C85.716 40.9658 85.6604 41.0488 85.6225 41.1402C85.5846 41.2316 85.5651 41.3295 85.5652 41.4285V45.9559C85.5652 48.9857 87.1534 50.7271 89.9262 50.7271H93.1799C93.2051 50.7278 93.2303 50.7263 93.2553 50.7227L93.2735 50.7193L93.2958 50.7227C93.3201 50.7265 93.3447 50.728 93.3692 50.7271C93.4672 50.7273 93.5642 50.7081 93.6547 50.6708C93.7452 50.6335 93.8275 50.5787 93.8969 50.5095C93.9662 50.4404 94.0213 50.3582 94.0589 50.2678C94.0965 50.1774 94.116 50.0804 94.1161 49.9825V44.9153C94.1161 44.7166 94.0372 44.5261 93.8967 44.3856C93.7562 44.2451 93.5657 44.1662 93.367 44.1662C93.1683 44.1662 92.9778 44.2451 92.8373 44.3856C92.6968 44.5261 92.6179 44.7166 92.6179 44.9153V49.23H89.9262C89.2162 49.23 87.0632 49.23 87.0632 45.9571V41.4285C87.064 41.3302 87.0454 41.2328 87.0084 41.1418C86.9715 41.0508 86.917 40.9679 86.8479 40.898C86.7789 40.8282 86.6967 40.7726 86.6062 40.7345C86.5156 40.6965 86.4184 40.6767 86.3202 40.6763H86.3191Z" fill="#00BDB6"/>
<path d="M93.32 42.1254C93.5201 42.1241 93.7119 42.045 93.8547 41.9049C93.9239 41.8355 93.9786 41.7533 94.016 41.6628C94.0533 41.5723 94.0724 41.4753 94.0722 41.3774C94.0712 41.1767 93.9909 40.9845 93.8489 40.8427C93.779 40.7733 93.6961 40.7182 93.605 40.6808C93.5139 40.6434 93.4163 40.6242 93.3177 40.6245C93.2192 40.6248 93.1217 40.6445 93.0308 40.6825C92.9399 40.7204 92.8573 40.7759 92.7879 40.8458C92.6487 40.9873 92.5705 41.1778 92.5701 41.3763C92.5716 41.5745 92.6511 41.764 92.7914 41.904C92.9316 42.044 93.1213 42.1231 93.3195 42.1243L93.32 42.1254Z" fill="#00BDB6"/>
<path d="M74.6169 50.7336H81.277C81.3068 50.7346 81.3366 50.7328 81.3661 50.7283C83.3117 50.5982 84.0158 48.6901 84.0158 47.4442V44.9089C84.0121 44.7124 83.9313 44.5253 83.791 44.3876C83.6507 44.25 83.462 44.1729 83.2655 44.1729C83.0689 44.1729 82.8802 44.25 82.7399 44.3876C82.5996 44.5253 82.5189 44.7124 82.5151 44.9089V47.4442C82.5151 47.5162 82.5008 49.2356 81.16 49.2356H78.878L78.9688 49.0273C79.184 48.5271 79.2969 47.9888 79.3008 47.4442V44.9089C79.297 44.7124 79.2162 44.5253 79.0759 44.3876C78.9356 44.25 78.7469 44.1729 78.5504 44.1729C78.3538 44.1729 78.1651 44.25 78.0248 44.3876C77.8845 44.5253 77.8038 44.7124 77.8 44.9089V47.4442C77.8 47.5162 77.7841 49.2356 76.4494 49.2356H74.6172V44.9003C74.6172 44.7015 74.5383 44.5109 74.3977 44.3704C74.2572 44.2298 74.0666 44.1509 73.8678 44.1509C73.6691 44.1509 73.4784 44.2298 73.3379 44.3704C73.1974 44.5109 73.1184 44.7015 73.1184 44.9003V51.643H70.2983C69.5914 51.643 67.4389 51.643 67.4389 48.3723V44.9003C67.4351 44.7036 67.3543 44.5163 67.2139 44.3786C67.0735 44.2408 66.8847 44.1637 66.688 44.1637C66.4913 44.1637 66.3024 44.2408 66.162 44.3786C66.0216 44.5163 65.9408 44.7036 65.937 44.9003V48.3723C65.937 51.4051 67.5285 53.1469 70.2983 53.1469H73.7684C73.7842 53.1431 73.8002 53.1408 73.8164 53.1402C73.8319 53.1405 73.8473 53.1427 73.8622 53.1469H73.8675C74.0667 53.1457 74.2573 53.0657 74.3977 52.9245C74.5381 52.7832 74.6169 52.5922 74.6169 52.393V50.7325V50.7336Z" fill="#00BDB6"/>
<path d="M116.363 53.2906C116.502 53.1485 116.58 52.9573 116.579 52.7583C116.579 52.5592 116.5 52.3684 116.36 52.2271C116.255 52.1222 116.12 52.051 115.974 52.0224C115.829 51.9937 115.677 52.009 115.54 52.0663C115.403 52.1236 115.286 52.2203 115.204 52.3441C115.121 52.468 115.077 52.6135 115.078 52.7622C115.078 52.9109 115.123 53.0562 115.206 53.1796C115.289 53.303 115.406 53.3991 115.544 53.4556C115.681 53.5122 115.833 53.5267 115.978 53.4973C116.124 53.4679 116.258 53.396 116.363 53.2906Z" fill="#00BDB6"/>
<path d="M114.161 53.2907C114.302 53.1502 114.382 52.9596 114.384 52.7602C114.384 52.6613 114.365 52.5634 114.327 52.4721C114.289 52.3807 114.233 52.2978 114.163 52.2279C114.093 52.1581 114.01 52.1027 113.919 52.0651C113.827 52.0274 113.729 52.0081 113.63 52.0083C113.433 52.0121 113.246 52.0929 113.108 52.2335C112.97 52.374 112.893 52.563 112.893 52.7598C112.893 52.9566 112.97 53.1456 113.108 53.2862C113.246 53.4267 113.433 53.5075 113.63 53.5113C113.829 53.5102 114.02 53.4307 114.161 53.2899V53.2907Z" fill="#00BDB6"/>
<path d="M125.58 42.8817C123.874 42.8194 122.288 43.3413 121.156 44.3305L121.097 44.3841C120.993 44.4712 120.887 44.5684 120.779 44.6633L120.532 44.8915V41.4448C120.529 41.2488 120.448 41.062 120.308 40.9247C120.168 40.7874 119.98 40.7104 119.784 40.7104C119.588 40.7104 119.399 40.7874 119.259 40.9247C119.119 41.062 119.039 41.2488 119.035 41.4448V47.5141C119.038 47.5285 119.04 47.543 119.041 47.5577C119.041 47.574 119.039 47.5902 119.035 47.606C119.037 47.8077 119.118 48.0006 119.261 48.1432C119.401 48.2825 119.59 48.3615 119.787 48.3635C119.987 48.3604 120.179 48.2817 120.323 48.1432C120.405 48.0525 120.466 47.9451 120.502 47.8285L120.548 47.668H120.55C120.608 47.4663 120.688 47.2719 120.79 47.0883C120.939 46.8155 121.136 46.5335 121.414 46.192C121.592 45.9648 121.847 45.7419 122.099 45.5283L122.158 45.4759C122.999 44.7379 124.203 44.3512 125.526 44.4014C127.712 44.4832 128.147 45.3698 128.147 46.7717V49.2522H115.741L115.831 49.0459C116.047 48.5438 116.161 48.0037 116.166 47.4572V44.8884C116.166 44.6896 116.087 44.499 115.947 44.3585C115.806 44.2179 115.615 44.139 115.417 44.139C115.218 44.139 115.027 44.2179 114.887 44.3585C114.746 44.499 114.667 44.6896 114.667 44.8884V47.4572C114.667 47.5317 114.649 49.2522 113.31 49.2522H111.782V44.8892C111.779 44.6935 111.698 44.5071 111.558 44.3701C111.419 44.233 111.231 44.1562 111.035 44.1562C110.839 44.1562 110.651 44.233 110.512 44.3701C110.372 44.5071 110.292 44.6935 110.288 44.8892V50.0798C110.288 51.4709 109.121 52.3889 108.589 52.5964C108.403 52.6673 108.254 52.8088 108.172 52.9898C108.091 53.1709 108.085 53.3768 108.155 53.5624C108.296 53.9383 108.741 54.1457 109.123 53.995C110.131 53.6127 111.373 52.4707 111.703 50.8725L111.728 50.7524H128.924C129.335 50.7524 129.667 50.4118 129.667 49.9958V46.7717C129.667 44.2892 128.294 42.9808 125.58 42.8817H125.58Z" fill="#00BDB6"/>
<path d="M135.763 9.82414C135.763 11.0326 134.822 12.0227 133.574 12.0227C132.333 12.0227 131.398 11.0454 131.398 9.83838V9.82414C131.398 8.61822 132.339 7.62812 133.589 7.62812C134.831 7.62812 135.763 8.60286 135.763 9.81269V9.82414ZM133.589 7.35449C132.933 7.35405 132.304 7.61385 131.839 8.07687C131.375 8.53989 131.113 9.1683 131.111 9.82414V9.83838C131.113 10.4937 131.375 11.1215 131.84 11.5836C132.305 12.0457 132.934 12.3042 133.589 12.3023C134.245 12.3004 134.873 12.0383 135.335 11.5735C135.797 11.1088 136.055 10.4795 136.053 9.82414V9.81269C136.054 9.4893 135.99 9.16902 135.866 8.87027C135.743 8.57152 135.561 8.30019 135.332 8.07186C135.103 7.84353 134.831 7.66272 134.532 7.5398C134.233 7.41688 133.912 7.35429 133.589 7.35561V7.35449Z" fill="#00BDB6"/>
<path d="M134.174 9.34669C134.174 9.56392 134.016 9.72475 133.726 9.72475H133.145V8.95188H133.711C133.996 8.95188 134.174 9.08172 134.174 9.33497V9.34669ZM133.731 8.44288H132.853C132.777 8.44235 132.704 8.47176 132.65 8.52472C132.595 8.57768 132.564 8.64991 132.563 8.72572V10.8226C132.564 10.8986 132.595 10.971 132.65 11.0243C132.704 11.0776 132.777 11.1076 132.853 11.108C132.929 11.1075 133.002 11.0775 133.056 11.0243C133.111 10.9711 133.143 10.8988 133.145 10.8226V10.2195H133.616L134.223 10.9767C134.296 11.0734 134.35 11.108 134.469 11.108C134.603 11.108 134.731 10.986 134.731 10.8262C134.732 10.7538 134.706 10.6836 134.66 10.6283L134.231 10.1129C134.558 9.97772 134.76 9.71554 134.76 9.31319V9.29895C134.76 9.06776 134.687 8.86952 134.542 8.72572C134.359 8.54172 134.086 8.44288 133.731 8.44288Z" fill="#00BDB6"/>
<path d="M10.0365 18.7232C10.5861 18.7231 11.1234 18.56 11.5804 18.2546C12.0374 17.9492 12.3936 17.5151 12.6039 17.0073C12.8143 16.4994 12.8693 15.9407 12.7621 15.4015C12.6549 14.8624 12.3903 14.3672 12.0017 13.9785C11.6131 13.5898 11.1179 13.325 10.5788 13.2176C10.0398 13.1102 9.48096 13.1651 8.97306 13.3753C8.46517 13.5855 8.031 13.9415 7.72543 14.3984C7.41986 14.8553 7.25662 15.3926 7.25635 15.9422C7.2562 16.3074 7.32801 16.669 7.46766 17.0065C7.60731 17.3439 7.81207 17.6505 8.07025 17.9087C8.32843 18.167 8.63496 18.3718 8.97233 18.5116C9.30971 18.6513 9.67131 18.7233 10.0365 18.7232Z" fill="#00BDB6"/>
<path d="M16.9318 3.43455C16.9426 3.0695 16.8813 2.7059 16.7515 2.36456C16.6216 2.02322 16.4257 1.71082 16.175 1.44525C15.9244 1.17967 15.6238 0.966124 15.2905 0.816818C14.9572 0.667512 14.5977 0.58538 14.2327 0.575117C14.0057 0.565065 13.7781 0.55194 13.548 0.537979C13.1571 0.5162 12.7143 0.490234 12.2405 0.490234C4.90412 0.490234 0.395926 5.05148 0.0279214 12.7553C0.00964754 12.8795 0.000316424 13.0049 0 13.1305L0 30.7168C0 31.4547 0.293112 32.1623 0.814855 32.6841C1.3366 33.2058 2.04423 33.4989 2.78209 33.4989C3.51994 33.4989 4.22758 33.2058 4.74932 32.6841C5.27107 32.1623 5.56418 31.4547 5.56418 30.7168V13.8146C5.56418 6.85659 9.37545 6.05246 12.2405 6.05246C12.5476 6.05246 12.8723 6.07284 13.2163 6.09239C13.5 6.10886 13.7851 6.12813 14.0668 6.13483C14.4324 6.14621 14.7967 6.08531 15.1388 5.95562C15.4808 5.82593 15.7939 5.62999 16.0601 5.37905C16.3262 5.12811 16.5403 4.8271 16.6898 4.49327C16.8394 4.15945 16.9217 3.79938 16.9318 3.43371V3.43455Z" fill="#00BDB6"/>
<path d="M22.4528 33.5003C23.1907 33.4997 23.8981 33.2062 24.4197 32.6843C24.9413 32.1623 25.2343 31.4547 25.2343 30.7168V3.42281C25.227 2.68952 24.9306 1.98877 24.4094 1.47283C23.8883 0.956897 23.1846 0.66748 22.4513 0.66748C21.718 0.66748 21.0143 0.956897 20.4931 1.47283C19.972 1.98877 19.6756 2.68952 19.6682 3.42281V30.7168C19.668 31.0825 19.7399 31.4446 19.8798 31.7825C20.0197 32.1204 20.2248 32.4273 20.4835 32.6858C20.7421 32.9444 21.0491 33.1494 21.3871 33.2891C21.725 33.4289 22.0871 33.5006 22.4528 33.5003Z" fill="#00BDB6"/>
<path d="M37.6348 29.5418L33.7337 37.4458C33.5663 37.7744 33.466 38.133 33.4384 38.5008C33.4109 38.8686 33.4567 39.2382 33.5732 39.5881C33.6897 39.938 33.8745 40.2613 34.117 40.5392C34.3595 40.817 34.6548 41.0439 34.9858 41.2067C35.3167 41.3695 35.6767 41.4649 36.0448 41.4874C36.4129 41.5098 36.7818 41.4589 37.1301 41.3376C37.4784 41.2163 37.7991 41.027 38.0736 40.7807C38.3481 40.5344 38.5709 40.236 38.7291 39.9028L53.0033 10.9735C53.3208 10.313 53.3647 9.55396 53.1257 8.86128C52.8866 8.16859 52.3838 7.59825 51.7266 7.27418C51.0694 6.95011 50.3108 6.8985 49.6157 7.13058C48.9207 7.36266 48.3453 7.85966 48.0146 8.51359L40.7372 23.2575L33.4424 8.51136C33.1155 7.84955 32.539 7.34474 31.8398 7.10798C31.1406 6.87123 30.376 6.92191 29.7142 7.24889C29.0524 7.57586 28.5476 8.15235 28.3109 8.85153C28.0741 9.5507 28.1248 10.3153 28.4518 10.9771L37.6337 29.5418H37.6348Z" fill="#00BDB6"/>
<path d="M121.439 17.7552C116.942 16.5981 115.728 16.0285 115.728 14.222V14.145C115.728 12.7051 117.082 11.7716 119.183 11.7716C120.886 11.7716 122.7 12.3552 124.724 13.5433C125.2 13.8194 125.634 13.9442 126.136 13.9442C127.594 13.9442 128.737 12.8167 128.737 11.378C128.74 10.9363 128.628 10.5014 128.413 10.1158C128.198 9.73027 127.886 9.40721 127.508 9.1783C125.098 7.64989 122.324 6.87451 119.254 6.87451C113.918 6.87451 110.189 10.0796 110.189 14.6707V14.7428C110.189 20.0395 113.918 21.4112 118.792 22.6571C122.988 23.7357 124.136 24.4647 124.136 26.0755V26.1475C124.136 27.7533 122.688 28.7113 120.267 28.7113C117.897 28.7113 115.69 27.9359 113.521 26.3338C113.028 25.992 112.521 25.8287 111.926 25.8287C110.47 25.8287 109.329 26.955 109.329 28.3933C109.329 29.2278 109.729 30.0278 110.375 30.4854C113.182 32.4999 116.653 33.6081 120.158 33.6081C126.025 33.6081 129.666 30.5354 129.666 25.5883V25.5148C129.666 20.8495 126.38 19.0393 121.439 17.7563V17.7552Z" fill="#00BDB6"/>
<path d="M56.6874 33.5437C57.4258 33.5431 58.1338 33.2495 58.656 32.7274C59.1781 32.2053 59.4717 31.4973 59.4723 30.7589V20.3185C59.4723 15.7327 62.2192 12.5209 66.1363 12.5066C70.0732 12.5209 72.8204 15.7327 72.8204 20.3185V30.7589C72.8204 31.4972 73.1137 32.2054 73.6358 32.7275C74.1579 33.2496 74.8661 33.5429 75.6044 33.5429C76.3428 33.5429 77.0509 33.2496 77.5731 32.7275C78.0952 32.2054 78.3885 31.4972 78.3885 30.7589V20.3185C78.3885 12.7191 73.1289 6.96703 66.1363 6.93994C59.1618 6.96786 53.905 12.7197 53.905 20.3185V30.7589C53.9047 31.1245 53.9764 31.4865 54.1161 31.8244C54.2558 32.1623 54.4607 32.4693 54.7191 32.7279C54.9775 32.9865 55.2843 33.1917 55.6221 33.3317C55.9598 33.4717 56.3218 33.5437 56.6874 33.5437Z" fill="#00BDB6"/>
<path d="M93.8997 33.5462C95.0074 33.5462 95.9818 33.4535 96.4573 33.3611C97.9695 33.073 98.9683 31.6127 98.6782 30.1005C98.3895 28.5927 96.9412 27.6015 95.4326 27.8908C95.3226 27.9086 94.7309 27.9768 93.8997 27.9768C89.6163 27.9768 86.6228 24.7987 86.5879 20.2425C86.6228 15.702 89.6216 12.5223 93.8846 12.5083C98.1979 12.5223 101.205 15.7366 101.205 20.3213V30.7619C101.201 31.1296 101.27 31.4944 101.408 31.8352C101.546 32.176 101.751 32.486 102.009 32.7473C102.268 33.0087 102.576 33.2161 102.916 33.3577C103.255 33.4993 103.619 33.5722 103.987 33.5722C104.354 33.5722 104.719 33.4993 105.058 33.3577C105.397 33.2161 105.705 33.0087 105.964 32.7473C106.223 32.486 106.427 32.176 106.565 31.8352C106.703 31.4944 106.773 31.1296 106.769 30.7619V20.321C106.769 12.7188 101.236 6.96702 93.8846 6.94385C86.6404 6.96702 81.1589 12.584 81.0271 20.0521C81.0251 20.0892 81.0251 20.1281 81.0251 20.1638V20.3221C81.0251 20.3592 81.0251 20.3964 81.0271 20.4363C81.1558 27.9293 86.6466 33.5474 93.8989 33.5474L93.8997 33.5462Z" fill="#00BDB6"/>
</g>
<defs>
<clipPath id="clip0_331_58440">
<rect width="136.061" height="54" fill="white" transform="translate(0 0.5)"/>
</clipPath>
</defs>
</svg>
