<svg width="81" height="90" viewBox="0 0 81 90" fill="none" xmlns="http://www.w3.org/2000/svg">
<g clip-path="url(#clip0_331_131925)">
<path fill-rule="evenodd" clip-rule="evenodd" d="M36.5434 14.5479C36.1671 15.354 36.0587 16.2594 36.2341 17.1315C36.3136 17.4667 36.4319 17.7913 36.5868 18.099C36.7667 18.4746 37.0237 18.8081 37.3411 19.0777C37.3826 19.1117 37.4241 19.1438 37.4675 19.1739C38.1162 19.636 38.6405 20.0339 39.0592 20.3847C41.9257 22.7835 39.8267 22.8797 38.1426 24.4449C37.4996 25.0428 36.9998 25.567 36.7886 26.8494C36.7606 27.2048 36.779 27.5624 36.8433 27.9131C37.1922 29.5029 39.6589 29.9875 40.6546 31.2077C40.7625 31.3314 40.8532 31.469 40.9243 31.6169C40.9877 31.7479 41.0412 31.8835 41.0846 32.0224C41.3901 32.9823 40.9922 33.5707 40.417 34.0968C40.3472 34.1628 40.2737 34.227 40.1982 34.2854C39.3081 35.0398 38.1766 35.7451 38.4387 37.3745C38.4651 37.5461 39.1761 36.3618 40.0115 35.515C40.1856 35.3321 40.3748 35.1643 40.5773 35.0134C40.9839 34.7362 41.3628 34.4204 41.7088 34.0704C42.5122 33.2256 42.6744 32.4844 42.4764 31.8187C42.32 31.3604 42.0584 30.9451 41.7126 30.6061C40.5698 29.3916 38.6631 28.4373 38.6273 27.4944C38.609 27.3366 38.6154 27.1769 38.6462 27.021C38.6984 26.8267 38.7678 26.6373 38.8536 26.4553C39.0374 26.1422 39.2757 25.8644 39.557 25.6349C40.8658 24.3903 42.9856 23.9527 42.2199 21.3747C41.9615 20.5072 41.3618 19.866 40.6999 19.3191C40.2737 18.9646 39.823 18.6421 39.4194 18.3121C38.9708 17.9812 38.5969 17.5597 38.3218 17.075C38.228 16.8901 38.1643 16.6915 38.1332 16.4866C38.1238 16.4262 38.1181 16.3621 38.1144 16.298C38.0976 15.5515 38.2798 14.814 38.6424 14.1613C39.7419 12.1453 41.7296 12.7035 42.7197 13.3692C42.8913 13.4842 43.044 13.5578 43.012 13.5182C43.491 13.8539 43.6305 13.9482 43.6701 14.1632C43.6843 14.3376 43.6843 14.513 43.6701 14.6874C43.6611 15.2192 43.8253 15.7394 44.1378 16.1697C44.6527 16.8524 45.8351 16.8788 45.9388 17.0372C46.1482 17.3559 46.0784 18.1122 46.1274 18.148C46.1765 18.1838 46.2047 18.148 46.2387 18.0443C46.2701 17.9681 46.2916 17.8883 46.3028 17.8067C46.3336 17.6118 46.3162 17.4124 46.2519 17.2258C46.2519 17.2013 46.2651 17.2522 46.3236 17.3069C46.4023 17.3649 46.4773 17.4279 46.548 17.4955C46.5968 17.5416 46.6505 17.5821 46.7083 17.6162C46.9836 17.8048 47.1062 17.7463 47.0854 17.6709C47.0647 17.5955 46.8969 17.5144 46.7705 17.3993C46.6932 17.3333 46.6083 17.2485 46.5329 17.1843C46.4141 17.0682 46.3056 16.942 46.2085 16.8072C46.4084 15.9811 46.3801 15.2834 45.9313 14.5743C45.9223 14.558 45.9116 14.5429 45.8992 14.529C45.7236 14.3186 45.5146 14.1383 45.2807 13.9953C45.11 13.9055 44.9329 13.8286 44.7507 13.7652C44.6093 13.72 44.4584 13.7068 44.4245 13.6464C43.293 11.572 39.6928 10.6536 37.5656 13.0241C37.1256 13.4509 36.7794 13.9648 36.5491 14.5328L36.5434 14.5479Z" fill="#53534E"/>
<path fill-rule="evenodd" clip-rule="evenodd" d="M0.869387 40.5937C0.869387 18.9646 18.408 1.43162 40.0314 1.43162C61.6548 1.43162 79.1916 18.9702 79.1916 40.5937C79.1916 62.2171 61.668 79.7538 40.0314 79.7538C18.3948 79.7538 0.869387 62.2209 0.869387 40.5937ZM80.0629 40.5937C80.0629 18.4497 62.1395 0.5 40.0314 0.5C17.9233 0.5 0 18.4497 0 40.5937C0 62.7376 17.9158 80.6873 40.0314 80.6873C62.1471 80.6873 80.0629 62.7338 80.0629 40.5937Z" fill="#53534E"/>
<path d="M9.53917 62.4638L9.19405 61.9791L10.8234 60.8646C10.7208 60.6858 10.5555 60.5514 10.3595 60.4874C10.0663 60.4701 9.77227 60.4994 9.48825 60.5742C9.25964 60.6284 9.02684 60.6631 8.79236 60.6779C8.6354 60.6797 8.48024 60.6442 8.33975 60.5742C8.18382 60.4989 8.04951 60.3854 7.94938 60.2441C7.82365 60.0593 7.75576 59.9612 7.7457 59.9499L8.17191 59.6576L8.2398 59.7576C8.27375 59.8104 8.29638 59.8424 8.30581 59.8556C8.38582 59.987 8.51469 60.0813 8.66412 60.1178C8.89163 60.1337 9.12016 60.1094 9.33927 60.0461C9.60357 59.9656 9.88 59.9324 10.1558 59.948C10.3025 59.9788 10.4424 60.0356 10.5689 60.1159C10.467 59.8368 10.5223 59.4546 10.7348 58.9693L11.4364 57.3738L11.8644 57.9716L11.2987 59.2672C11.1679 59.5287 11.0728 59.8065 11.0158 60.0933C10.9961 60.2871 11.0522 60.4811 11.1723 60.6345L12.913 59.4464L13.2581 59.9254L9.53917 62.4638ZM9.80696 55.3522C10.0291 55.4275 10.2369 55.5397 10.4218 55.6841C10.5804 55.8172 10.7134 55.9783 10.814 56.1593C10.9768 56.4053 11.0389 56.7043 10.9875 56.9948C10.9581 57.1162 10.9025 57.2297 10.8247 57.3275C10.7468 57.4252 10.6486 57.5047 10.5368 57.5605C10.402 57.6364 10.2502 57.6767 10.0955 57.6775C9.95055 57.6786 9.80729 57.6464 9.67684 57.5832C9.54557 57.5174 9.42583 57.4308 9.32229 57.3267C9.21025 57.2075 9.1057 57.0816 9.00924 56.9495C8.81892 56.6763 8.60089 56.4235 8.35861 56.1952L8.23037 56.2612C8.15078 56.2938 8.07903 56.3429 8.01985 56.4053C7.96068 56.4678 7.91545 56.542 7.88714 56.6232C7.85417 56.8438 7.90533 57.0686 8.03047 57.2531C8.11626 57.4353 8.25666 57.5863 8.43216 57.685C8.61532 57.749 8.81476 57.749 8.99792 57.685L9.19783 58.1847C9.00061 58.2505 8.79101 58.2705 8.58492 58.2432C8.38788 58.2068 8.20496 58.116 8.05687 57.9811C7.86992 57.8149 7.71298 57.6178 7.59295 57.3983C7.47463 57.2038 7.39163 56.99 7.34778 56.7666C7.31864 56.6169 7.32904 56.4622 7.37796 56.3177C7.43326 56.1899 7.51867 56.0773 7.62689 55.9896C7.76463 55.8893 7.91033 55.8003 8.06253 55.7237L8.70373 55.3786C8.99449 55.2304 9.27601 55.0648 9.54671 54.8826C9.65624 54.797 9.75004 54.6929 9.82394 54.5752L10.1068 55.0712C10.0239 55.1843 9.92175 55.2819 9.80508 55.3597L9.80696 55.3522ZM8.74144 55.9802C8.97482 56.1817 9.18484 56.4088 9.36755 56.6572C9.46303 56.791 9.5745 56.9126 9.69947 57.0193C9.76451 57.0699 9.84124 57.1032 9.92259 57.1163C10.0039 57.1294 10.0873 57.1218 10.1649 57.0942C10.2425 57.0665 10.3119 57.0198 10.3667 56.9582C10.4215 56.8967 10.4599 56.8224 10.4783 56.7421C10.5031 56.5705 10.4635 56.3958 10.3671 56.2517C10.2729 56.0785 10.1351 55.9329 9.96726 55.8293C9.8128 55.7329 9.63228 55.6868 9.45053 55.6973C9.26239 55.7213 9.08165 55.7857 8.9206 55.8859L8.74144 55.9821V55.9802ZM7.89846 53.9453L7.50054 54.1188C7.43761 53.9736 7.36319 53.8336 7.27801 53.7001C7.21232 53.6177 7.1211 53.5594 7.01868 53.5345C6.91626 53.5096 6.80846 53.5194 6.71224 53.5625C6.65009 53.5863 6.59391 53.6235 6.54765 53.6714C6.50138 53.7193 6.46616 53.7768 6.44445 53.8397C6.40319 53.9731 6.41606 54.1174 6.48028 54.2414C6.60601 54.5205 6.86374 54.6431 7.25349 54.6091L7.38927 55.1164C6.76065 55.2145 6.31684 54.9813 6.05785 54.4168C5.98909 54.2872 5.94729 54.145 5.93498 53.9988C5.92266 53.8527 5.94008 53.7055 5.98618 53.5662C6.02795 53.446 6.09453 53.3358 6.18159 53.2429C6.26866 53.15 6.37427 53.0764 6.4916 53.0269C6.614 52.9724 6.74896 52.9524 6.8819 52.969C7.01484 52.9856 7.14072 53.0382 7.24595 53.1212C7.25353 52.954 7.30847 52.7925 7.40436 52.6554C7.50592 52.5192 7.6429 52.4135 7.80039 52.3499C7.9233 52.2916 8.0576 52.2614 8.1936 52.2614C8.3296 52.2614 8.4639 52.2916 8.5868 52.3499C8.86947 52.4996 9.08897 52.7459 9.20537 53.0439C9.50899 53.7133 9.38264 54.232 8.82819 54.6054L8.51325 54.181C8.67282 54.0738 8.78912 53.9134 8.8414 53.7284C8.88874 53.557 8.87267 53.3742 8.79613 53.2136C8.73088 53.0586 8.61159 52.9327 8.46045 52.859C8.39026 52.826 8.31363 52.8088 8.23603 52.8088C8.15843 52.8088 8.0818 52.826 8.01161 52.859C7.89988 52.9051 7.80872 52.9902 7.75513 53.0986C7.70374 53.1875 7.68257 53.2907 7.69478 53.3927C7.73144 53.5471 7.78653 53.6966 7.85886 53.8378C7.85886 53.8529 7.88337 53.8906 7.91166 53.9491L7.89846 53.9453ZM7.3327 49.5173C7.53497 49.6337 7.71658 49.7828 7.87017 49.9586C7.99928 50.1193 8.09831 50.302 8.16248 50.4979C8.27241 50.7714 8.27241 51.0768 8.16248 51.3504C8.11036 51.4649 8.03395 51.5667 7.93853 51.6488C7.84311 51.7309 7.73098 51.7912 7.60992 51.8256C7.46753 51.8713 7.31632 51.8825 7.16876 51.8582C7.0212 51.8339 6.88153 51.7749 6.76128 51.686C6.64567 51.5963 6.54508 51.4887 6.46331 51.3673C6.37708 51.2277 6.29961 51.0828 6.23135 50.9336C6.09767 50.6292 5.93339 50.3391 5.74102 50.068L5.60335 50.1094C5.51851 50.1262 5.43826 50.161 5.36799 50.2114C5.29773 50.2619 5.23908 50.3268 5.196 50.4018C5.11889 50.6108 5.12429 50.8415 5.21109 51.0467C5.26027 51.2411 5.36908 51.4152 5.52226 51.5446C5.68771 51.6417 5.88083 51.6809 6.07105 51.6559L6.16911 52.1839C5.96314 52.2107 5.75379 52.1914 5.5562 52.1273C5.36962 52.0544 5.20748 51.9302 5.08851 51.769C4.93697 51.5721 4.82142 51.3499 4.74717 51.1127C4.66909 50.8995 4.6295 50.6741 4.63024 50.447C4.63065 50.2941 4.67095 50.1439 4.74717 50.0114C4.82588 49.8961 4.93135 49.8016 5.05456 49.736C5.20979 49.6609 5.37056 49.5979 5.53546 49.5475L6.24266 49.323C6.55724 49.2353 6.86589 49.1276 7.16674 49.0005C7.29141 48.9372 7.40431 48.8531 7.50054 48.7516L7.6797 49.2929C7.57682 49.3876 7.45809 49.4636 7.32893 49.5173H7.3327ZM6.16157 49.9359C6.35234 50.1772 6.51436 50.4398 6.64435 50.7186C6.71184 50.8678 6.79803 51.0079 6.90083 51.1354C6.96341 51.2089 7.04698 51.2615 7.14034 51.2862C7.23036 51.3116 7.32565 51.3116 7.41568 51.2862C7.48295 51.2667 7.545 51.2324 7.59722 51.1857C7.64945 51.139 7.69052 51.0812 7.71741 51.0165C7.77777 50.8534 7.77372 50.6733 7.7061 50.513C7.64731 50.3256 7.53995 50.1571 7.39493 50.0246C7.26262 49.9002 7.09424 49.8209 6.91403 49.7983C6.72464 49.7863 6.53489 49.8152 6.3577 49.8831L6.16911 49.9435L6.16157 49.9359ZM4.17197 48.878L4.04751 48.348L5.38082 48.0463L5.03382 46.5772L3.70051 46.8771L3.57415 46.3471L6.78014 45.6248L6.9046 46.1548L5.48454 46.4754L5.83154 47.9464L7.25349 47.6258L7.37796 48.1557L4.17197 48.878ZM5.21486 42.8715V42.3321C5.56002 42.3286 5.89484 42.4498 6.1578 42.6735C6.40172 42.8898 6.55523 43.1901 6.58778 43.5145C6.62064 43.7096 6.61032 43.9095 6.55753 44.1001C6.50474 44.2907 6.41078 44.4674 6.28227 44.6178C6.02453 44.9195 5.62221 45.1031 5.07531 45.1685C4.76012 45.2115 4.4395 45.191 4.13237 45.1081C3.86848 45.0352 3.6363 44.8766 3.47232 44.6574C3.31251 44.4417 3.21117 44.1883 3.17812 43.9219C3.12655 43.6176 3.18469 43.3048 3.34219 43.0393C3.50769 42.7868 3.75994 42.6037 4.05128 42.5245L4.20026 43.0393C4.01596 43.0961 3.85427 43.2096 3.73822 43.3637C3.64477 43.5054 3.60653 43.6765 3.63073 43.8446C3.64176 43.971 3.68146 44.0933 3.74681 44.2021C3.81217 44.3109 3.90146 44.4034 4.0079 44.4726C4.22918 44.6197 4.55543 44.6668 4.98667 44.614C5.42419 44.5612 5.74102 44.4424 5.91263 44.2538C5.99894 44.1652 6.06347 44.0577 6.10111 43.9399C6.13875 43.8221 6.14847 43.6971 6.12951 43.5749C6.11005 43.3778 6.01387 43.1963 5.86172 43.0695C5.6737 42.9337 5.4445 42.867 5.21298 42.8809L5.21486 42.8715ZM3.04799 41.7682V41.2251L4.46806 41.2006C4.48037 41.0705 4.44184 40.9408 4.36056 40.8385C4.1768 40.7095 3.97462 40.6091 3.76085 40.5405C3.57466 40.4796 3.39668 40.396 3.23092 40.2916C3.15296 40.2344 3.09333 40.1558 3.05931 40.0653C3.02254 39.9295 3.0054 39.7892 3.00839 39.6485V39.5372H3.46854V39.6881C3.45762 39.785 3.48316 39.8825 3.54021 39.9616C3.66709 40.0433 3.80486 40.1068 3.94944 40.1502C4.10904 40.2014 4.26026 40.2757 4.39828 40.3708C4.49484 40.4531 4.5732 40.5545 4.62836 40.6688C4.6887 40.4349 4.90746 40.1992 5.28464 39.9672L6.2917 39.3543L6.30301 39.954L5.29407 40.5518C5.14563 40.635 5.01339 40.7443 4.90369 40.8743C4.83842 40.968 4.80654 41.0809 4.81317 41.1949L6.3313 41.1685L6.34261 41.7117L3.05365 41.7682H3.04799ZM6.03522 36.7405C6.17478 36.925 6.2825 37.1315 6.35393 37.3515C6.4087 37.549 6.4266 37.7548 6.40673 37.9588C6.40071 38.255 6.28044 38.5374 6.07105 38.7471C5.97721 38.8323 5.86627 38.8966 5.74562 38.9357C5.62498 38.9747 5.4974 38.9875 5.37139 38.9734C5.21825 38.9613 5.07051 38.9114 4.94141 38.8282C4.82008 38.7508 4.71917 38.6454 4.64721 38.5208C4.57628 38.3946 4.52659 38.2576 4.50012 38.1153C4.47671 37.9535 4.46348 37.7903 4.46051 37.6269C4.45909 37.296 4.4237 36.9661 4.3549 36.6424L4.21158 36.6273C4.12617 36.6112 4.03834 36.6129 3.95363 36.6324C3.86892 36.6519 3.78916 36.6887 3.71936 36.7405C3.5664 36.9039 3.47969 37.1183 3.47609 37.3421C3.44326 37.5388 3.47363 37.7408 3.56284 37.9192C3.67724 38.0721 3.84011 38.1818 4.02488 38.2303L3.90229 38.7527C3.70276 38.6997 3.51776 38.6024 3.36105 38.468C3.21838 38.3299 3.11825 38.1538 3.07251 37.9607C3.01284 37.7197 2.99624 37.47 3.02348 37.2233C3.03638 36.9968 3.09004 36.7744 3.18189 36.567C3.24362 36.4262 3.34035 36.3035 3.46289 36.2106C3.58203 36.1355 3.71694 36.089 3.85703 36.0748C4.0282 36.0672 4.1997 36.0729 4.36999 36.0918L5.11114 36.1559C5.43739 36.1917 5.76548 36.2081 6.09368 36.2049C6.23359 36.1927 6.37056 36.1577 6.49914 36.1012L6.44822 36.6669C6.31596 36.7156 6.17614 36.7405 6.03522 36.7405ZM4.79054 36.6801C4.86955 36.975 4.91323 37.2783 4.92067 37.5835C4.9237 37.7467 4.94715 37.9089 4.99044 38.0663C5.01876 38.1572 5.07481 38.237 5.15074 38.2945C5.24502 38.3648 5.36095 38.3999 5.47842 38.3937C5.59589 38.3875 5.70748 38.3404 5.79382 38.2605C5.91248 38.1334 5.97969 37.9667 5.98241 37.7928C6.00286 37.5995 5.97162 37.4043 5.89189 37.227C5.81877 37.0628 5.69525 36.9261 5.53923 36.8367C5.36859 36.7532 5.18218 36.707 4.99233 36.7009L4.78865 36.6839L4.79054 36.6801ZM3.79103 32.3068L7.01776 32.9197L6.91215 33.4515L5.65804 33.2139L5.59581 33.5213C5.56088 33.6638 5.56088 33.8126 5.59581 33.9551C5.6898 34.1422 5.81991 34.3088 5.97864 34.4454L6.60098 35.0489L6.46897 35.7089L5.71462 34.9697C5.52371 34.8193 5.39972 34.5998 5.3695 34.3586C5.29596 34.6165 5.12661 34.8364 4.89615 34.9734C4.69016 35.0839 4.45234 35.1199 4.22289 35.0753C4.09457 35.0554 3.97223 35.0074 3.86464 34.9347C3.75705 34.862 3.66687 34.7664 3.60055 34.6547C3.45829 34.3818 3.4246 34.0651 3.50626 33.7684L3.79669 32.3068H3.79103ZM4.13803 32.9254L3.98527 33.6797C3.92304 33.9965 3.93247 34.2134 4.01545 34.3247C4.09202 34.4333 4.20751 34.5083 4.33793 34.534C4.41922 34.556 4.50486 34.5562 4.58627 34.5347C4.66769 34.5132 4.74203 34.4707 4.80186 34.4114C4.9603 34.2117 5.06078 33.9723 5.09228 33.7193L5.21109 33.1272L4.14369 32.9254H4.13803ZM4.48314 29.4158L5.09228 27.6676L5.52792 27.8147L5.09228 29.0461L7.76645 29.9457L7.57786 30.4605L4.46806 29.4158H4.48314ZM6.65944 28.0127C6.09368 27.7901 5.74102 27.4733 5.59581 27.0584C5.48033 26.6884 5.5056 26.2887 5.66675 25.9361C5.82789 25.5835 6.11358 25.3029 6.46897 25.148C6.8931 24.9971 7.35947 25.0181 7.76833 25.2065C8.09057 25.3177 8.38288 25.5016 8.62263 25.744C8.79696 25.9432 8.90734 26.1903 8.93946 26.4531C8.97299 26.7229 8.93461 26.9968 8.82819 27.247C8.75661 27.4382 8.64579 27.6123 8.50289 27.7582C8.35998 27.904 8.18814 28.0183 7.99841 28.0938C7.62124 28.2446 7.1724 28.2163 6.65567 28.0127H6.65944ZM6.87443 27.4941C7.17945 27.6418 7.52717 27.6759 7.85508 27.5902C7.97941 27.5515 8.09353 27.4856 8.18912 27.3971C8.28471 27.3087 8.35937 27.2001 8.40764 27.0792C8.45903 26.9613 8.48269 26.8331 8.47681 26.7046C8.47092 26.5762 8.43565 26.4507 8.3737 26.338C8.19042 26.0497 7.91019 25.8364 7.58352 25.7364C7.28386 25.5925 6.94229 25.5617 6.62172 25.6497C6.49828 25.6881 6.38497 25.7536 6.29004 25.8413C6.1951 25.9291 6.12093 26.0369 6.07293 26.157C6.02136 26.275 5.99728 26.4032 6.00251 26.532C6.00774 26.6607 6.04214 26.7865 6.10311 26.9C6.27928 27.1854 6.55355 27.3966 6.87443 27.4941ZM9.61837 22.885L9.93897 22.4456C10.2197 22.6349 10.4211 22.9208 10.5047 23.249C10.5767 23.5658 10.5254 23.8982 10.3614 24.1787C10.2727 24.3582 10.1465 24.5166 9.99128 24.6432C9.83609 24.7697 9.65555 24.8615 9.46185 24.9123C9.08467 25.0141 8.63772 24.9387 8.15305 24.686C7.86854 24.5465 7.61615 24.3493 7.4119 24.107C7.23834 23.8993 7.14117 23.6384 7.13657 23.3678C7.13065 23.0998 7.19571 22.835 7.32515 22.6002C7.46328 22.3211 7.69387 22.0985 7.97767 21.9703C8.2599 21.8558 8.574 21.8471 8.86214 21.9458L8.67355 22.4512C8.48962 22.392 8.29172 22.392 8.10779 22.4512C7.94582 22.5132 7.81181 22.6318 7.73062 22.785C7.66678 22.8943 7.62882 23.0167 7.61967 23.1429C7.61051 23.2691 7.6304 23.3957 7.67781 23.513C7.77211 23.7563 8.01161 23.9788 8.39633 24.1768C8.78105 24.3748 9.10919 24.454 9.36755 24.3993C9.48841 24.3743 9.60206 24.3222 9.70001 24.2471C9.79797 24.172 9.87772 24.0758 9.93332 23.9656C9.98319 23.8812 10.0159 23.7877 10.0295 23.6906C10.0431 23.5935 10.0373 23.4947 10.0125 23.3998C9.94372 23.1883 9.80465 23.0066 9.61837 22.885ZM12.2133 23.2754L11.7419 23.0472C11.8232 22.9787 11.8955 22.9001 11.9569 22.8133C12.0167 22.7319 12.0543 22.6364 12.0662 22.5361C12.0718 22.4531 12.0562 22.3701 12.021 22.2947C11.9466 22.1676 11.8614 22.0471 11.7664 21.9345C11.7438 21.91 11.7174 21.8723 11.6777 21.8214L8.23603 21.0915L8.56229 20.5993L10.5274 21.0557C10.7782 21.1141 11.0347 21.182 11.2949 21.2669C11.1063 21.0783 10.9479 20.8897 10.7914 20.6804L9.56746 19.0868L9.87108 18.6305L11.9946 21.4329C12.159 21.6386 12.3102 21.8547 12.4472 22.0797C12.5394 22.2281 12.5926 22.3975 12.6018 22.5719C12.6014 22.7313 12.5521 22.8867 12.4604 23.017C12.39 23.1162 12.304 23.2035 12.2058 23.2754H12.2133ZM10.5462 17.7743L11.987 16.0374L14.186 17.7743L14.4104 17.5046L15.491 18.3608L15.2024 18.7078L14.4783 18.142L12.8489 20.1052L13.5787 20.6785L13.2902 21.0274L12.2096 20.1731L12.3982 19.9487C12.2322 19.3201 11.618 18.5978 10.5557 17.7818L10.5462 17.7743ZM11.195 17.7064C11.9983 18.3928 12.5082 19.0032 12.7244 19.5376L13.8371 18.1967L11.9965 16.7408L11.195 17.7064ZM16.3547 15.5867C16.3475 15.8159 16.3016 16.0422 16.2189 16.2561C16.1342 16.4443 16.0153 16.615 15.8682 16.7597C15.6689 16.9894 15.3898 17.135 15.0874 17.167C14.8844 17.1765 14.6838 17.1194 14.5163 17.0043C14.3488 16.8892 14.2235 16.7225 14.1596 16.5296C14.1161 16.3945 14.1057 16.2509 14.1294 16.1109C14.156 15.9681 14.2057 15.8305 14.2765 15.7036C14.3629 15.5632 14.458 15.4284 14.5612 15.3C14.7726 15.0425 14.9577 14.7645 15.1138 14.4702L15.012 14.3703C14.9553 14.3044 14.8854 14.2514 14.8067 14.2147C14.728 14.1779 14.6424 14.1583 14.5556 14.1572C14.3311 14.189 14.1259 14.3017 13.9785 14.474C13.8273 14.6053 13.7211 14.7807 13.6749 14.9756C13.6648 15.1635 13.7209 15.349 13.8333 15.4999L13.4014 15.8318C13.2801 15.6682 13.1993 15.4782 13.1657 15.2774C13.1445 15.0829 13.1799 14.8865 13.2675 14.7116C13.3773 14.4876 13.5246 14.2842 13.7032 14.11C13.8595 13.9419 14.0447 13.8033 14.2501 13.7008C14.3885 13.6287 14.5429 13.593 14.6989 13.5971C14.8386 13.6105 14.9731 13.657 15.0912 13.7328C15.2297 13.8311 15.3596 13.9409 15.4797 14.061L16.0153 14.5664C16.2456 14.7957 16.49 15.0104 16.747 15.2095C16.8627 15.2856 16.9901 15.3423 17.1241 15.3773L16.7243 15.7752C16.5883 15.7356 16.4605 15.6717 16.3472 15.5867H16.3547ZM15.4269 14.772C15.2981 15.0505 15.1373 15.3132 14.9479 15.5546C14.8457 15.6802 14.7589 15.8176 14.6895 15.9638C14.654 16.0507 14.6459 16.1463 14.6661 16.238C14.6863 16.3296 14.7339 16.4129 14.8026 16.4768C14.8526 16.5242 14.912 16.5605 14.977 16.5833C15.0421 16.6061 15.1112 16.6147 15.1798 16.6088C15.3548 16.5845 15.515 16.4973 15.6305 16.3636C15.7708 16.2262 15.8728 16.0546 15.9266 15.8658C15.9758 15.6945 15.9685 15.512 15.9059 15.3453C15.8259 15.1754 15.7101 15.0249 15.5664 14.904L15.4193 14.7644L15.4269 14.772ZM18.4197 15.9035L15.6211 12.4033L16.0303 12.0978L16.2925 12.4259C16.2802 12.2436 16.3106 12.0609 16.3811 11.8922C16.4604 11.7224 16.5818 11.5757 16.7338 11.466C16.9421 11.3029 17.1946 11.2062 17.4586 11.1884C17.7226 11.1706 17.9858 11.2325 18.2142 11.3661C18.4703 11.5087 18.6953 11.7011 18.8761 11.9318C19.0724 12.1679 19.2147 12.444 19.2929 12.7409C19.3654 13.0019 19.3535 13.2791 19.259 13.5329C19.1741 13.7719 19.0214 13.981 18.8195 14.1345C18.6841 14.2423 18.5241 14.3149 18.3537 14.3457C18.1988 14.377 18.0391 14.377 17.8842 14.3457L18.8592 15.5659L18.4197 15.9016V15.9035ZM17.0412 13.3783C17.2278 13.6518 17.5039 13.8519 17.8219 13.9441C17.9382 13.9725 18.0593 13.9746 18.1765 13.9501C18.2936 13.9257 18.4038 13.8752 18.4989 13.8026C18.5952 13.7296 18.6731 13.6352 18.7264 13.5268C18.7798 13.4185 18.8072 13.2992 18.8063 13.1784C18.8063 12.9125 18.6875 12.6126 18.416 12.2713C18.2276 11.9978 17.9504 11.7979 17.6314 11.7055C17.5158 11.6748 17.3947 11.6705 17.2771 11.693C17.1596 11.7156 17.0486 11.7643 16.9525 11.8357C16.8577 11.9116 16.782 12.0085 16.7312 12.1189C16.6805 12.2292 16.6562 12.3498 16.6602 12.4712C16.6747 12.8092 16.8083 13.1312 17.0374 13.3802L17.0412 13.3783ZM21.5541 10.6306L22.0651 10.4062C22.2126 10.7091 22.2415 11.0561 22.1462 11.3793C22.0439 11.6906 21.8295 11.9528 21.5446 12.1148C21.376 12.2249 21.1863 12.2986 20.9875 12.3311C20.7887 12.3635 20.5854 12.3541 20.3905 12.3033C19.9569 12.165 19.5926 11.8661 19.3721 11.4679C19.1975 11.2075 19.0799 10.9132 19.027 10.6042C18.984 10.3381 19.0333 10.0653 19.1665 9.83097C19.3027 9.59634 19.4977 9.40132 19.7323 9.26521C19.9938 9.09028 20.3071 9.00979 20.6206 9.03702C20.921 9.07522 21.1975 9.22053 21.3994 9.44625L20.9826 9.79702C20.8509 9.65543 20.6769 9.56019 20.4867 9.52546C20.315 9.50139 20.1404 9.53952 19.9944 9.63295C19.8832 9.69553 19.7875 9.78251 19.7147 9.88735C19.6418 9.9922 19.5937 10.1122 19.5739 10.2383C19.5324 10.4898 19.6267 10.7984 19.8568 11.1643C20.0869 11.5301 20.3295 11.752 20.5847 11.83C20.7042 11.8694 20.831 11.8814 20.9557 11.8651C21.0804 11.8487 21.1998 11.8045 21.3051 11.7357C21.4788 11.6384 21.6069 11.4764 21.6616 11.285C21.7118 11.0625 21.6796 10.8293 21.571 10.6287L21.5541 10.6306ZM21.2523 8.42034L23.5908 7.15492L23.8152 7.54718L22.8874 8.04316L24.2584 10.4571L23.7737 10.7211L22.4027 8.3053L21.4767 8.80694L21.2523 8.42034ZM24.315 6.82112L25.4899 6.31005C25.7035 6.20775 25.931 6.13722 26.165 6.10071C26.3316 6.08775 26.4983 6.12242 26.6459 6.20066C26.8039 6.28256 26.9295 6.41549 27.0023 6.57784C27.0641 6.70358 27.0908 6.84365 27.0797 6.9833C27.0654 7.12027 27.0138 7.25071 26.9307 7.36048C27.095 7.34508 27.2601 7.38204 27.4022 7.46609C27.5557 7.55487 27.6762 7.69124 27.7454 7.85458C27.8003 7.97346 27.8269 8.1035 27.823 8.23442C27.8191 8.36533 27.7847 8.49355 27.7228 8.60892C27.5506 8.86862 27.3003 9.06677 27.008 9.17469L25.6483 9.75365L24.3112 6.82112H24.315ZM25.388 7.83383L25.9312 7.5981C26.0835 7.53911 26.2285 7.46253 26.363 7.36991C26.4358 7.31023 26.4901 7.23109 26.5196 7.14172C26.5521 7.04929 26.5473 6.94783 26.5064 6.85883C26.4828 6.79128 26.4405 6.73183 26.3844 6.68742C26.3283 6.643 26.2607 6.61546 26.1895 6.60801C25.9746 6.61333 25.7637 6.6675 25.5729 6.76643L25.0071 7.0097L25.3843 7.83383H25.388ZM25.9764 9.12377L26.6459 8.83146C26.8562 8.76133 27.0451 8.63865 27.1947 8.47503C27.2336 8.4141 27.2556 8.34397 27.2586 8.27176C27.2616 8.19954 27.2454 8.12783 27.2117 8.06391C27.1677 7.96832 27.0926 7.89052 26.9986 7.84326C26.9038 7.79098 26.7932 7.7749 26.6874 7.798C26.5165 7.84028 26.3504 7.89967 26.1914 7.97527L25.5747 8.24307L25.9764 9.12377ZM30.5252 6.83243L31.0909 6.72305C31.116 7.03527 31.032 7.34651 30.8533 7.60375C30.6118 7.89331 30.2826 8.09632 29.9154 8.18207C29.5483 8.26782 29.1632 8.23163 28.8184 8.07899C28.4305 7.85326 28.1477 7.48302 28.032 7.04931C27.8581 6.62646 27.8581 6.15204 28.032 5.7292C28.2219 5.3688 28.5452 5.09698 28.9329 4.97187C29.3206 4.84676 29.7418 4.87829 30.1065 5.05971C30.4952 5.29306 30.7778 5.66839 30.8948 6.10637L30.9382 6.24593L28.6053 6.98519C28.6995 7.27074 28.8947 7.51214 29.1541 7.6641C29.2669 7.72462 29.3909 7.76121 29.5184 7.7716C29.6459 7.78198 29.7742 7.76593 29.8953 7.72445C30.0815 7.67574 30.2461 7.56622 30.363 7.41328C30.4758 7.24082 30.5343 7.03848 30.5308 6.83243H30.5252ZM28.5054 6.54767L30.2517 5.99322C30.1767 5.78601 30.0398 5.60692 29.8594 5.48026C29.7489 5.40875 29.6236 5.36327 29.4929 5.34726C29.3622 5.33126 29.2296 5.34514 29.1051 5.38785C28.9916 5.42075 28.8859 5.4761 28.7943 5.55061C28.7026 5.62511 28.6268 5.71727 28.5714 5.8216C28.4572 6.04629 28.4342 6.30644 28.5073 6.54767H28.5054ZM31.321 4.40909L31.8641 4.2865L32.1734 5.59153L33.6821 5.25207L33.3804 3.94705L33.9216 3.82446L34.6628 6.95313L34.1196 7.07571L33.7915 5.68771L32.2828 6.02716L32.6109 7.41517L32.0678 7.53775L31.3285 4.40909H31.321ZM35.2813 3.59439L35.8471 3.55667L35.9433 4.88998L37.484 4.78437L37.3897 3.45106L37.9442 3.41334L38.1743 6.61933L37.6085 6.65705L37.5067 5.23698L35.9659 5.34071L36.0677 6.76266L35.502 6.80037L35.2719 3.59439H35.2813ZM41.1615 6.15729C40.9818 6.30728 40.7785 6.42644 40.5599 6.50995C40.361 6.57796 40.1515 6.6099 39.9413 6.60424C39.643 6.62277 39.3483 6.5308 39.1134 6.34588C38.9676 6.20813 38.8725 6.02526 38.8434 5.8268C38.8143 5.62834 38.853 5.42586 38.9531 5.25207C39.0241 5.12732 39.1244 5.02179 39.2454 4.94467C39.3702 4.86504 39.5072 4.80643 39.6509 4.77117C39.8146 4.73731 39.9803 4.71338 40.1469 4.69951C40.4842 4.67514 40.8184 4.61766 41.1445 4.5279C41.1445 4.45372 41.1445 4.40657 41.1445 4.38646C41.1551 4.30163 41.1471 4.21551 41.1211 4.13408C41.095 4.05266 41.0515 3.97789 40.9936 3.91499C40.8131 3.77859 40.5896 3.71165 40.3638 3.7264C40.1607 3.70704 39.9567 3.75049 39.7791 3.85087C39.6322 3.97009 39.5315 4.13683 39.4944 4.32234L38.9512 4.23936C38.9928 4.03985 39.0799 3.85266 39.2058 3.69245C39.3392 3.54316 39.5117 3.43408 39.7037 3.37751C39.9477 3.30161 40.2027 3.26718 40.4581 3.27568C40.6896 3.27269 40.9199 3.3097 41.1389 3.38506C41.2836 3.43572 41.4133 3.52197 41.516 3.63588C41.6022 3.74565 41.6593 3.87537 41.682 4.01305C41.7021 4.17946 41.7084 4.34725 41.7008 4.51469L41.6952 5.21435C41.6799 5.53438 41.6862 5.85508 41.714 6.17426C41.7352 6.3107 41.7805 6.44226 41.8479 6.56275H41.2652C41.2066 6.43756 41.1715 6.3027 41.1615 6.16483V6.15729ZM41.137 4.9409C40.8402 5.03799 40.5333 5.10125 40.2223 5.12949C40.0569 5.14427 39.8936 5.17781 39.7358 5.22944C39.6454 5.2637 39.5673 5.3241 39.5113 5.40294C39.4582 5.4786 39.4299 5.56887 39.4303 5.66131C39.4276 5.73062 39.4408 5.79963 39.4689 5.86305C39.497 5.92646 39.5393 5.9826 39.5924 6.02716C39.733 6.13386 39.9065 6.18792 40.0828 6.17992C40.2823 6.18698 40.4803 6.14284 40.658 6.05168C40.8206 5.96933 40.9528 5.83719 41.0351 5.67451C41.1075 5.50287 41.1416 5.31753 41.1351 5.13137V4.93147L41.137 4.9409ZM45.5028 3.74337L45.103 6.9305L44.5523 6.86449L44.7088 5.6217L44.3882 5.5821C44.2407 5.55634 44.0892 5.56407 43.945 5.60473C43.7599 5.713 43.5978 5.85652 43.4679 6.02716L42.9021 6.66459L42.2176 6.5835L42.921 5.79709C43.065 5.59892 43.2797 5.46384 43.5207 5.41991C43.2557 5.36883 43.0198 5.21924 42.8607 5.00125C42.7321 4.81171 42.6784 4.58125 42.7098 4.3544C42.7208 4.22665 42.7604 4.10303 42.8257 3.99268C42.891 3.88234 42.9803 3.7881 43.087 3.71697C43.3591 3.56075 43.678 3.50659 43.9865 3.56421L45.4952 3.7528L45.5028 3.74337ZM44.8955 4.12055L44.1091 4.02625C43.781 3.98665 43.5603 4.01117 43.4528 4.0998C43.3482 4.18171 43.2804 4.30175 43.2642 4.4336C43.2479 4.51489 43.254 4.59911 43.2819 4.67719C43.3098 4.75527 43.3585 4.82427 43.4226 4.87678C43.6418 5.01325 43.8926 5.09057 44.1506 5.1012L44.7616 5.17475L44.8936 4.12055H44.8955ZM48.5202 4.25822L49.3575 4.47698L49.5121 7.17755L51.1189 4.93713L51.894 5.1408L51.0435 8.25061L50.506 8.10917L51.1906 5.61227L49.5668 7.864L49.084 7.73765L48.9143 4.88998L48.1958 7.50569L47.6696 7.36802L48.5202 4.27142V4.25822ZM54.2909 8.39394L54.8039 8.65984C54.6202 8.91929 54.3545 9.1093 54.0495 9.1992C53.7234 9.27893 53.3803 9.25183 53.0708 9.12188C52.8712 9.05943 52.6872 8.95536 52.5308 8.81655C52.3745 8.67774 52.2493 8.50735 52.1637 8.31661C52.0858 8.11036 52.0501 7.89055 52.0589 7.67024C52.0676 7.44994 52.1206 7.23365 52.2146 7.03422C52.3572 6.59359 52.6656 6.22569 53.0745 6.00831C53.2614 5.9203 53.4646 5.87216 53.6711 5.86697C53.8776 5.86177 54.0829 5.89963 54.274 5.97813C54.4628 6.04126 54.6359 6.14411 54.7816 6.27976C54.9274 6.41541 55.0423 6.58072 55.1188 6.76454C55.271 7.18818 55.2486 7.65489 55.0566 8.06202C55.0453 8.09408 55.0264 8.13746 55 8.1978L52.7106 7.33973C52.6008 7.61659 52.5974 7.92428 52.7011 8.20346C52.7501 8.32056 52.8233 8.42597 52.916 8.51275C53.0086 8.59954 53.1186 8.66573 53.2386 8.70699C53.4125 8.77641 53.604 8.78896 53.7855 8.74282C53.984 8.67852 54.1591 8.55718 54.289 8.39394H54.2909ZM52.9067 6.93238L54.621 7.57358C54.6953 7.36826 54.7045 7.14502 54.6474 6.93427C54.6063 6.81248 54.5378 6.70173 54.4473 6.61052C54.3567 6.51931 54.2465 6.45007 54.125 6.40811C54.0144 6.36385 53.8961 6.34189 53.777 6.34351C53.6579 6.34513 53.5403 6.37029 53.431 6.41754C53.1985 6.52051 53.0138 6.7079 52.9142 6.94181L52.9067 6.93238ZM56.867 7.1832L58.9094 8.19969L57.6252 10.6513L57.942 10.8097L57.3102 12.0186L56.9029 11.8168L57.3253 11.0059L55.0189 9.85737L54.604 10.6834L54.1948 10.4797L54.8265 9.27087L55.0868 9.40099C55.6789 9.11057 56.2749 8.37319 56.8746 7.18886L56.867 7.1832ZM57.0726 7.79046C56.5496 8.7007 56.0435 9.31424 55.5545 9.63107L57.1424 10.425L58.2173 8.36376L57.0858 7.798L57.0726 7.79046ZM60.09 8.8786L60.5464 9.18977L59.1075 11.1963L61.8118 10.0554L62.304 10.3911L60.4181 13.0313L59.9712 12.7182L61.4007 10.7249L58.7058 11.8564L58.2135 11.5188L60.0994 8.88992L60.09 8.8786ZM63.2111 11.0643L63.6373 11.4132L61.8193 13.5292L62.9999 14.4985L64.8198 12.3807L65.2516 12.7409L63.4412 14.8568L63.7165 15.0831L62.8207 16.1222L62.47 15.8356L63.0697 15.1378L61.1027 13.5329L63.2168 11.0813L63.2111 11.0643ZM66.2285 13.6103L66.6151 14.0006L64.8103 15.6979L67.7033 15.0963L68.12 15.5169L65.7589 17.7479L65.3723 17.3556L67.1658 15.6583L64.3087 16.2712L63.8919 15.8488L66.2568 13.6197L66.2285 13.6103ZM68.7933 16.3825L69.146 16.8068L68.0993 17.6611L69.0724 18.8341L70.136 17.993L70.4868 18.4155L67.9314 20.4352L67.5807 20.0128L68.7122 19.117L67.741 17.944L66.6095 18.8398L66.2568 18.4155L68.8122 16.3938L68.7933 16.3825ZM70.5509 22.2683L70.7885 22.7549C70.4788 22.9026 70.1267 22.936 69.7947 22.8492C69.4498 22.738 69.1583 22.5031 68.9765 22.1896C68.7947 21.8761 68.7354 21.5064 68.8103 21.1519C68.9058 20.7747 69.1849 20.4377 69.6476 20.141C69.9128 19.9654 70.2113 19.846 70.5245 19.7903C70.7961 19.7428 71.0757 19.7859 71.3204 19.9128C71.562 20.0361 71.7669 20.2208 71.9144 20.4484C72.0977 20.6968 72.1867 21.0023 72.1652 21.3103C72.1291 21.6077 71.984 21.8812 71.7579 22.0778L71.392 21.678C71.5328 21.5482 71.6275 21.3761 71.6617 21.1877C71.6827 21.0194 71.6404 20.8493 71.5429 20.7106C71.4748 20.6015 71.3833 20.5091 71.275 20.4399C71.1667 20.3708 71.0443 20.3266 70.9168 20.3108C70.6528 20.273 70.3385 20.3705 69.9739 20.6031C69.5967 20.8369 69.3798 21.0764 69.3044 21.3235C69.2664 21.4408 69.2566 21.5654 69.2756 21.6873C69.2946 21.8091 69.3419 21.9248 69.4137 22.025C69.5201 22.1945 69.6876 22.3167 69.8814 22.3664C70.1101 22.4103 70.3469 22.3751 70.5528 22.2664L70.5509 22.2683ZM72.8913 22.2683L73.1723 22.753L71.9182 23.4055C71.9687 23.5272 72.0638 23.625 72.1841 23.6789C72.4066 23.7125 72.6329 23.7125 72.8555 23.6789C73.0478 23.6559 73.2421 23.6559 73.4344 23.6789C73.5306 23.6964 73.62 23.7402 73.6928 23.8053C73.7886 23.9098 73.8692 24.0272 73.9323 24.1542L73.9851 24.2504L73.5759 24.4503L73.5061 24.3145C73.4363 24.19 73.3741 24.1259 73.3175 24.1033C73.1673 24.0878 73.0156 24.0928 72.8668 24.1183C72.6998 24.1423 72.5302 24.1423 72.3633 24.1183C72.2353 24.0841 72.1159 24.0238 72.0125 23.9411C72.0678 24.1774 71.981 24.4829 71.7522 24.8576L71.1393 25.8496L70.8508 25.3215L71.4712 24.3409C71.5685 24.2018 71.6389 24.0457 71.6787 23.8807C71.6924 23.7683 71.6693 23.6545 71.6127 23.5564L70.2681 24.2617L70.0059 23.7808L72.9101 22.2721L72.8913 22.2683ZM72.5141 28.1277C72.3041 28.0262 72.1127 27.8897 71.9484 27.7241C71.8072 27.5735 71.6947 27.3984 71.6164 27.2074C71.4863 26.9428 71.4626 26.6384 71.5504 26.3569C71.5945 26.2391 71.6637 26.1323 71.7533 26.044C71.8428 25.9557 71.9506 25.8881 72.0691 25.8458C72.2075 25.7899 72.3574 25.768 72.5061 25.7821C72.6548 25.7962 72.7979 25.8459 72.9234 25.9269C73.0451 26.0082 73.1533 26.1081 73.244 26.223C73.3402 26.3568 73.4277 26.4966 73.5061 26.6416C73.6618 26.9357 73.8463 27.2137 74.0568 27.4714L74.1926 27.4205C74.2742 27.3967 74.3499 27.356 74.4149 27.3011C74.4798 27.2462 74.5326 27.1783 74.5697 27.1018C74.6301 26.8872 74.6079 26.6578 74.5075 26.4587C74.4444 26.2679 74.3238 26.1013 74.1624 25.9816C73.9899 25.897 73.7943 25.8718 73.606 25.9099L73.4703 25.3894C73.6738 25.3491 73.8837 25.3543 74.0851 25.4045C74.2761 25.4647 74.4466 25.577 74.5773 25.7289C74.7432 25.9155 74.8747 26.13 74.9658 26.3625C75.0588 26.5692 75.1143 26.7908 75.1298 27.0169C75.1461 27.1635 75.1191 27.3117 75.052 27.4431C74.985 27.5745 74.8809 27.6833 74.7527 27.7562C74.6033 27.8395 74.4475 27.9108 74.2868 27.9693L73.5985 28.2409C73.2908 28.3513 72.9909 28.4823 72.7008 28.6331C72.5808 28.7046 72.4742 28.7965 72.3859 28.9047L72.1671 28.3766C72.2637 28.2748 72.3773 28.1905 72.5028 28.1277H72.5141ZM73.6456 27.6298C73.4374 27.4004 73.257 27.1472 73.1082 26.8755C73.0297 26.7313 72.9341 26.597 72.8234 26.4757C72.7554 26.4065 72.6679 26.3598 72.5726 26.3418C72.4802 26.3242 72.3846 26.3334 72.2972 26.3682C72.2321 26.3927 72.1731 26.4312 72.1245 26.4811C72.076 26.531 72.039 26.5909 72.0163 26.6567C71.9689 26.824 71.9857 27.0029 72.0634 27.1584C72.1357 27.3417 72.2547 27.5029 72.4085 27.6261C72.5508 27.738 72.7238 27.8038 72.9045 27.8147C73.0947 27.8133 73.2824 27.7715 73.4552 27.6921L73.6438 27.6166L73.6456 27.6298ZM76.4367 31.0508L73.276 31.9353L73.1233 31.4148L74.3566 31.0697L74.268 30.7679C74.2363 30.6249 74.1717 30.4913 74.0794 30.3776C73.9034 30.2526 73.7049 30.1629 73.4948 30.1135L72.6706 29.8514L72.4821 29.2027L73.4986 29.5289C73.738 29.5788 73.9492 29.7185 74.0888 29.9193C74.0355 29.6597 74.0841 29.3896 74.2246 29.1649C74.3564 28.9735 74.5524 28.8357 74.7772 28.7765C74.9023 28.7362 75.0347 28.7239 75.1651 28.7405C75.2954 28.7571 75.4205 28.8022 75.5315 28.8726C75.7856 29.053 75.9626 29.3222 76.0275 29.627L76.4481 31.0584L76.4367 31.0508ZM75.8408 30.6529L75.6239 29.9193C75.5334 29.6081 75.424 29.4195 75.2977 29.3535C75.1782 29.2925 75.0401 29.279 74.9111 29.3158C74.8289 29.3324 74.7527 29.3704 74.69 29.4261C74.6274 29.4817 74.5807 29.553 74.5546 29.6326C74.5113 29.8818 74.5367 30.138 74.6282 30.3738L74.7979 30.9527L75.8427 30.6586L75.8408 30.6529Z" fill="#53534E"/>
<path d="M74.4701 36.4922C74.2914 36.3441 74.139 36.1668 74.0194 35.9679C73.9212 35.7876 73.8572 35.5907 73.8308 35.3871C73.769 35.0985 73.821 34.7971 73.976 34.546C74.0969 34.3819 74.2678 34.2614 74.4629 34.2026C74.6581 34.1438 74.867 34.1498 75.0585 34.2197C75.1944 34.2679 75.3166 34.3481 75.4149 34.4536C75.5143 34.5604 75.5947 34.6835 75.6525 34.8175C75.7131 34.9693 75.7635 35.1249 75.8034 35.2834C75.8809 35.6081 75.9915 35.9241 76.1334 36.2263L76.2768 36.2112C76.3633 36.2084 76.4483 36.1876 76.5263 36.1499C76.6043 36.1122 76.6735 36.0586 76.7294 35.9924C76.8432 35.7999 76.8789 35.5712 76.8293 35.3531C76.8164 35.1537 76.7405 34.9635 76.6125 34.81C76.4656 34.6866 76.2818 34.6156 76.0901 34.6082V34.0688C76.2976 34.0757 76.5008 34.1299 76.6841 34.2273C76.8547 34.3304 76.9921 34.4803 77.0802 34.6591C77.1954 34.879 77.2695 35.118 77.2989 35.3644C77.3391 35.5877 77.3391 35.8163 77.2989 36.0396C77.2776 36.1854 77.2149 36.322 77.1183 36.4333C77.0217 36.5446 76.8952 36.6259 76.7539 36.6676C76.5881 36.7124 76.4192 36.7446 76.2485 36.7638L75.513 36.8637C75.1872 36.8996 74.8641 36.9563 74.5455 37.0334C74.4097 37.0736 74.282 37.1374 74.1684 37.222L74.0873 36.6563C74.2057 36.5797 74.3365 36.5242 74.4739 36.4922H74.4701ZM75.6978 36.2791C75.5529 36.0098 75.4402 35.7243 75.3621 35.4286C75.3209 35.2698 75.2607 35.1166 75.183 34.9722C75.1349 34.8887 75.0616 34.8227 74.9736 34.7836C74.8883 34.7441 74.7932 34.7304 74.7002 34.744C74.6305 34.7517 74.5633 34.7748 74.5036 34.8117C74.444 34.8486 74.3932 34.8982 74.3551 34.9571C74.2687 35.1078 74.2412 35.2852 74.2777 35.455C74.3016 35.6492 74.3771 35.8335 74.4965 35.9887C74.6064 36.1325 74.7578 36.2391 74.9303 36.2942C75.1162 36.3359 75.3086 36.3398 75.496 36.3055L75.6997 36.2772L75.6978 36.2791ZM77.4328 37.767L77.4517 38.3102L76.0316 38.3592C76.0227 38.4895 76.0638 38.6184 76.1466 38.7194C76.3331 38.8445 76.5371 38.9411 76.752 39.0061C76.9355 39.0654 77.1109 39.1471 77.2744 39.2493C77.353 39.3051 77.4139 39.3824 77.4498 39.4719C77.4891 39.6073 77.5088 39.7476 77.5082 39.8887V39.998L77.0481 40.0131V39.8604C77.0561 39.7638 77.0293 39.6675 76.9727 39.5888C76.8439 39.508 76.705 39.4446 76.5597 39.4002C76.3988 39.3527 76.2461 39.2809 76.107 39.1871C76.0057 39.1039 75.9244 38.9988 75.8694 38.8797C75.8128 39.1136 75.5979 39.3505 75.2245 39.5907L74.2287 40.2206L74.2061 39.6227L75.2037 39.0079C75.3532 38.9247 75.4861 38.8147 75.596 38.6836C75.6588 38.5882 75.6892 38.4751 75.6827 38.3611L74.1627 38.4139L74.1438 37.8708L77.4309 37.7576L77.4328 37.767ZM74.4814 42.8476C74.3386 42.6655 74.2271 42.4609 74.1514 42.2422C74.0927 42.0455 74.071 41.8396 74.0873 41.635C74.0888 41.3391 74.2035 41.055 74.4079 40.841C74.5103 40.7495 74.6315 40.6816 74.763 40.6418C74.8945 40.6021 75.0331 40.5915 75.169 40.6109C75.305 40.6303 75.4351 40.6792 75.5502 40.7541C75.6653 40.829 75.7627 40.9282 75.8355 41.0447C75.9103 41.1691 75.9626 41.3057 75.9901 41.4483C76.0169 41.6092 76.0332 41.7718 76.0392 41.9348C76.0462 42.2657 76.0873 42.5949 76.1617 42.9174L76.3069 42.9287C76.3923 42.9441 76.4799 42.9414 76.5641 42.9206C76.6483 42.8998 76.7271 42.8614 76.7954 42.808C76.9471 42.643 77.0306 42.4267 77.0292 42.2026C77.0567 42.0086 77.0231 41.8109 76.9331 41.6369C76.8157 41.486 76.6509 41.379 76.4654 41.3332L76.5785 40.809C76.7786 40.8586 76.9649 40.9527 77.1235 41.0843C77.2683 41.2204 77.371 41.3952 77.4196 41.5878C77.4848 41.8265 77.5065 42.075 77.4837 42.3214C77.4759 42.5486 77.426 42.7724 77.3366 42.9815C77.2779 43.1236 77.183 43.2478 77.0613 43.3417C76.9441 43.4192 76.8104 43.4683 76.6709 43.485C76.4996 43.4987 76.3274 43.4987 76.1561 43.485L75.4149 43.4341C75.0884 43.4024 74.7602 43.3917 74.4324 43.402C74.2927 43.416 74.1564 43.4529 74.0288 43.5114L74.0684 42.9457C74.2002 42.8943 74.34 42.8669 74.4814 42.8646V42.8476ZM75.7261 42.8872C75.6426 42.5934 75.5933 42.2909 75.579 41.9857C75.5735 41.8228 75.5475 41.6613 75.5017 41.5048C75.4713 41.414 75.4133 41.3349 75.3357 41.2785C75.2613 41.2228 75.1721 41.19 75.0792 41.1842C75.0101 41.1796 74.9407 41.1897 74.8758 41.2137C74.8108 41.2378 74.7516 41.2753 74.7021 41.3238C74.5827 41.452 74.5154 41.6201 74.5135 41.7953C74.4967 41.9894 74.5312 42.1844 74.6134 42.361C74.6914 42.5205 74.8165 42.6522 74.9717 42.7382C75.1445 42.8182 75.3321 42.8612 75.5224 42.8646L75.7261 42.8778V42.8872ZM77.133 45.1729L76.735 47.3756L73.9458 46.8928L73.8836 47.2341L72.5145 46.9984L72.5937 46.5571L73.5121 46.7155L73.9609 44.228L73.0425 44.0696L73.1236 43.6283L74.4927 43.8754L74.4418 44.1583C74.8982 44.6247 75.794 44.9654 77.1292 45.1804L77.133 45.1729ZM76.5993 45.55C75.5545 45.3288 74.8058 45.0358 74.3532 44.6712L74.0458 46.3685L76.3786 46.7645L76.5993 45.5406V45.55ZM73.6969 50.0988L73.48 50.623C73.2009 50.4763 72.9801 50.2388 72.8539 49.9498C72.7374 49.6425 72.7281 49.3049 72.8275 48.9918C72.8728 48.7887 72.9606 48.5975 73.0851 48.4307C73.2096 48.264 73.368 48.1255 73.5498 48.0243C73.9626 47.8272 74.4357 47.7974 74.8699 47.9413C75.3264 48.03 75.7315 48.2906 76.0014 48.6693C76.1046 48.8411 76.1718 49.0321 76.1992 49.2306C76.2265 49.4292 76.2133 49.6312 76.1605 49.8245C76.1076 50.0178 76.0161 50.1985 75.8915 50.3555C75.767 50.5125 75.6119 50.6426 75.4357 50.7381C75.0209 50.9288 74.5494 50.9557 74.1156 50.8135L73.9722 50.7739L74.6078 48.4618C74.3136 48.382 74.0005 48.4101 73.7252 48.541C73.6128 48.5992 73.514 48.6806 73.4354 48.7797C73.3567 48.8789 73.2999 48.9936 73.2688 49.1162C73.2156 49.2914 73.2229 49.4794 73.2895 49.6499C73.3772 49.8385 73.519 49.9968 73.6969 50.1044V50.0988ZM75.0415 48.5995L74.5663 50.3326C74.7838 50.3827 75.0112 50.3683 75.2207 50.2911C75.3408 50.2415 75.4476 50.1645 75.5328 50.0662C75.6179 49.968 75.6789 49.8513 75.711 49.7254C75.7448 49.6133 75.755 49.4955 75.741 49.3793C75.7271 49.2631 75.6893 49.1511 75.6299 49.0502C75.4971 48.8324 75.2869 48.6728 75.0415 48.6033V48.5995ZM75.2471 52.1468L74.9359 52.937L72.1693 52.8031L74.2815 54.5985L73.9949 55.3302L70.9247 54.1798L71.1246 53.6725L73.5969 54.5985L71.4753 52.7861L71.6526 52.3316L74.5738 52.4637L71.9826 51.4924L72.1712 50.9964L75.2414 52.1468H75.2471ZM73.3405 56.4843L73.0708 56.9596L70.8775 55.7734L72.3221 58.2797L72.0298 58.7926L69.1538 57.2368L69.4235 56.7597L71.6036 57.9402L70.1741 55.4414L70.4645 54.9285L73.3405 56.4843ZM69.9101 61.7912L67.217 59.9487L67.5339 59.5055L68.5843 60.224L68.7729 59.9675C68.8657 59.8527 68.9303 59.7177 68.9615 59.5734C68.951 59.3616 68.8971 59.1543 68.8031 58.9643L68.4938 58.1741L68.8898 57.6215L69.267 58.5984C69.3783 58.8126 69.4 59.0622 69.3273 59.2924C69.5008 59.0841 69.7468 58.9493 70.0157 58.9152C70.2483 58.8943 70.4808 58.9564 70.672 59.0906C70.7813 59.1588 70.8737 59.251 70.9423 59.3601C71.0109 59.4692 71.0539 59.5924 71.068 59.7205C71.0825 60.029 70.9809 60.3318 70.7832 60.5691L69.9101 61.7912ZM69.8497 61.0896L70.3061 60.456C70.4947 60.1901 70.5758 59.9883 70.5456 59.8544C70.5286 59.7821 70.4968 59.7141 70.4522 59.6546C70.4077 59.5951 70.3513 59.5455 70.2867 59.5089C70.2221 59.4722 70.1506 59.4493 70.0767 59.4416C70.0028 59.4339 69.9281 59.4415 69.8573 59.464C69.6332 59.5877 69.4453 59.7678 69.3122 59.9864L68.9596 60.4711L69.8497 61.0802V61.0896Z" fill="#53534E"/>
<path fill-rule="evenodd" clip-rule="evenodd" d="M12.4509 42.6323H67.6372V45.3536H12.4509V42.6323Z" fill="#53534E"/>
<path fill-rule="evenodd" clip-rule="evenodd" d="M16.1077 49.3491H64.0654V50.7937H16.1077V49.3491Z" fill="#53534E"/>
<path fill-rule="evenodd" clip-rule="evenodd" d="M14.1521 46.4585H66.106V48.4141H14.1521V46.4585Z" fill="#53534E"/>
<path fill-rule="evenodd" clip-rule="evenodd" d="M11.3292 40.4084L12.5626 40.5461C13.1755 40.6253 15.3499 40.7761 16.0062 40.8101C17.7759 40.88 19.5478 40.7452 21.2866 40.4084C22.5731 40.1364 23.8346 39.7579 25.0584 39.2769L27.7137 38.1642C29.1036 37.491 29.9258 36.9026 31.8419 36.3594C33.8861 35.9955 34.5745 36.0671 36.3001 36.548C37.2562 36.9723 38.5631 37.5438 40.0718 39.5013C40.6738 38.6832 41.408 37.9712 42.2443 37.3948C43.1458 36.7894 43.3589 36.7083 44.7714 36.3047C45.4711 36.2463 46.4197 35.954 47.851 36.3481C48.6817 36.5133 49.4832 36.8012 50.2291 37.2024C51.1975 37.7561 52.1996 38.2487 53.2295 38.6772L56.6807 39.9747C58.6288 40.5951 60.4015 40.8648 62.8739 40.8874L65.0898 40.7648L68.2694 40.4593L68.4297 42.017L65.5499 42.3263C63.2869 42.4659 61.3331 42.4979 59.5302 42.2094C57.6274 41.9869 55.9886 41.5022 53.371 40.4914C50.5007 39.3768 49.2504 38.1604 47.3588 37.8512C44.1415 37.3816 41.9822 39.0261 40.6904 41.5494L39.5192 41.5343C38.8856 40.2838 37.9115 39.2378 36.7093 38.5169C35.9549 38.0303 35.6362 37.8587 34.1822 37.6946C33.0979 37.6946 32.4246 37.7587 31.5156 38.1039C30.2992 38.5697 29.0828 39.3429 27.427 40.0407C25.3526 40.8327 24.3229 41.2457 21.975 41.8492C20.7284 42.1604 18.5804 42.415 16.5059 42.415L14.3108 42.2698L12.0572 42.0812L11.1614 41.9925L11.3236 40.399L11.3292 40.4084Z" fill="#53534E"/>
<path d="M24.6281 74.9014L21.8767 73.5926L21.937 70.9298C21.9483 70.3018 21.9219 69.8907 21.8559 69.7021C21.8178 69.6019 21.7595 69.5107 21.6845 69.4341C21.6096 69.3575 21.5196 69.2972 21.4203 69.257L19.8701 72.6403L17.4185 71.4805L21.3411 62.9224L23.7927 64.0822L22.284 67.3655C22.3788 67.4121 22.483 67.4363 22.5886 67.4363C22.6942 67.4363 22.7984 67.4121 22.8931 67.3655C23.0817 67.2712 23.4671 66.9242 24.0492 66.3245C24.3584 65.9734 24.7236 65.6758 25.1298 65.4438C25.4924 65.2939 25.8948 65.27 26.2726 65.3759C26.9826 65.5658 27.6704 65.8307 28.3245 66.1661L27.4966 67.9746L27.374 67.9162C26.9541 67.7188 26.6045 67.6559 26.3254 67.7276C25.9844 67.843 25.6808 68.0482 25.4466 68.3216C25.2153 68.5856 24.9411 68.8087 24.6357 68.9817C24.38 69.1033 24.098 69.1591 23.8153 69.1439C24.1159 69.4434 24.3325 69.8167 24.4433 70.2264C24.5859 70.8233 24.6493 71.4365 24.6319 72.05V74.9014H24.6281ZM37.2164 70.4281L33.0316 69.8284L32.0604 76.8778L29.39 76.5006L30.6799 67.1543L37.5369 68.1349L37.2201 70.4319L37.2164 70.4281ZM40.6109 68.0783L44.145 67.7012L46.0988 73.2645L46.8682 67.4183L50.3911 67.0411L51.3604 76.4252L49.1652 76.6609L48.426 69.5041L47.4623 76.8439L45.4765 77.0551L43.0418 70.0774L43.7811 77.2343L41.5803 77.47L40.6109 68.084V68.0783ZM60.7898 70.1924L58.0251 71.5672L58.3155 73.1551L55.8337 74.3866L54.7304 64.4311L57.3707 63.111L64.3899 70.1264L61.8572 71.4088L60.7992 70.1999L60.7898 70.1924ZM59.4055 68.612L57.0746 65.9926L57.6724 69.472L59.4055 68.612Z" fill="#53534E"/>
<path fill-rule="evenodd" clip-rule="evenodd" d="M38.4446 52.1245H41.7618V65.3935H38.4446V52.1245Z" fill="#53534E"/>
<path fill-rule="evenodd" clip-rule="evenodd" d="M48.2677 64.3113V52.1267L44.9089 52.106L44.9504 64.9921C44.9504 65.226 48.345 64.4641 48.2677 64.3113Z" fill="#53534E"/>
<path fill-rule="evenodd" clip-rule="evenodd" d="M53.5488 62.5122V52.1173L51.0293 52.106L51.0406 63.6192C51.0406 63.8531 53.6167 62.665 53.5488 62.5122Z" fill="#53534E"/>
<path fill-rule="evenodd" clip-rule="evenodd" d="M58.0852 60.3485V52.1261L56.1899 52.1167L56.2446 61.4367C56.2446 61.6686 58.1305 60.4937 58.0852 60.3485Z" fill="#53534E"/>
<path fill-rule="evenodd" clip-rule="evenodd" d="M31.8138 64.3113V52.1267L35.2348 52.106L35.1914 64.9978C35.1914 65.2316 31.744 64.4697 31.8138 64.317V64.3113Z" fill="#53534E"/>
<path fill-rule="evenodd" clip-rule="evenodd" d="M26.4371 62.5122V52.1173L29.0038 52.106L28.9924 63.6192C28.9924 63.8531 26.3692 62.665 26.4371 62.5122Z" fill="#53534E"/>
<path fill-rule="evenodd" clip-rule="evenodd" d="M21.8284 60.3504V52.1261L23.7633 52.1167L23.7067 61.4367C23.7067 61.6686 21.7944 60.4937 21.834 60.3504H21.8284Z" fill="#53534E"/>
<path fill-rule="evenodd" clip-rule="evenodd" d="M18.6935 63.5966C14.0383 59.2836 10.7932 53.6661 9.3826 47.4789C7.97201 41.2916 8.46163 34.8227 10.7874 28.9182C13.1132 23.0138 17.1669 17.9487 22.4182 14.3856C27.6694 10.8225 33.8739 8.92717 40.2198 8.94763C46.5658 8.96809 52.7579 10.9033 57.9861 14.5003C63.2143 18.0972 67.2352 23.1883 69.5229 29.1076C71.8105 35.0269 72.2585 41.4989 70.808 47.6769C69.3575 53.855 66.0763 59.4514 61.3934 63.7342C61.67 63.8813 61.9284 64.0316 62.1685 64.185C66.9244 59.7621 70.2405 54.0113 71.6859 47.6795C73.1313 41.3477 72.6392 34.7275 70.2736 28.679C67.908 22.6305 63.7782 17.4331 58.4206 13.762C53.063 10.0908 46.7253 8.11566 40.2306 8.09297C33.736 8.07028 27.3846 10.0011 22.0015 13.6347C16.6184 17.2683 12.4524 22.4368 10.0446 28.4686C7.63675 34.5005 7.09844 41.117 8.49955 47.4587C9.90067 53.8005 13.1765 59.5743 17.9014 64.0303C18.1528 63.8832 18.4169 63.7386 18.6935 63.5966Z" fill="#53534E"/>
<path fill-rule="evenodd" clip-rule="evenodd" d="M36.0984 18.3837L32.5793 20.4582L32.6208 29.8743L40.236 33.9969L40.5377 32.0205C39.0694 31.9724 37.6545 31.4583 36.4977 30.5527C35.341 29.6471 34.5024 28.3968 34.1034 26.983C33.7043 25.5691 33.7655 24.0649 34.2781 22.6882C34.7907 21.3114 35.7281 20.1334 36.9546 19.3248L36.1078 18.3818L36.0984 18.3837Z" fill="#53534E"/>
<path fill-rule="evenodd" clip-rule="evenodd" d="M38.646 16.8824L39.8661 18.2383C41.56 18.015 43.2766 18.4261 44.6855 19.3925C46.0944 20.3589 47.0961 21.8122 47.4978 23.4728C47.8995 25.1334 47.6728 26.8839 46.8613 28.3874C46.0498 29.8909 44.7109 31.0411 43.1023 31.6167L42.8251 33.4347L48.8599 30.0401V20.4221L40.7374 15.6509L38.6384 16.888L38.646 16.8824Z" fill="#53534E"/>
<path fill-rule="evenodd" clip-rule="evenodd" d="M31.8401 36.3638C29.9241 36.9069 29.1018 37.4953 27.7119 38.1686L25.0566 39.2813C23.8329 39.7623 22.5713 40.1408 21.2849 40.4128C19.5461 40.7496 17.7742 40.8844 16.0044 40.8145C15.3481 40.7805 13.1756 40.6259 12.5608 40.5504L11.3275 40.4128L11.1653 42.0063L12.0611 42.095L14.3147 42.2836L16.5098 42.4288C18.573 42.4288 20.7248 42.1685 21.9789 41.863C24.3268 41.2595 25.3602 40.8484 27.4309 40.0545C29.0867 39.3567 30.3031 38.5835 31.5195 38.1177C32.4285 37.7726 33.1018 37.7028 34.1861 37.7084C35.6401 37.8725 35.9551 38.0441 36.7132 38.5307C37.9154 39.2517 38.8895 40.2976 39.5232 41.5481L40.6943 41.5632C41.9861 39.0399 44.1454 37.3954 47.3627 37.865C49.2486 38.1761 50.5046 39.3925 53.3749 40.5052C55.9925 41.516 57.6313 42.0007 59.5342 42.2232C61.337 42.5118 63.2927 42.4797 65.5539 42.3401L68.4336 42.0309L68.2733 40.4731L65.0956 40.7786L62.8797 40.9012C60.4073 40.8786 58.6346 40.6089 56.6865 39.9885L53.2353 38.691C52.2054 38.2625 51.2033 37.7699 50.2349 37.2162C49.489 36.815 48.6875 36.5271 47.8568 36.3619C46.4255 35.9678 45.4769 36.2601 44.7772 36.3185C43.3647 36.7221 43.1516 36.8032 42.2501 37.4086C41.4142 37.9863 40.6806 38.6996 40.0795 39.5189C38.5708 37.5613 37.2507 36.9899 36.3077 36.5656C34.5822 36.0847 33.8938 36.013 31.8495 36.377L31.8401 36.3638Z" fill="#53534E"/>
<path fill-rule="evenodd" clip-rule="evenodd" d="M67.6372 42.6323H12.4509V45.3536H67.6372V42.6323Z" fill="#53534E"/>
<path fill-rule="evenodd" clip-rule="evenodd" d="M66.106 46.4585H14.1521V48.4141H66.106V46.4585Z" fill="#53534E"/>
<path fill-rule="evenodd" clip-rule="evenodd" d="M64.0654 49.3491H16.1077V50.7937H64.0654V49.3491Z" fill="#53534E"/>
<path fill-rule="evenodd" clip-rule="evenodd" d="M23.7004 61.4367L23.757 52.1167L21.8278 52.128V60.3504C21.7882 60.5013 23.7004 61.6705 23.7004 61.4367Z" fill="#53534E"/>
<path fill-rule="evenodd" clip-rule="evenodd" d="M26.4371 52.1173V62.5122C26.3692 62.665 28.9924 63.8531 28.9924 63.6192L29.0038 52.106L26.4371 52.1173Z" fill="#53534E"/>
<path fill-rule="evenodd" clip-rule="evenodd" d="M31.8138 52.1267V64.3113C31.744 64.4641 35.1914 65.226 35.1914 64.9921L35.2348 52.106L31.8138 52.1267Z" fill="#53534E"/>
<path fill-rule="evenodd" clip-rule="evenodd" d="M38.4446 52.1245V65.3935H41.7618V52.1245H38.4446Z" fill="#53534E"/>
<path fill-rule="evenodd" clip-rule="evenodd" d="M44.9089 52.106L44.9504 64.9921C44.9504 65.226 48.345 64.4641 48.2677 64.3113V52.1267L44.9089 52.106Z" fill="#53534E"/>
<path fill-rule="evenodd" clip-rule="evenodd" d="M51.0293 52.106L51.0406 63.6192C51.0406 63.8531 53.6167 62.665 53.5488 62.5122V52.1173L51.0293 52.106Z" fill="#53534E"/>
<path fill-rule="evenodd" clip-rule="evenodd" d="M56.1804 52.1167L56.2351 61.4367C56.2351 61.6686 58.121 60.4937 58.0757 60.3485V52.1261L56.1804 52.1167Z" fill="#53534E"/>
<path fill-rule="evenodd" clip-rule="evenodd" d="M24.6245 72.0497C24.6408 71.4362 24.5774 70.8232 24.4359 70.2261C24.3232 69.8168 24.1062 69.4438 23.806 69.1436C24.0887 69.1588 24.3708 69.103 24.6264 68.9814C24.9318 68.8085 25.206 68.5853 25.4373 68.3214C25.6721 68.0486 25.9755 67.8435 26.3161 67.7273C26.5952 67.6519 26.946 67.7141 27.3647 67.9159L27.4873 67.9744L28.3152 66.1658C27.6627 65.831 26.9769 65.5655 26.269 65.3737C25.8912 65.2679 25.4888 65.2918 25.1262 65.4416C24.7203 65.672 24.3553 65.9676 24.0455 66.3167C23.4622 66.9164 23.0768 67.2634 22.8895 67.3577C22.7947 67.4043 22.6905 67.4285 22.5849 67.4285C22.4793 67.4285 22.3751 67.4043 22.2804 67.3577L23.7891 64.0744L21.3374 62.9146L17.4224 71.4802L19.874 72.64L21.4242 69.2567C21.5235 69.297 21.6135 69.3573 21.6884 69.4338C21.7634 69.5104 21.8217 69.6016 21.8598 69.7018C21.9258 69.8904 21.9522 70.3015 21.9409 70.9295L21.8768 73.5924L24.6321 74.9012V72.0497H24.6245Z" fill="#53534E"/>
<path fill-rule="evenodd" clip-rule="evenodd" d="M30.6764 67.1509L29.3865 76.4973L32.0569 76.8782L33.0319 69.8288L37.2166 70.4285L37.5334 68.1315L30.6764 67.1509Z" fill="#53534E"/>
<path fill-rule="evenodd" clip-rule="evenodd" d="M40.6111 68.0785L41.5804 77.4645L43.7812 77.2287L43.042 70.0718L45.4766 77.0477L47.4625 76.8346L48.4261 69.4966L49.1654 76.6535L51.3606 76.4178L50.3912 67.0337L46.8684 67.409L46.099 73.2646L44.1452 67.7013L40.6111 68.0785Z" fill="#53534E"/>
<path fill-rule="evenodd" clip-rule="evenodd" d="M54.7302 64.4322L55.841 74.3802L58.3228 73.1487L58.0324 71.5608L60.7971 70.186L61.8569 71.4099L64.3972 70.1483L57.378 63.1328L54.7378 64.4529L54.7302 64.4322ZM57.6778 69.4656L57.08 65.9861L59.4053 68.6132L57.6722 69.4731L57.6778 69.4656Z" fill="#53534E"/>
<path d="M6.72211 66.7428L6.30156 67.0709C7.04837 68.122 6.89121 69.0649 5.83009 69.8997C4.76898 70.7345 3.81598 70.666 2.97111 69.6942L2.4789 70.0883L1.92822 69.3886L2.42044 69.0115C1.67614 67.9642 1.83456 67.0212 2.89568 66.1827C3.95679 65.3441 4.90853 65.4101 5.75089 66.3807L6.17144 66.0488L6.72211 66.7484V66.7428ZM5.59059 67.6386L3.6934 69.1322C4.12966 69.6866 4.6684 69.7111 5.30959 69.2057C5.93193 68.7154 6.0256 68.193 5.59059 67.6386ZM3.13895 68.4325L5.03614 66.9389C4.60365 66.3895 4.06932 66.3662 3.43315 66.8691C2.79698 67.372 2.69892 67.8931 3.13895 68.4325Z" fill="#53534E"/>
<path d="M4.09888 72.1155L6.94277 69.4263L7.50288 70.0184L5.71696 71.7063L8.3949 70.9614L8.97574 71.5743L6.12996 74.2654L5.56986 73.6733L7.3935 71.9477L4.65898 72.7096L4.09888 72.1155Z" fill="#53534E"/>
<path d="M8.32842 76.448L10.4745 74.2114L9.64664 73.4174L8.40951 74.7074C8.24932 74.8834 8.07107 75.042 7.87769 75.1807C7.74545 75.2771 7.59111 75.3387 7.42885 75.3599C7.31396 75.3787 7.19608 75.3615 7.09128 75.3109C6.9816 75.2425 6.88032 75.1615 6.78954 75.0695C6.66768 74.9395 6.55548 74.8009 6.45386 74.6546L6.9819 74.1039C7.02716 74.1548 7.11014 74.2359 7.22895 74.3509C7.25369 74.3826 7.28788 74.4055 7.32655 74.4164C7.36522 74.4272 7.40635 74.4254 7.44394 74.4113C7.58196 74.3296 7.70505 74.225 7.80791 74.102L9.59384 72.2388L11.6513 74.2114L8.94321 77.0402L8.32653 76.4499L8.32842 76.448Z" fill="#53534E"/>
<path d="M9.68262 77.5016L12.106 74.4258L12.7453 74.9312L11.2253 76.8623L13.7655 75.7346L14.4275 76.2551L12.006 79.3309L11.3667 78.8274L12.9188 76.8567L10.3257 78.0089L9.68262 77.5016Z" fill="#53534E"/>
<path d="M14.7106 77.8848L14.1448 77.3341C14.3697 77.0856 14.6709 76.919 15.001 76.8607C15.3306 76.8464 15.655 76.9463 15.9194 77.1436C16.1629 77.282 16.3702 77.4758 16.5248 77.7094C16.6246 77.8801 16.6657 78.0788 16.6417 78.2751C16.5635 78.5867 16.4265 78.8805 16.2381 79.1408L15.5743 80.1516C15.433 80.3616 15.3069 80.5816 15.1971 80.8098C15.1246 80.9784 15.0696 81.1541 15.0331 81.334L14.3334 80.8795L14.473 80.4609C14.2786 80.5248 14.0734 80.5491 13.8695 80.5325C13.6858 80.5157 13.5091 80.4542 13.3546 80.3534C13.232 80.2801 13.1265 80.1814 13.0452 80.064C12.9639 79.9466 12.9087 79.8131 12.8832 79.6726C12.8342 79.3676 12.9081 79.0557 13.0887 78.8051C13.1924 78.635 13.3345 78.4916 13.5036 78.3864C13.6546 78.2935 13.828 78.2433 14.0053 78.2412C14.2592 78.2551 14.509 78.3112 14.7445 78.4071C15.0118 78.5151 15.29 78.5936 15.5743 78.641C15.658 78.5268 15.7218 78.3993 15.7629 78.2638C15.7713 78.183 15.7535 78.1017 15.712 78.0319C15.6496 77.9312 15.5651 77.846 15.4649 77.7829C15.3619 77.7072 15.2363 77.6687 15.1085 77.6735C14.9574 77.7018 14.8186 77.7755 14.7106 77.8848ZM15.2047 79.2049C15.0322 79.1668 14.8621 79.1183 14.6955 79.0597C14.5169 78.9846 14.3227 78.9542 14.1297 78.971C14.0718 78.9854 14.0173 79.0111 13.9694 79.0467C13.9214 79.0824 13.8811 79.1271 13.8506 79.1785C13.7721 79.2932 13.7385 79.4328 13.7563 79.5707C13.765 79.6345 13.7875 79.6956 13.8224 79.7497C13.8573 79.8038 13.9036 79.8496 13.9581 79.8838C14.0708 79.9539 14.2031 79.9856 14.3353 79.9743C14.4663 79.9732 14.5941 79.9338 14.703 79.8612C14.8567 79.7215 14.9866 79.5578 15.0877 79.3765L15.2009 79.203L15.2047 79.2049Z" fill="#53534E"/>
<path d="M17.5394 82.8018L19.0895 80.1182L18.1051 79.543L17.2093 81.0913C17.0946 81.2985 16.9594 81.4937 16.8058 81.674C16.6987 81.7996 16.5619 81.8962 16.4078 81.955C16.3001 82.0008 16.1808 82.012 16.0665 81.9871C15.9448 81.9477 15.8283 81.8939 15.7195 81.8268C15.5704 81.7298 15.4286 81.622 15.2952 81.5043L15.6723 80.8442C15.7308 80.8838 15.8289 80.9423 15.9722 81.0328C16.0047 81.0569 16.044 81.0699 16.0844 81.0699C16.1248 81.0699 16.1641 81.0569 16.1966 81.0328C16.3096 80.9232 16.4039 80.7958 16.4757 80.6557L17.7657 78.4209L20.2343 79.8485L18.2937 83.228L17.5394 82.8018Z" fill="#53534E"/>
<path d="M25.0822 80.2407L24.8823 80.7385C26.0541 81.2754 26.3885 82.1712 25.8856 83.4259C25.3827 84.6806 24.5228 85.0962 23.3057 84.6725L23.0719 85.2552L22.2459 84.9233L22.4778 84.3424C21.3111 83.8069 20.9792 82.913 21.4821 81.6607C21.985 80.4085 22.8431 79.9905 24.0563 80.4066L24.2562 79.9106L25.0822 80.2407ZM24.5391 81.5928L23.6414 83.8333C24.2939 84.096 24.7723 83.8484 25.0766 83.0902C25.3708 82.3547 25.1916 81.8556 24.5391 81.5928ZM22.8192 83.4938L23.7169 81.2534C23.0681 80.9931 22.5929 81.2396 22.2911 81.9927C21.9894 82.7457 22.1654 83.2486 22.8192 83.5013V83.4938Z" fill="#53534E"/>
<path d="M25.5522 86.195L26.9968 81.0371L29.9972 81.8782L29.7502 82.757L27.6078 82.1554L26.4084 86.4345L25.5522 86.195Z" fill="#53534E"/>
<path d="M29.1392 87.2109L30.1198 81.8984L33.3805 82.5L33.2145 83.3977L30.8327 82.9583L30.6083 84.1747L31.8548 84.4048C32.0625 84.4319 32.2618 84.5036 32.4392 84.6149C32.6166 84.7262 32.7679 84.8745 32.8826 85.0497C33.1024 85.4232 33.1699 85.8669 33.0712 86.2887C33.0057 86.6872 32.814 87.0541 32.5243 87.3354C32.2358 87.6145 31.8171 87.7126 31.2664 87.6032L29.1429 87.2109H29.1392ZM30.4385 85.0724L30.1745 86.4736L31.1005 86.6452C31.2754 86.6851 31.455 86.701 31.6342 86.6923C31.7593 86.6743 31.8741 86.6129 31.9585 86.5188C32.0591 86.4105 32.1248 86.2745 32.1471 86.1284C32.2339 85.6532 31.9824 85.3603 31.3928 85.2496L30.4291 85.0724H30.4385Z" fill="#53534E"/>
<path d="M33.5189 85.313C33.542 84.7696 33.6802 84.2374 33.9244 83.7515C34.1086 83.3902 34.391 83.0882 34.7391 82.8802C35.086 82.6961 35.4801 82.6199 35.8706 82.6615C36.1668 82.6761 36.4555 82.7596 36.7137 82.9053C36.972 83.051 37.1928 83.2548 37.3586 83.5007C37.7194 84.0136 37.8659 84.7158 37.798 85.6072C37.7301 86.5067 37.4642 87.1951 37.0059 87.6703C36.7993 87.8665 36.554 88.0173 36.2857 88.1131C36.0174 88.2089 35.7321 88.2475 35.448 88.2266C35.1639 88.2056 34.8873 88.1255 34.636 87.9914C34.3846 87.8573 34.1641 87.6721 33.9885 87.4478C33.6113 86.9084 33.4536 86.1968 33.5152 85.313H33.5189ZM34.4392 85.3469C34.3927 85.9655 34.4751 86.4376 34.6863 86.7632C34.7717 86.9135 34.8926 87.0405 35.0385 87.1333C35.1843 87.226 35.3507 87.2816 35.5229 87.2952C35.6952 87.3087 35.8682 87.2799 36.0268 87.2112C36.1854 87.1424 36.3247 87.0359 36.4326 86.9009C36.6853 86.6124 36.8381 86.1465 36.8852 85.5148C36.9324 84.883 36.8569 84.4229 36.6551 84.1079C36.5668 83.9595 36.4434 83.835 36.2958 83.7452C36.1482 83.6555 35.9808 83.6032 35.8084 83.5931C35.6359 83.577 35.4622 83.6029 35.3019 83.6686C35.1416 83.7343 34.9997 83.8378 34.8881 83.9702C34.6366 84.2544 34.487 84.7114 34.4392 85.3413V85.3469Z" fill="#53534E"/>
<path d="M39.5336 86.8729L38.0249 82.939L39.0263 82.971L39.9692 85.7998L40.9461 83.0238L41.8702 83.054L40.2578 87.1105C40.1268 87.4858 39.9357 87.8374 39.692 88.1515C39.6154 88.2441 39.5186 88.318 39.4092 88.3677C39.2997 88.4174 39.1804 88.4415 39.0602 88.4382C38.8514 88.4333 38.6438 88.4041 38.4417 88.3514L38.4662 87.5443C38.6133 87.5575 38.7264 87.5669 38.8019 87.5688C38.9652 87.5909 39.1306 87.5475 39.262 87.4481C39.3938 87.2763 39.4871 87.0782 39.5355 86.8672L39.5336 86.8729Z" fill="#53534E"/>
<path d="M47.1478 86.9607L47.5249 86.9136L47.7776 88.988L47.0516 89.0767L46.9101 87.9074L44.1304 88.245L44.2718 89.4142L43.5457 89.501L43.2949 87.4265L43.6721 87.3832C43.777 86.9233 43.8327 86.4536 43.8381 85.9819C43.8354 85.1812 43.778 84.3817 43.6664 83.5888L43.5797 82.8721L46.6141 82.5044L47.1478 86.9607ZM45.8276 83.5171L44.517 83.6774C44.7093 85.2578 44.7332 86.4553 44.5886 87.27L46.2576 87.0682L45.8276 83.5171Z" fill="#53534E"/>
<path d="M49.146 87.4991L48.2785 87.699L47.064 82.4355L50.5113 81.6396L51.7258 86.9031L50.8583 87.103L49.8494 82.7297L48.137 83.1257L49.146 87.4991Z" fill="#53534E"/>
<path d="M51.6005 84.3619C51.4043 83.8546 51.3188 83.3113 51.3496 82.7683C51.3731 82.3612 51.511 81.9689 51.7476 81.6368C51.9936 81.3287 52.3258 81.1008 52.7018 80.9824C52.9791 80.8785 53.2768 80.8404 53.5713 80.8712C53.8659 80.9019 54.1492 81.0007 54.3991 81.1596C54.9347 81.4865 55.349 82.0718 55.6419 82.9154C55.9348 83.759 55.9675 84.4951 55.74 85.1238C55.629 85.3862 55.4643 85.6224 55.2566 85.8174C55.0488 86.0124 54.8026 86.1617 54.5337 86.2559C54.2648 86.35 53.9792 86.3868 53.6952 86.364C53.4112 86.3411 53.1352 86.2592 52.8847 86.1233C52.319 85.7826 51.8903 85.1929 51.5986 84.3543L51.6005 84.3619ZM52.4585 84.0262C52.6622 84.6108 52.9262 85.0125 53.2487 85.2275C53.388 85.3303 53.5502 85.3978 53.7214 85.424C53.8925 85.4503 54.0675 85.4346 54.2313 85.3783C54.3942 85.3226 54.541 85.2276 54.6584 85.1016C54.7759 84.9756 54.8604 84.8226 54.9045 84.6561C55.0233 84.2902 54.9762 83.8055 54.7687 83.2039C54.5613 82.6023 54.3067 82.2139 53.9955 82.0064C53.8535 81.9081 53.6902 81.8447 53.5189 81.8215C53.3477 81.7983 53.1734 81.8159 53.0103 81.8729C52.8472 81.9299 52.6999 82.0247 52.5804 82.1495C52.4609 82.2743 52.3726 82.4256 52.3228 82.591C52.2058 82.9493 52.2511 83.4277 52.4585 84.0262Z" fill="#53534E"/>
<path d="M58.7887 84.5978L56.5615 79.6757L57.8722 79.0835C58.1859 78.9236 58.5177 78.802 58.8604 78.7214C59.1489 78.6934 59.4377 78.7711 59.6732 78.9402C59.9716 79.1566 60.203 79.4526 60.3408 79.7945C60.4895 80.1011 60.557 80.4407 60.5369 80.7808C60.5253 81.0484 60.4289 81.3053 60.2616 81.5144C59.9821 81.7848 59.6503 81.9953 59.2866 82.133L58.7529 82.3744L59.594 84.2319L58.7831 84.5997L58.7887 84.5978ZM57.7496 80.1415L58.3833 81.5427L58.8359 81.339C59.0494 81.2554 59.2485 81.1389 59.4262 80.9939C59.5177 80.8999 59.5766 80.7789 59.594 80.6488C59.6103 80.4919 59.5815 80.3335 59.511 80.1924C59.4508 80.0443 59.3485 79.9172 59.2168 79.8265C59.1071 79.7487 58.9738 79.7114 58.8397 79.7209C58.5971 79.7698 58.3628 79.853 58.1438 79.968L57.7459 80.1471L57.7496 80.1415Z" fill="#53534E"/>
<path d="M62.5022 82.8296L59.7847 78.162L60.9369 77.4907L63.4904 80.2761L62.3193 76.6873L63.481 76.0103L66.1985 80.6778L65.4819 81.0946L63.3377 77.4133L64.72 81.5377L63.9826 81.9677L61.0765 78.7316L63.2188 82.4128L62.5022 82.8296Z" fill="#53534E"/>
<path d="M70.1551 77.8377L69.3668 78.4035L68.3503 77.6265L66.8982 78.6562L67.3074 79.865L66.5323 80.4157L64.8105 75.0145L65.5875 74.4639L70.1551 77.8377ZM67.5847 77.0456L65.9232 75.7651L66.5946 77.7491L67.5847 77.0456Z" fill="#53534E"/>
<path d="M70.4231 77.4721L66.8777 73.3986L67.5491 72.814L68.9465 74.4188L70.2723 73.2647L68.8748 71.6598L69.5462 71.0752L73.0916 75.1506L72.4203 75.7333L70.872 73.953L69.5443 75.1072L71.0964 76.8875L70.4231 77.4721Z" fill="#53534E"/>
<path d="M74.3493 73.7776L73.7345 74.4207L69.8345 70.6829L72.2823 68.1294L76.1804 71.8653L75.5656 72.5084L72.3257 69.4024L71.1093 70.6716L74.3493 73.7776Z" fill="#53534E"/>
<path d="M74.5813 69.6589C74.14 69.3404 73.7717 68.9315 73.5007 68.4595C73.3003 68.1076 73.2035 67.7061 73.2216 67.3016C73.2597 66.909 73.414 66.5367 73.6648 66.2323C73.8408 65.9934 74.0698 65.7987 74.334 65.6635C74.5981 65.5283 74.89 65.4564 75.1867 65.4534C75.8128 65.4364 76.4785 65.6986 77.1857 66.2474C77.8929 66.7962 78.3267 67.3996 78.47 68.0465C78.5201 68.3269 78.511 68.6146 78.4432 68.8912C78.3754 69.1679 78.2504 69.4272 78.0763 69.6527C77.9022 69.8781 77.6829 70.0646 77.4324 70.2001C77.1819 70.3357 76.9058 70.4172 76.6219 70.4397C75.9618 70.4623 75.2816 70.202 74.5813 69.6589ZM75.115 68.9046C75.6054 69.2817 76.0454 69.4735 76.4351 69.4797C76.6079 69.4902 76.7806 69.4584 76.9384 69.3871C77.0961 69.3158 77.2341 69.2071 77.3404 69.0705C77.4469 68.935 77.5183 68.7752 77.5482 68.6055C77.5782 68.4357 77.5657 68.2612 77.512 68.0974C77.412 67.7202 77.1084 67.3431 76.6049 66.9546C76.1014 66.5661 75.6789 66.3775 75.3055 66.3718C75.1327 66.3671 74.9613 66.4032 74.8051 66.4772C74.6489 66.5512 74.5125 66.6611 74.4068 66.7978C74.3011 66.9346 74.2292 67.0943 74.1969 67.2641C74.1647 67.4339 74.173 67.6089 74.2211 67.7749C74.3192 68.1383 74.6178 68.5154 75.1169 68.9064L75.115 68.9046Z" fill="#53534E"/>
</g>
<defs>
<clipPath id="clip0_331_131925">
<rect width="80.0629" height="89" fill="white" transform="translate(0 0.5)"/>
</clipPath>
</defs>
</svg>
