<svg width="219" height="46" viewBox="0 0 219 46" fill="none" xmlns="http://www.w3.org/2000/svg">
<g clip-path="url(#clip0_331_131996)">
<path fill-rule="evenodd" clip-rule="evenodd" d="M45.0045 0.5H30.5231V8.88152C24.6306 8.52797 19.9778 9.87146 16.4612 14.8825C14.929 17.0872 14.0618 19.6853 13.9628 22.3683C13.892 24.7866 14.6133 28.8595 16.0275 30.1983C18.1535 30.2973 20.0438 29.7269 21.2695 28.6144C21.0338 27.6999 18.5872 25.2297 19.7044 20.8316C21.6843 13.0487 32.1871 11.8749 35.9112 18.9459C37.0096 21.039 35.4822 20.5534 42.5108 20.5346L44.9103 17.9937L45.0045 0.5Z" fill="#F18B17"/>
<path fill-rule="evenodd" clip-rule="evenodd" d="M0 27.9308V45.4999H14.4202V37.1372C18.3517 37.0618 19.7894 37.4672 23.1788 35.756C31.5132 31.5558 32.7954 20.5062 28.9629 15.7733C26.1345 15.7733 25.4463 16.1693 23.5984 17.3996C23.8294 17.9418 24.1829 18.2953 24.5129 18.8846C25.595 20.9151 25.8342 23.2899 25.1787 25.4954C24.5232 27.7009 23.0258 29.5597 21.0104 30.6696C15.6411 33.7384 9.42803 30.0096 8.42866 25.4559L2.456 25.5078L0 27.9308Z" fill="#444343"/>
<path fill-rule="evenodd" clip-rule="evenodd" d="M30.5232 45.5H45.0047L44.934 28.0063L42.5345 25.4843C33.1631 25.4843 38.4192 24.9751 34.5631 29.0292C31.8054 31.9283 30.6882 30.4434 29.2929 32.5081C27.5345 35.115 25.2577 35.9635 24.6873 36.8545C26.6078 37.2378 28.5749 37.3315 30.5232 37.1326V45.5Z" fill="#F18B17"/>
<path fill-rule="evenodd" clip-rule="evenodd" d="M0 18.0691L2.46072 20.4969L8.42866 20.544C9.03206 17.8287 11.5211 15.4623 14.142 14.6703C15.8674 14.1518 15.6128 12.7847 18.6958 10.4654C19.2803 10.027 19.9167 9.69233 20.3504 9.29164C18.4648 8.54683 16.5226 8.89095 14.4013 8.86738V0.5H0V18.0691Z" fill="#434242"/>
<path fill-rule="evenodd" clip-rule="evenodd" d="M55.6252 21.7556V17.1594C55.6252 16.5561 55.3754 16.4523 54.4185 16.4523C53.4615 16.4523 53.2117 16.5561 53.2117 17.1594V28.6616C53.2117 29.265 53.4851 29.3687 54.4185 29.3687C55.3518 29.3687 55.6252 29.2556 55.6252 28.6616V23.7968H59.6416V28.6616C59.6416 29.265 59.8867 29.3687 60.8437 29.3687C61.8006 29.3687 62.0505 29.265 62.0505 28.6616V17.1594C62.0505 16.5561 61.7818 16.4523 60.8437 16.4523C59.9056 16.4523 59.6416 16.5561 59.6416 17.1594V21.7556H55.6252ZM72.327 29.3687C73.2698 29.3687 73.5338 29.265 73.5338 28.6616V17.1594C73.5338 16.5561 73.2604 16.4523 72.096 16.4523C71.3088 16.4523 71.0354 16.4948 70.7242 17.1406L66.854 25.0837H66.6702V17.1594C66.6702 16.5561 66.4203 16.4523 65.4634 16.4523C64.5065 16.4523 64.2566 16.5561 64.2566 17.1594V28.6616C64.2566 29.265 64.4876 29.3687 65.6708 29.3687C66.4392 29.3687 66.689 29.3263 67.0002 28.7041L70.9505 20.7374H71.1391V28.6616C71.1391 29.265 71.4078 29.3687 72.3459 29.3687H72.327ZM83.8056 29.3687C84.7484 29.3687 85.0124 29.265 85.0124 28.6616V17.1594C85.0124 16.5561 84.7437 16.4523 83.5982 16.4523C82.8063 16.4523 82.5376 16.4948 82.2264 17.1406L78.3562 25.0837H78.1677V17.1594C78.1677 16.5561 77.9178 16.4523 76.9609 16.4523C76.0039 16.4523 75.7541 16.5561 75.7541 17.1594V28.6616C75.7541 29.265 75.9851 29.3687 77.1683 29.3687C77.9367 29.3687 78.1865 29.3263 78.4977 28.7041L82.4527 20.7374H82.6366V28.6616C82.6366 29.265 82.91 29.3687 83.8434 29.3687H83.8056ZM89.6322 21.7556V17.1594C89.6322 16.5561 89.3823 16.4523 88.4254 16.4523C87.4684 16.4523 87.2186 16.5561 87.2186 17.1594V28.6616C87.2186 29.265 87.4873 29.3687 88.4254 29.3687C89.3635 29.3687 89.6322 29.265 89.6322 28.6616V23.7968H93.6438V28.6616C93.6438 29.265 93.8936 29.3687 94.8506 29.3687C95.8075 29.3687 96.0574 29.265 96.0574 28.6616V17.1594C96.0574 16.5561 95.7887 16.4523 94.8506 16.4523C93.9125 16.4523 93.6438 16.5561 93.6438 17.1594V21.7556H89.6322ZM106.131 28.3081C106.131 27.436 105.966 27.2286 105.49 27.2286H100.682V23.6506H104.01C104.552 23.6506 104.656 23.4621 104.656 22.59C104.656 21.7179 104.552 21.5482 104.01 21.5482H100.682V18.5972H105.278C105.749 18.5972 105.924 18.4087 105.924 17.5366C105.924 16.6645 105.759 16.4523 105.278 16.4523H98.9942C98.4332 16.4523 98.2494 16.556 98.2494 17.0982V28.7229C98.2494 29.265 98.4332 29.3687 98.9942 29.3687H105.467C105.938 29.3687 106.108 29.1613 106.108 28.3081H106.131ZM107.215 22.5664C107.215 26.2481 108.776 27.2286 111.727 27.2286H112.269V28.7842C112.269 29.3876 112.538 29.4913 113.476 29.4913C114.414 29.4913 114.682 29.3876 114.682 28.7842V27.2286H115.22C118.176 27.2286 119.736 26.2481 119.736 22.5664C119.736 18.7952 117.968 18.2625 115.22 18.2625H114.682V17.0369C114.682 16.4523 114.409 16.3486 113.476 16.3486C112.542 16.3486 112.269 16.4523 112.269 17.0369V18.2625H111.722C108.978 18.2625 107.211 18.8046 107.211 22.5664H107.215ZM115.229 20.2377C116.893 20.2377 117.351 20.5111 117.351 22.5664C117.351 24.8999 116.879 25.2723 115.229 25.2723H114.692V20.2377H115.229ZM109.615 22.5664C109.615 20.5111 110.086 20.2377 111.736 20.2377H112.278V25.2723H111.722C110.082 25.2723 109.601 24.8999 109.601 22.5664H109.615Z" fill="#444343"/>
<path fill-rule="evenodd" clip-rule="evenodd" d="M124.299 29.3685C125.242 29.3685 125.506 29.2648 125.506 28.6614V18.597H128.023C128.494 18.597 128.669 18.4084 128.669 17.5363C128.669 16.6642 128.504 16.4521 128.023 16.4521H120.58C120.108 16.4521 119.934 16.6595 119.934 17.5363C119.934 18.4131 120.099 18.597 120.58 18.597H123.092V28.6614C123.092 29.2648 123.366 29.3685 124.299 29.3685ZM137.842 28.3125C137.842 27.4405 137.673 27.233 137.197 27.233H132.393V23.6504H135.721C136.258 23.6504 136.362 23.4618 136.362 22.5897C136.362 21.7176 136.258 21.5479 135.721 21.5479H132.393V18.597H136.989C137.461 18.597 137.63 18.4084 137.63 17.5363C137.63 16.6642 137.465 16.4521 136.989 16.4521H130.729C130.168 16.4521 129.979 16.5558 129.979 17.0979V28.7227C129.979 29.2648 130.168 29.3685 130.729 29.3685H137.178C137.649 29.3685 137.824 29.1611 137.824 28.3078L137.842 28.3125ZM140.647 29.3732C141.59 29.3732 141.854 29.2695 141.854 28.6661V18.597H145.743V28.6614C145.743 29.2648 146.012 29.3685 146.95 29.3685C147.888 29.3685 148.157 29.2648 148.157 28.6614V17.0979C148.157 16.5558 147.992 16.4521 147.407 16.4521H140.19C139.629 16.4521 139.44 16.5558 139.44 17.0979V28.6614C139.44 29.2648 139.714 29.3685 140.647 29.3685V29.3732ZM151.588 29.3732C152.531 29.3732 152.795 29.2695 152.795 28.6661V24.8949H153.936C157.264 24.8949 158.886 23.9191 158.886 20.3836C158.886 16.8481 157.556 16.3672 154.667 16.3672C153.478 16.3621 152.289 16.4251 151.108 16.5558C150.608 16.6171 150.382 16.7868 150.382 17.3666V28.6802C150.382 29.2836 150.65 29.3873 151.588 29.3873V29.3732ZM152.795 18.4555C153.21 18.4131 153.832 18.3707 154.393 18.3707C155.935 18.3707 156.373 18.7054 156.373 20.492C156.373 22.4059 155.902 22.9056 154.044 22.9056H152.795V18.4508V18.4555ZM165.023 27.4405C163.11 27.4405 162.798 27.0445 162.798 23.4901V22.3823C162.798 18.8468 163.194 18.4273 165.023 18.4273C166.956 18.4273 167.267 18.8468 167.267 22.3823V23.4854C167.267 27.0398 166.876 27.4357 165.023 27.4357V27.4405ZM165.023 29.5193C168.163 29.5193 169.681 29.0008 169.681 23.7164V22.3022C169.681 16.9989 168.474 16.3719 165.023 16.3719C161.78 16.3719 160.385 16.9141 160.385 22.3022V23.7164C160.385 28.9018 161.695 29.5193 165.023 29.5193ZM172.82 29.3732C173.763 29.3732 174.008 29.2695 174.008 28.6661V20.1149H174.131L176.016 25.2531C176.266 25.9603 176.455 26.0828 177.266 26.0828C178.077 26.0828 178.284 25.9603 178.534 25.2531L180.419 20.1149H180.547V28.6614C180.547 29.2648 180.796 29.3685 181.735 29.3685C182.673 29.3685 182.904 29.2554 182.904 28.6614V17.3053C182.904 16.6595 182.677 16.4521 181.447 16.4521C180.217 16.4521 179.868 16.5369 179.561 17.3053L177.336 23.0658H177.247L175.022 17.3053C174.711 16.5369 174.357 16.4521 173.136 16.4521C171.915 16.4521 171.661 16.6595 171.661 17.3053V28.6614C171.661 29.2648 171.911 29.3685 172.844 29.3685L172.82 29.3732ZM185.591 29.3732C186.571 29.3732 186.755 29.2695 187.071 28.6897L189.126 24.8807H189.211L191.332 28.6897C191.643 29.2506 191.832 29.3732 192.808 29.3732C193.784 29.3732 193.996 29.1469 193.996 28.7934C193.962 28.468 193.84 28.1582 193.642 27.8977L190.446 22.7359L193.392 17.9417C193.584 17.6778 193.706 17.3696 193.746 17.046C193.746 16.6925 193.515 16.4615 192.539 16.4615C191.563 16.4615 191.313 16.5464 191.04 17.1498L189.253 20.4779H189.169L187.34 17.1498C187.028 16.5888 186.84 16.4615 185.864 16.4615C184.888 16.4615 184.634 16.6925 184.634 17.046C184.679 17.3782 184.809 17.6932 185.011 17.9606L187.924 22.7453L184.761 27.9307C184.563 28.1767 184.434 28.4714 184.389 28.7839C184.389 29.1375 184.615 29.3638 185.591 29.3638V29.3732ZM203.542 29.3732C204.484 29.3732 204.748 29.2695 204.748 28.6661V17.1592C204.748 16.5558 204.475 16.4521 203.334 16.4521C202.547 16.4521 202.274 16.4945 201.962 17.1403L198.097 25.0834H197.908V17.1592C197.908 16.5558 197.659 16.4521 196.702 16.4521C195.745 16.4521 195.495 16.5558 195.495 17.1592V28.6614C195.495 29.2648 195.726 29.3685 196.909 29.3685C197.677 29.3685 197.927 29.3261 198.238 28.7038L202.189 20.7371H202.377V28.6614C202.377 29.2648 202.646 29.3685 203.584 29.3685L203.542 29.3732ZM208.138 29.3732C209.081 29.3732 209.321 29.2695 209.321 28.6661V20.1149H209.448L211.334 25.2531C211.584 25.9603 211.772 26.0828 212.583 26.0828C213.394 26.0828 213.601 25.9603 213.851 25.2531L215.737 20.1149H215.859V28.6614C215.859 29.2648 216.109 29.3685 217.043 29.3685C217.976 29.3685 218.231 29.2648 218.231 28.6614V17.3053C218.231 16.6595 218 16.4521 216.774 16.4521C215.548 16.4521 215.195 16.5369 214.888 17.3053L212.649 23.0658H212.545L210.32 17.3053C210.009 16.5369 209.656 16.4521 208.435 16.4521C207.214 16.4521 206.959 16.6595 206.959 17.3053V28.6614C206.959 29.2648 207.204 29.3685 208.143 29.3685L208.138 29.3732Z" fill="#444343"/>
</g>
<defs>
<clipPath id="clip0_331_131996">
<rect width="218.226" height="45" fill="white" transform="translate(0 0.5)"/>
</clipPath>
</defs>
</svg>
