<svg width="107" height="81" viewBox="0 0 107 81" fill="none" xmlns="http://www.w3.org/2000/svg">
<g clip-path="url(#clip0_331_58436)">
<path d="M27.2197 22.2901C26.8307 22.2901 26.6054 22.5239 26.6054 22.9448V26.2864H21.4867V22.9448C21.4867 22.5196 21.2614 22.2901 20.8724 22.2901C20.4834 22.2901 20.258 22.5239 20.258 22.9448V31.0012C20.258 31.4264 20.4876 31.656 20.8724 31.656C21.2571 31.656 21.4867 31.4242 21.4867 31.0012V27.4343H26.6054V31.0012C26.6054 31.4264 26.8307 31.656 27.2197 31.656C27.6088 31.656 27.832 31.4242 27.832 31.0012V22.9448C27.832 22.5196 27.6045 22.2901 27.2197 22.2901ZM33.5395 26.8582L37.0979 23.2976C37.1718 23.2372 37.2316 23.1614 37.2731 23.0755C37.3146 22.9896 37.3368 22.8956 37.3381 22.8002C37.3406 22.731 37.3286 22.662 37.303 22.5977C37.2774 22.5333 37.2386 22.475 37.1893 22.4265C37.1399 22.3779 37.0809 22.3401 37.0162 22.3155C36.9514 22.2909 36.8823 22.2801 36.8131 22.2837C36.7251 22.2839 36.6382 22.3029 36.5583 22.3396C36.4783 22.3763 36.4072 22.4297 36.3497 22.4963L32.8699 25.976C32.7863 26.0714 32.6833 26.1478 32.5679 26.2002C32.4524 26.2526 32.3271 26.2798 32.2003 26.28H31.4839V22.9448C31.4839 22.5196 31.2586 22.2901 30.8696 22.2901C30.4806 22.2901 30.2553 22.5239 30.2553 22.9448V31.0012C30.2553 31.4264 30.4848 31.656 30.8696 31.656C31.2544 31.656 31.4839 31.4242 31.4839 31.0012V27.4343H32.1216C32.248 27.4352 32.3728 27.4627 32.4878 27.5151C32.6028 27.5675 32.7055 27.6435 32.7891 27.7383L36.4836 31.4327C36.5439 31.5033 36.619 31.5598 36.7034 31.5984C36.7878 31.6369 36.8797 31.6566 36.9725 31.656C37.0451 31.6593 37.1177 31.6474 37.1855 31.6211C37.2532 31.5949 37.3148 31.5547 37.3662 31.5033C37.4176 31.4519 37.4577 31.3904 37.484 31.3226C37.5103 31.2548 37.5222 31.1823 37.5188 31.1096C37.5171 31.0096 37.4936 30.9112 37.4499 30.8213C37.4062 30.7313 37.3434 30.652 37.2659 30.5888L33.5395 26.8582ZM41.2388 11.1981C40.6079 11.5201 39.9107 11.6911 39.2024 11.6976C38.0077 11.6976 37.2595 11.1811 37.2595 10.2798C37.2595 9.46776 37.8972 8.83855 39.196 8.83855C39.8896 8.84218 40.5785 8.95186 41.2388 9.16378V11.1981ZM39.3682 3.71771C38.4794 3.72184 37.5995 3.89422 36.7748 4.22575C36.2668 4.43832 36.0521 4.72529 36.0563 5.11642C36.0544 5.22086 36.0733 5.32463 36.1119 5.42166C36.1506 5.51869 36.2082 5.60703 36.2815 5.68148C36.3548 5.75593 36.4422 5.81499 36.5385 5.85521C36.6349 5.89543 36.7384 5.91599 36.8429 5.91569C37.0806 5.89797 37.3132 5.83748 37.5295 5.73713C38.0656 5.53028 38.6342 5.42016 39.2088 5.4119C40.6373 5.4119 41.2218 5.95183 41.2218 7.05507V7.79907C40.4848 7.58927 39.7222 7.48268 38.9558 7.48234C36.6175 7.48234 35.4696 8.81729 35.4696 10.2798C35.4696 11.9804 36.7451 13.2558 39.0217 13.2558C40.7861 13.2558 42.1274 12.6691 42.6673 12.2992C42.7862 12.2292 42.8823 12.1264 42.9441 12.0031C43.006 11.8798 43.0309 11.7412 43.0159 11.6041V7.08909C43.0159 4.77206 41.6831 3.71133 39.3512 3.71133M61.7605 9.71434C61.5878 9.71902 61.4199 9.77185 61.2757 9.86688C61.1314 9.96191 61.0166 10.0953 60.9442 10.2521C60.7731 10.6187 60.4978 10.9268 60.1526 11.1378C59.8074 11.3487 59.4077 11.4533 59.0034 11.4383C57.6876 11.4383 56.9096 10.6433 56.8012 9.46988C56.7438 8.80861 56.7438 8.14362 56.8012 7.48234C56.9096 6.30682 57.6961 5.50968 59.0034 5.50968C59.4092 5.49393 59.8104 5.59934 60.1561 5.81247C60.5017 6.02561 60.7761 6.33682 60.9442 6.70646C61.0185 6.86132 61.1339 6.99279 61.2779 7.08651C61.4218 7.18023 61.5888 7.23259 61.7605 7.23789C61.8772 7.24846 61.9949 7.23414 62.1057 7.19588C62.2166 7.15762 62.318 7.09629 62.4034 7.01593C62.4888 6.93558 62.5562 6.83802 62.6011 6.72971C62.646 6.6214 62.6674 6.5048 62.6639 6.3876C62.6479 6.08579 62.5549 5.7931 62.3939 5.53731C61.8519 4.5276 60.6742 3.71983 58.98 3.71983C56.6906 3.71983 55.1537 5.16319 54.9624 7.22726C54.8954 8.06345 54.8954 8.90366 54.9624 9.73985C55.1622 11.8039 56.6906 13.2515 58.98 13.2515C60.6806 13.2515 61.8519 12.4459 62.3982 11.4319C62.5572 11.1755 62.6487 10.883 62.6639 10.5816C62.6681 10.4642 62.6471 10.3473 62.6025 10.2387C62.5578 10.1301 62.4904 10.0322 62.4049 9.95171C62.3194 9.87121 62.2176 9.80991 62.1065 9.7719C61.9954 9.7339 61.8774 9.72007 61.7605 9.73135M20.0093 11.5786L16.8101 8.36451L19.852 5.32262C19.9594 5.23062 20.0465 5.11741 20.108 4.9901C20.1694 4.86279 20.2039 4.72414 20.2092 4.58287C20.2128 4.47863 20.1948 4.37476 20.1563 4.27779C20.1179 4.18083 20.0598 4.09285 19.9858 4.0194C19.9117 3.94594 19.8233 3.88859 19.726 3.85094C19.6287 3.81328 19.5247 3.79615 19.4205 3.80061C19.2795 3.80353 19.1408 3.83718 19.0141 3.89923C18.8875 3.96128 18.7759 4.05022 18.6871 4.15985L15.5964 7.25064C15.5224 7.3337 15.4317 7.40015 15.3302 7.44558C15.2287 7.49102 15.1187 7.51442 15.0075 7.51423H14.3698V4.78269C14.3698 4.16198 14.0084 3.80061 13.4388 3.80061C12.8691 3.80061 12.5141 4.16198 12.5141 4.78269V12.1908C12.5141 12.8115 12.8754 13.1771 13.4388 13.1771C14.0021 13.1771 14.3698 12.8115 14.3698 12.1908V9.23606H14.8991C15.0104 9.23693 15.1202 9.26102 15.2216 9.30677C15.323 9.35253 15.4137 9.41895 15.4879 9.50177L18.7849 12.7988C18.8776 12.9138 18.9943 13.0073 19.1268 13.0726C19.2594 13.138 19.4046 13.1737 19.5523 13.1771C19.6621 13.1822 19.7717 13.1644 19.8743 13.125C19.9768 13.0856 20.0701 13.0253 20.1482 12.948C20.2263 12.8707 20.2875 12.778 20.328 12.6759C20.3685 12.5737 20.3874 12.4643 20.3835 12.3545C20.3779 12.2064 20.3418 12.061 20.2775 11.9274C20.2131 11.7939 20.1218 11.6752 20.0093 11.5786ZM51.3062 9.48689C51.1978 10.6645 50.4559 11.4638 49.1188 11.4638C48.4237 11.4638 47.5501 11.2512 47.1207 10.9494V6.02623C47.5458 5.718 48.4237 5.5033 49.1188 5.5033C50.4623 5.5033 51.1999 6.3047 51.3062 7.48447C51.3615 8.14583 51.3615 8.81065 51.3062 9.47201M49.1805 3.71345C47.976 3.71351 46.791 4.0169 45.7347 4.59563C45.3096 4.84859 45.2628 5.0484 45.2628 5.76052V15.2412C45.2628 15.8577 45.622 16.2233 46.1875 16.2233C46.7529 16.2233 47.1228 15.8577 47.1228 15.2412V12.7711C47.8216 13.087 48.5794 13.2514 49.3463 13.2537C51.4954 13.2537 52.96 11.823 53.1726 9.75898C53.2368 8.90991 53.2368 8.0572 53.1726 7.20813C52.9813 5.13981 51.5039 3.71345 49.1932 3.71345M16.7931 29.9533C16.0332 30.3558 15.1893 30.5743 14.3294 30.591C12.7989 30.591 11.9316 29.9384 11.9316 28.816C11.9316 27.8063 12.6926 27.0495 14.3294 27.0495C15.1665 27.0575 15.9974 27.1937 16.7931 27.4534V29.9533ZM14.6036 22.2072C13.6828 22.2123 12.772 22.3986 11.9231 22.7556C11.5426 22.9193 11.3704 23.0978 11.3789 23.3933C11.3795 23.5407 11.4375 23.6821 11.5408 23.7873C11.644 23.8925 11.7843 23.9533 11.9316 23.9566C12.1043 23.9444 12.2728 23.8974 12.4269 23.8184C13.0792 23.5509 13.7755 23.4067 14.4804 23.3933C16.0661 23.3933 16.8016 24.031 16.8016 25.4765V26.3268C15.9725 26.0721 15.1096 25.9446 14.2423 25.9484C11.921 25.9484 10.7391 27.2855 10.7391 28.7969C10.7391 30.5718 12.074 31.7389 14.1891 31.7389C15.9365 31.7389 17.2735 31.1245 17.7667 30.7653C17.8571 30.7124 17.9299 30.6339 17.9757 30.5397C18.0214 30.4454 18.0382 30.3398 18.0239 30.236V25.4489C18.0239 23.2381 16.7485 22.2072 14.6228 22.2072M5.64589 30.3656H2.17248V25.4404H5.64589C7.46338 25.4404 8.21163 26.331 8.21163 27.8701C8.21163 29.4452 7.46338 30.3656 5.64589 30.3656ZM5.8032 24.2585H2.17248V20.4598H8.22226C8.62827 20.4598 8.90673 20.2345 8.90673 19.8476C8.90673 19.4607 8.62827 19.2482 8.22226 19.2482H2.0173C1.32219 19.2482 0.924686 19.6329 0.924686 20.3387V30.4826C0.924686 31.1862 1.32219 31.5752 2.0173 31.5752H5.8032C8.12873 31.5752 9.4743 30.2232 9.4743 27.8616C9.4743 25.5637 8.12873 24.2478 5.8032 24.2478M27.1475 7.24214H30.1851C31.6242 7.24214 32.2683 7.97551 32.2683 9.23818C32.2683 10.5009 31.6306 11.2916 30.1851 11.2916H27.1475V7.24214ZM26.6883 13.0815H30.3977C32.8061 13.0815 34.224 11.6827 34.224 9.19992C34.224 6.86163 32.7976 5.55007 30.3977 5.55007H27.1475V2.55706H32.5978C33.193 2.55706 33.5799 2.2042 33.5799 1.64301C33.5799 1.08182 33.193 0.758713 32.5978 0.758713H26.6883C25.7509 0.758713 25.2386 1.26676 25.2386 2.2042V11.636C25.2386 12.5756 25.7509 13.0836 26.6883 13.0836M3.59245 7.51423L5.29302 2.66335C5.35679 2.49329 5.41419 2.43378 5.53961 2.43378C5.66502 2.43378 5.72242 2.49329 5.78407 2.66335L7.48464 7.51423H3.59245ZM11.0962 12.2652C11.0927 12.0592 11.0501 11.8558 10.9708 11.6657L7.53778 2.29773C7.11264 1.1541 6.51956 0.669434 5.55874 0.669434C4.59792 0.669434 3.99422 1.1541 3.58183 2.29773L0.127544 11.6764C0.0490774 11.8668 0.00586023 12.0699 0 12.2758C0.000502462 12.3955 0.025018 12.5139 0.0720951 12.624C0.119172 12.7341 0.187856 12.8336 0.274076 12.9166C0.360297 12.9997 0.462302 13.0646 0.574055 13.1075C0.685809 13.1504 0.80504 13.1705 0.924686 13.1665C1.36471 13.1665 1.69419 12.9539 1.877 12.4055L2.99513 9.21692H8.09684L9.22347 12.4055C9.40203 12.9369 9.73151 13.158 10.1652 13.158C10.2857 13.1629 10.406 13.1433 10.5187 13.1005C10.6315 13.0577 10.7345 12.9926 10.8215 12.909C10.9084 12.8254 10.9776 12.7251 11.0248 12.6141C11.072 12.5031 11.0963 12.3837 11.0962 12.2631" fill="white"/>
<path d="M105.661 61.3715C104.145 57.5346 100.398 55.445 96.3397 56.1763L88.0048 57.6813C87.6548 57.7163 87.3158 57.8233 87.0091 57.9956C86.7024 58.1678 86.4347 58.4017 86.2228 58.6824C86.0108 58.9631 85.8592 59.2847 85.7775 59.6268C85.6957 59.9689 85.6857 60.3242 85.7478 60.6705C85.81 61.0167 85.9431 61.3463 86.1388 61.6386C86.3345 61.9309 86.5885 62.1795 86.8849 62.3689C87.1813 62.5583 87.5137 62.6844 87.8611 62.7392C88.2086 62.794 88.5636 62.7763 88.9039 62.6873L97.2389 61.1993C99.2222 60.8422 100.444 62.0284 100.931 63.257C101.418 64.4857 101.333 66.1884 99.643 67.2831L87.4096 75.1929C86.8617 75.5475 86.2283 75.7479 85.5762 75.7729C84.924 75.7979 84.2772 75.6467 83.7038 75.3352C83.1303 75.0237 82.6514 74.5633 82.3175 74.0026C81.9835 73.4419 81.8069 72.8015 81.8062 72.1489V46.4596C81.8349 46.1083 81.7906 45.7548 81.6758 45.4215C81.5611 45.0881 81.3786 44.7822 81.1397 44.523C80.9008 44.2637 80.6108 44.0568 80.2879 43.9153C79.965 43.7738 79.6164 43.7007 79.2638 43.7007C78.9113 43.7007 78.5626 43.7738 78.2397 43.9153C77.9169 44.0568 77.6269 44.2637 77.388 44.523C77.1491 44.7822 76.9665 45.0881 76.8518 45.4215C76.7371 45.7548 76.6927 46.1083 76.7215 46.4596V72.1489C76.7089 73.7184 77.1265 75.2614 77.9288 76.6105C78.7311 77.9595 79.8876 79.0631 81.2726 79.8015C82.646 80.5627 84.2016 80.9333 85.7706 80.873C87.3396 80.8126 88.8622 80.3237 90.173 79.4592L102.409 71.5324C105.871 69.2898 107.179 65.2042 105.661 61.3694M62.6301 56.1763L54.2952 57.6813C53.9452 57.7163 53.6062 57.8233 53.2995 57.9956C52.9929 58.1678 52.7252 58.4017 52.5132 58.6824C52.3013 58.9631 52.1496 59.2847 52.0679 59.6268C51.9862 59.9689 51.9761 60.3242 52.0383 60.6705C52.1005 61.0167 52.2336 61.3463 52.4293 61.6386C52.6249 61.9309 52.879 62.1795 53.1754 62.3689C53.4718 62.5583 53.8041 62.6844 54.1516 62.7392C54.499 62.794 54.8541 62.7763 55.1944 62.6873L63.5272 61.1993C65.5126 60.8422 66.737 62.0284 67.2238 63.257C67.7106 64.4857 67.6234 66.1884 65.9314 67.2831L53.6979 75.2099C53.1502 75.5647 52.5169 75.7652 51.8648 75.7903C51.2127 75.8154 50.5659 75.6642 49.9926 75.3526C49.4192 75.041 48.9405 74.5805 48.6068 74.0197C48.2731 73.4589 48.0969 72.8185 48.0966 72.1659V52.6518C48.0989 51.0837 47.678 49.544 46.8784 48.1951C46.0787 46.8461 44.93 45.7379 43.5532 44.9873C42.1764 44.2366 40.6225 43.8714 39.0555 43.93C37.4885 43.9886 35.9663 44.4689 34.6494 45.3203L3.87754 65.2552C0.414754 67.4978 -0.89256 71.5813 0.625199 75.4204C2.14296 79.2594 5.88634 81.3426 9.94645 80.6135L36.8133 75.7839C37.4352 75.623 37.9735 75.2335 38.3207 74.6931C38.6679 74.1526 38.7984 73.5011 38.6862 72.8687C38.574 72.2362 38.2273 71.6694 37.7154 71.2814C37.2035 70.8934 36.564 70.7128 35.9248 70.7757L9.04727 75.6074C7.06186 75.9645 5.83957 74.7784 5.35491 73.5497C4.87025 72.3211 4.95315 70.6184 6.64309 69.5236L37.4128 49.5908C37.9604 49.2353 38.5937 49.0342 39.2461 49.0087C39.8984 48.9833 40.5456 49.1344 41.1192 49.4461C41.6928 49.7578 42.1716 50.2186 42.5052 50.7799C42.8387 51.3411 43.0145 51.982 43.014 52.6348V72.1489C43.0015 73.7184 43.4191 75.2614 44.2214 76.6105C45.0237 77.9595 46.1801 79.0631 47.5652 79.8015C48.9385 80.5627 50.4941 80.9333 52.0632 80.873C53.6322 80.8126 55.1547 80.3237 56.4656 79.4592L68.7012 71.5324C72.1639 69.2898 73.4691 65.2042 71.9556 61.3694C70.4421 57.5346 66.6881 55.4472 62.6323 56.1742" fill="#009C32"/>
</g>
<defs>
<clipPath id="clip0_331_58436">
<rect width="106.286" height="80.3519" fill="white" transform="translate(0 0.5)"/>
</clipPath>
</defs>
</svg>
