<svg width="45" height="44" viewBox="0 0 45 44" fill="none" xmlns="http://www.w3.org/2000/svg">
<path fill-rule="evenodd" clip-rule="evenodd" d="M18.1696 21.8903V17.7496L0.428783 35.4875C0.154238 35.762 0 36.1344 0 36.5227C0 36.9109 0.154238 37.2833 0.428783 37.5578C0.703328 37.8324 1.07569 37.9866 1.46396 37.9866C1.85222 37.9866 2.22458 37.8324 2.49913 37.5578L18.1696 21.8903Z" fill="#E3000F"/>
<path fill-rule="evenodd" clip-rule="evenodd" d="M32.9507 19.0151V28.215C32.9507 28.6017 33.1043 28.9726 33.3778 29.246C33.6512 29.5194 34.022 29.673 34.4087 29.673C34.7954 29.673 35.1662 29.5194 35.4397 29.246C35.7131 28.9726 35.8667 28.6017 35.8667 28.215V15.5247C35.872 15.3254 35.8373 15.1271 35.7646 14.9415V14.9123V14.8977V14.8773V14.8511L35.7501 14.8219C35.6407 14.6122 35.482 14.4322 35.2876 14.2975C35.0932 14.1628 34.8689 14.0774 34.6341 14.0487C34.3994 14.02 34.1611 14.0489 33.94 14.1328C33.7188 14.2167 33.5214 14.3531 33.3648 14.5303L26.8563 20.9747V25.1153L32.9507 19.0151Z" fill="#E3000F"/>
<path d="M22.5116 14.0112C22.1249 14.0112 21.7541 14.1648 21.4806 14.4383C21.2072 14.7117 21.0536 15.0825 21.0536 15.4692V28.215C21.0536 28.6017 21.2072 28.9725 21.4806 29.2459C21.7541 29.5194 22.1249 29.673 22.5116 29.673C22.8983 29.673 23.2691 29.5194 23.5425 29.2459C23.816 28.9725 23.9696 28.6017 23.9696 28.215V15.478C23.9696 15.0913 23.816 14.7204 23.5425 14.447C23.2691 14.1736 22.8983 14.02 22.5116 14.02" fill="white"/>
<path fill-rule="evenodd" clip-rule="evenodd" d="M35.9864 35.3183C34.2171 37.0878 32.1166 38.4914 29.8049 39.4491C27.4931 40.4067 25.0154 40.8996 22.5131 40.8996C20.0108 40.8996 17.5331 40.4067 15.2213 39.4491C12.9096 38.4914 10.8091 37.0878 9.03981 35.3183L8.92609 35.2046L6.8849 37.2458L6.99571 37.3595C10.8212 41.1872 15.929 43.4621 21.3333 43.7448C26.7375 44.0276 32.0549 42.2983 36.2589 38.8907C40.463 35.4831 43.2556 30.6389 44.0977 25.2932C44.9398 19.9475 43.7716 14.4794 40.8187 9.94439C37.8658 5.4094 33.3376 2.12914 28.1082 0.736832C22.8787 -0.655475 17.3189 -0.0611024 12.5019 2.40521C7.68498 4.87153 3.95249 9.0349 2.025 14.0916C0.097509 19.1483 0.111682 24.7398 2.06478 29.7867L4.32175 27.5298C3.31407 24.3054 3.18163 20.8712 3.93799 17.5788C4.69435 14.2865 6.31233 11.2543 8.62618 8.79306C10.94 6.33179 13.8666 4.52986 17.106 3.57185C20.3454 2.61383 23.7813 2.53418 27.0617 3.34106C30.342 4.14793 33.3489 5.81231 35.7743 8.16372C38.1998 10.5151 39.9565 13.469 40.8646 16.7228C41.7727 19.9766 41.7996 23.4133 40.9424 26.6808C40.0852 29.9484 38.3748 32.9293 35.9864 35.3183Z" fill="white"/>
</svg>
