<svg width="87" height="84" viewBox="0 0 87 84" fill="none" xmlns="http://www.w3.org/2000/svg">
<g clip-path="url(#clip0_331_73138)">
<path fill-rule="evenodd" clip-rule="evenodd" d="M32.845 46.6224L30.2492 47.1188V56.6545L26.5242 57.4295V70.9006L40.5174 77.3637L42.9044 76.2966L43.0558 76.23L49.5643 73.3208L52.3705 72.0509L52.4325 72.0237L54.7574 70.9838L54.8195 70.9566V57.4462L54.7075 57.4219L51.0945 56.6651V47.1431L50.9825 47.1204L48.5002 46.6436V39.9837L48.3942 39.955L45.8211 39.2572V34.671L45.7333 34.6104L44.4089 33.7128V30.3587L44.3105 30.3178L42.8166 29.6836L40.7702 3.09718C41.527 3.03361 42.1325 2.47963 42.1325 1.81062C42.1325 1.09771 41.4528 0.516484 40.6188 0.516484C40.2749 0.51569 39.9391 0.621441 39.6577 0.819205C39.7016 0.819205 39.7455 0.819205 39.7909 0.819205C40.6234 0.819205 41.3045 1.22485 41.3045 1.72737C41.3045 2.22988 40.6264 2.63553 39.7909 2.63553C39.6637 2.63534 39.5367 2.62573 39.411 2.60677C39.6972 2.91712 40.0942 3.10205 40.5159 3.1214V3.86912L38.524 29.6382L36.9211 30.3178V33.6478L35.5059 34.6104V39.2284L32.845 39.9519V46.6224Z" fill="white"/>
<path fill-rule="evenodd" clip-rule="evenodd" d="M32.8994 46.6059L30.3066 47.1054V56.632L26.5801 57.4115V70.8826L40.5749 77.3472L42.9603 76.2801L43.1117 76.2135L49.6202 73.3044L52.437 72.045L52.4975 72.0163L54.8224 70.978L54.8845 70.9492V57.4297L54.7725 57.4055L51.1595 56.6547V47.1266L51.0475 47.1039L48.5652 46.6271V39.9672L48.4592 39.9385L45.8861 39.2407V34.653L45.7998 34.5939L44.4754 33.6964V30.3422L44.377 30.3014L42.8831 29.6672L40.8276 3.0807C41.5844 3.01561 42.1899 2.46315 42.1899 1.79413C42.1899 1.08123 41.5103 0.500002 40.6763 0.500002C40.3328 0.49952 39.9976 0.605257 39.7166 0.802722C39.76 0.802722 39.8039 0.802722 39.8483 0.802722C40.6808 0.802722 41.3619 1.20988 41.3619 1.71088C41.3619 2.21189 40.6823 2.61905 39.8483 2.61905C39.7216 2.61911 39.595 2.60899 39.4699 2.58878C39.611 2.74287 39.7811 2.86764 39.9704 2.95594C40.1597 3.04425 40.3646 3.09435 40.5733 3.1034V3.82993L38.5814 29.6217L36.9785 30.3014L36.9861 33.6313L35.5694 34.5879V39.2074L32.8918 39.9354V46.6059H32.8994ZM42.8892 55.3409V58.9085L45.3594 58.0003V54.6053C45.3594 54.0604 44.8659 53.1749 44.3967 53.3157L43.9184 53.458C43.2736 53.6502 42.8892 54.5917 42.8892 55.3409ZM46.437 54.13V57.6113L48.8497 56.7228V53.4111C48.8497 52.8783 48.3669 52.014 47.9083 52.1502L47.4421 52.2895C46.8124 52.4772 46.437 53.399 46.437 54.13ZM45.3684 67.312V74.2867L50.0954 72.1676V65.5517C50.0954 64.4407 49.1509 62.6879 48.2519 63.024L47.3437 63.363C46.1086 63.8171 45.376 65.7848 45.376 67.312H45.3684ZM41.7282 37.886V39.66L42.9724 39.3073V37.6181C42.9724 37.3472 42.7242 36.887 42.4881 36.937L42.2474 36.9885C41.922 37.0581 41.7282 37.5107 41.7282 37.8845V37.886ZM43.5158 37.4319V39.165L44.7267 38.8214V37.1716C44.7267 36.9067 44.483 36.4572 44.2514 36.5056L44.0168 36.5571C43.6989 36.6252 43.5097 37.0672 43.5097 37.4319H43.5158ZM42.0446 45.3996V48.0272L44.1349 47.2371V44.7305C44.1349 44.3279 43.7171 43.6998 43.3205 43.8224L42.9164 43.951C42.37 44.1251 42.0446 44.838 42.0446 45.3905V45.3996ZM45.0476 44.34V46.9132L47.0909 46.1412V43.6786C47.0909 43.2866 46.6838 42.672 46.2948 42.7962L45.8997 42.9203C45.3669 43.0898 45.0476 43.7876 45.0476 44.3279V44.34ZM43.1692 62.4548V75.9501L48.2034 73.6979L52.2902 71.8725V59.2627L43.1737 62.4548H43.1692ZM42.9603 76.0425V62.3095L43.0299 62.2853L52.3552 59.0205L52.493 58.972V71.7802L54.6711 70.8069V57.6582L40.7822 62.5215V77.0172L42.9603 76.0425ZM40.5749 60.7414L40.7141 60.69L51.0868 56.8908L51.1534 56.8666L54.3926 57.5402L40.6778 62.3398L26.9645 57.5402L30.3944 56.8273L30.3051 56.794L40.5749 60.7414ZM33.0295 46.7936L40.5824 49.5816L48.5228 46.8314L50.6721 47.2462L40.6823 50.9863L30.6925 47.2462L33.0371 46.7921L33.0295 46.7936ZM35.7071 39.3875L33.2687 40.0505L40.6778 42.336L48.0869 40.0505L45.8301 39.445H45.815L40.6975 40.9738L35.7026 39.3905L35.7071 39.3875ZM38.7616 29.7716L37.2858 30.3982L40.6778 31.4472L44.0713 30.3982L42.7318 29.8306L40.7474 30.4482L38.7616 29.7716ZM37.1178 33.7887L35.81 34.6757L40.6778 36.1893L45.5471 34.6757L44.3483 33.8598L40.702 34.9284L37.1193 33.7857L37.1178 33.7887ZM42.6712 29.6323L40.7822 5.18158V30.1924L42.6712 29.6293V29.6323ZM44.2665 30.5541L40.7853 31.6318V34.659L44.2665 33.6737V30.5556V30.5541ZM45.6787 34.8512L45.5486 34.8906L40.7822 36.3724V40.7165L45.6787 39.2664V34.8482V34.8512ZM50.9476 47.3627L40.7822 51.1679V60.4387L50.9476 56.7153V47.3597V47.3627ZM40.7822 45.0923V49.2547L48.3502 46.6816V40.1806L40.7822 42.5177V45.0908V45.0923Z" fill="#D59D00"/>
<path fill-rule="evenodd" clip-rule="evenodd" d="M42.5126 24.8793C64.0724 25.506 81.3577 37.1062 81.3577 51.2448C81.3577 65.783 63.084 77.6406 40.6781 77.6406C18.2737 77.6406 0 65.783 0 51.2448C0 37.0835 17.3414 25.4742 38.9496 24.8763L38.88 25.7709C33.8185 26.2128 29.2095 28.4953 25.595 32.0175L25.9901 32.0826L26.7469 32.1991L27.5173 32.3081L28.2938 32.4126L29.0779 32.5109L29.8695 32.6033L30.6656 32.688L31.4693 32.7667L32.2791 32.8394L33.095 32.906L33.9153 32.965L34.7433 33.018L35.5758 33.0634L35.7816 33.0725L36.5202 33.1058L36.9743 33.1239V33.6265L36.5112 33.9504H36.3825H36.3401L35.5939 33.9156H35.5379L34.6979 33.8686L33.8639 33.8157L33.0359 33.7566L32.2125 33.69L31.3952 33.6159L30.5839 33.5372L29.7802 33.4509L28.981 33.3586L28.1894 33.2587L27.4053 33.1542L26.6273 33.0422L25.8569 32.9242L25.1001 32.8016L24.8776 32.7637C22.6996 35.0888 20.9698 37.7961 19.7752 40.7495L20.856 40.9008L21.9579 41.0522L23.0704 41.1945L24.1919 41.3277L25.3211 41.4533L26.4593 41.5699L27.6051 41.6773L28.7585 41.7757L29.9209 41.865L31.0894 41.9452L32.2655 42.0179L32.9027 42.0512V42.8943L32.2156 42.8594L31.0319 42.7868L29.8574 42.7051L28.6873 42.6158L27.5264 42.5159L26.373 42.4084L25.2288 42.2903L24.092 42.1647L22.9644 42.03L21.8443 41.8877L20.7349 41.7364L19.633 41.5759L19.4634 41.5502C18.3667 44.5232 17.7853 47.6615 17.744 50.8301H30.3069V51.6732H17.744C17.7796 54.3372 18.1955 56.9824 18.9791 59.5288L19.5845 59.3653L20.6879 59.0868L21.7959 58.8189L22.9175 58.5707L24.0481 58.3361L25.1879 58.1181L26.3352 57.9153L26.5759 57.8759V58.7296L26.4775 58.7447L25.3423 58.946L24.2177 59.1625L23.0976 59.3941L21.9881 59.6393L20.8877 59.8996L19.7964 60.1751L19.2334 60.3264C20.2637 63.3511 21.838 66.1621 23.8786 68.621L24.5476 68.4954L25.3377 68.3546L26.1339 68.2199L26.5774 68.1503V69.0024L26.2747 69.0509L25.4861 69.1841L24.705 69.3233L24.5204 69.3581C28.2817 73.5205 33.3235 76.2465 38.9148 76.7233C38.7576 76.5555 38.611 76.3781 38.4758 76.192L40.5752 77.1698V77.3378L40.7266 77.2712L42.7548 76.3631C42.6534 76.4917 42.5504 76.6128 42.4521 76.7218C48.0433 76.245 53.0851 73.5175 56.8449 69.3566L56.6618 69.3218L55.8808 69.1825L55.0922 69.0493L54.8893 69.0176V68.1654L55.2299 68.2184L56.0261 68.3531L56.8162 68.4939L57.4837 68.6195C59.5245 66.1608 61.0988 63.3497 62.1289 60.3249L61.5674 60.1736L60.4761 59.8996L59.3757 59.6393L58.2647 59.3941L57.1461 59.1625L56.02 58.946L54.8893 58.7462V57.8926L55.0271 57.9153L56.1744 58.1181L57.3141 58.3361L58.4448 58.5707L59.5664 58.8189L60.6789 59.0807L61.7823 59.3592L62.3877 59.5212C63.1706 56.9752 63.5865 54.3305 63.6228 51.6671H51.1598V50.824H63.6228C63.5824 47.6556 63.002 44.5174 61.9064 41.5441L61.7369 41.5699L60.635 41.7303L59.5255 41.8817L58.4054 42.0239L57.2778 42.1587L56.1411 42.2843L54.9968 42.4023L53.8434 42.5098L52.6825 42.6097L51.5125 42.699L50.3379 42.7807L49.1543 42.8534L48.5685 42.8837V42.0391L49.1059 42.0118L50.2819 41.9392L51.4504 41.859L52.6129 41.7697L53.7663 41.6713L54.912 41.5638L56.0503 41.4473L57.1794 41.3216L58.301 41.1884L59.4135 41.0462L60.5154 40.8948L61.5946 40.7434C60.4011 37.7898 58.6718 35.0824 56.4938 32.7577L56.2713 32.7955L55.5145 32.9181L54.744 33.0362L53.966 33.1482L53.182 33.2526L52.3707 33.3449L51.5715 33.4373L50.7678 33.5235L49.9565 33.6022L49.1392 33.6764L48.3158 33.743L47.4878 33.802L46.6538 33.855L45.7578 33.905L44.9692 33.9413H44.842L44.4697 33.6885V33.1118L44.8239 33.0982L45.564 33.0649L45.7699 33.0558L46.6024 33.0104L47.4303 32.9575L48.2507 32.8984L49.0665 32.8318L49.8763 32.7592L50.68 32.6805L51.4762 32.5957L52.2678 32.5034L53.0518 32.405L53.8283 32.3005L54.5987 32.1916L55.3555 32.075L55.7506 32.0099C52.1603 28.5135 47.5907 26.237 42.5701 25.7739L42.5005 24.8657L42.5126 24.8793ZM47.9722 26.1235C51.3045 27.3395 54.3171 29.2964 56.7829 31.8465L56.8707 31.8313L57.6108 31.6966L58.3419 31.5574L59.0669 31.406L59.7813 31.2546L60.4882 31.1033L61.1875 30.9413L61.8761 30.7718L62.5573 30.5993L63.2278 30.4222L63.5305 30.3374C58.9534 28.2698 53.6709 26.8031 47.9691 26.1205L47.9722 26.1235ZM57.4731 32.5791C59.5923 34.9379 61.2763 37.654 62.4468 40.6012L62.6859 40.5648L63.7606 40.3892L64.8201 40.2061L65.8796 40.0139L66.924 39.8156L67.9563 39.6082L68.9795 39.3948L69.9906 39.1723L70.988 38.9453L71.9779 38.7076L72.9542 38.4639L73.9184 38.2127L74.7145 37.9962C72.096 35.2415 68.6889 32.8258 64.696 30.8823L64.1193 31.0473L63.4503 31.2335L62.7707 31.4136L62.0805 31.5876L61.3827 31.7572L60.6758 31.9221L59.9614 32.0735L59.2379 32.2249L58.5053 32.3762L57.7652 32.5185L57.4716 32.5715L57.4731 32.5791ZM62.754 41.4124C63.8466 44.432 64.4257 47.6132 64.4674 50.824H80.4995C80.3875 46.427 78.5318 42.2934 75.3533 38.6986L75.1005 38.7697L74.1394 39.0315L73.1676 39.2843L72.1823 39.531L71.1863 39.7687L70.1783 40.0048L69.1581 40.2288L68.1288 40.4453L67.0875 40.6526L66.028 40.8539L64.9684 41.0462L63.8968 41.2308L62.8146 41.4019L62.748 41.4124H62.754ZM64.4674 51.6671C64.432 54.4063 64.0059 57.1264 63.2021 59.7452L63.9513 59.9571L65.0244 60.278L66.084 60.611L67.1435 60.9591L68.1864 61.3209L69.2186 61.6963L70.2403 62.0837L71.2499 62.4848L72.2489 62.8996L73.2357 63.3264L74.2105 63.7654L75.0309 64.1513C78.4047 60.4733 80.386 56.211 80.501 51.6671H64.4674ZM62.9402 60.5474C61.9243 63.5433 60.3927 66.3385 58.4145 68.8072L59.1289 68.9585L59.8857 69.1265L60.6426 69.3006L61.3827 69.4807L62.1138 69.6669L62.8358 69.8606L63.5502 70.0604L64.2525 70.2648L64.9457 70.4767L65.6299 70.6931L66.1536 70.8672C69.3821 69.1386 72.1792 67.0832 74.4254 64.7976L73.8518 64.5252L72.8876 64.0923L71.9144 63.67L70.9275 63.2598L69.9285 62.8648L68.9189 62.4803L67.9003 62.1095L66.868 61.7523L65.8266 61.4087L64.7823 61.0832L63.7227 60.7654L62.9508 60.5474H62.9402ZM57.7939 69.5428C55.1028 72.6396 51.7395 75.0114 47.9676 76.3661C54.3248 75.6093 60.1688 73.8687 65.0895 71.4091L64.6808 71.2789L63.9967 71.0715L63.302 70.8687L62.5981 70.6719L61.8852 70.4812L61.1632 70.2966L60.4367 70.1255L59.6965 69.953L58.9488 69.788L58.192 69.6291L57.7985 69.5504L57.7939 69.5428ZM33.3856 76.3661C29.6137 75.0129 26.2504 72.6396 23.5592 69.5428L23.1672 69.6215L22.4104 69.7804L21.6627 69.9454L20.921 70.1255L20.19 70.3041L19.468 70.4888L18.7551 70.6795L18.0512 70.8763L17.358 71.0791L16.6723 71.2864L16.2637 71.4166C21.1844 73.8762 27.0239 75.6138 33.3856 76.3737V76.3661ZM22.9417 68.8072C20.9636 66.3385 19.432 63.5433 18.416 60.5474L17.6441 60.7654L16.5846 61.0832L15.525 61.4132L14.4837 61.7568L13.4529 62.114L12.4327 62.4848L11.4232 62.8693L10.4242 63.2659L9.43884 63.6745L8.47618 64.0968L7.50748 64.5252L6.93988 64.7931C9.18758 67.0847 11.9832 69.1326 15.2117 70.8611L15.7354 70.6871L16.4196 70.4706L17.1128 70.2587L17.8166 70.0544L18.5295 69.8546L19.2515 69.6608L19.9826 69.4747L20.7228 69.2946L21.4796 69.1205L22.2364 68.9525L22.9508 68.8011L22.9417 68.8072ZM18.1632 59.7467C17.3596 57.1274 16.9335 54.4068 16.8979 51.6671H0.858214C0.973248 56.2079 2.95456 60.4733 6.32838 64.1513L7.14875 63.7684L8.12351 63.3294L9.11038 62.9026L10.1094 62.4879L11.1189 62.0868L12.1406 61.6993L13.1684 61.3209L14.2112 60.9591L15.2708 60.611L16.3303 60.278L17.4034 59.9571L18.1602 59.7467H18.1632ZM16.8979 50.824C16.938 47.613 17.5172 44.4316 18.6113 41.4124L18.5447 41.4019L17.4625 41.2248L16.3908 41.0416L15.3313 40.8479L14.2718 40.6481L13.2304 40.4392L12.2012 40.2243L11.1795 40.0048L10.1729 39.7732L9.17547 39.5341L8.19163 39.2889L7.21838 39.0361L6.25724 38.7757C6.16945 38.75 6.0862 38.7258 6.00749 38.6986C2.82893 42.2949 0.97022 46.43 0.861241 50.8286L16.8979 50.824ZM18.911 40.6102C20.0815 37.6635 21.7649 34.9475 23.8832 32.5881L23.591 32.5352L22.8509 32.3929L22.1183 32.2415L21.3948 32.0902L20.6804 31.9388L19.9796 31.7617L19.2818 31.5922L18.5931 31.4181L17.9135 31.238L17.243 31.0518L16.6663 30.8868C12.6734 32.8318 9.26477 35.246 6.64775 38.0008L7.44391 38.2172L8.40807 38.4685L9.38435 38.7122L10.3682 38.9453L11.3672 39.1753L12.3783 39.3994L13.4015 39.6128L14.4337 39.8201L15.4781 40.0184L16.5376 40.2091L17.5972 40.3923L18.6718 40.5679L18.911 40.6057V40.6102ZM24.5734 31.8495C27.0397 29.2994 30.0528 27.3426 33.3856 26.1266C27.6838 26.8092 22.4013 28.2759 17.8242 30.3435L18.1269 30.4282L18.799 30.6053L19.4786 30.7779L20.1673 30.9459L20.8665 31.1078L21.5734 31.2592L22.2878 31.4105L23.0128 31.5619L23.7439 31.7012L24.4841 31.8359L24.5703 31.851L24.5734 31.8495Z" fill="#D59D00"/>
<path d="M3.38553 68.9151C3.25101 69.0372 3.08735 69.1227 2.91026 69.1633C2.73111 69.1954 2.54639 69.1689 2.38352 69.0877C2.16435 68.9781 1.9709 68.8234 1.81592 68.6336L0.845703 67.5271L3.54143 65.1992L4.50863 66.3026C4.56425 66.3684 4.61484 66.4382 4.65999 66.5115C4.70134 66.5766 4.73728 66.6449 4.76745 66.7158C4.81791 66.8311 4.84071 66.9565 4.83405 67.0821C4.82462 67.1951 4.79052 67.3047 4.73415 67.403C4.67226 67.5063 4.59346 67.5984 4.50106 67.6755C4.41253 67.7517 4.30958 67.8093 4.19834 67.845C4.08755 67.8809 3.96996 67.8907 3.85475 67.8738C3.73868 67.8577 3.62926 67.81 3.5384 67.736L3.52781 67.7451C3.579 67.8315 3.62158 67.9228 3.65495 68.0175C3.6909 68.1171 3.70983 68.222 3.71096 68.3278C3.7023 68.4447 3.66797 68.5582 3.61041 68.6602C3.55285 68.7622 3.47348 68.8503 3.37796 68.9181L3.38553 68.9151ZM4.15444 67.347C4.25748 67.2563 4.32726 67.1338 4.35272 66.9989C4.383 66.8551 4.31034 66.6841 4.13476 66.4843L3.54446 65.8107L2.70592 66.5342L3.28715 67.1972C3.39771 67.3515 3.5647 67.4559 3.75182 67.4878C3.89934 67.4958 4.04406 67.4452 4.15444 67.347ZM3.09492 68.5307C3.17264 68.4797 3.23536 68.4089 3.27661 68.3257C3.31785 68.2424 3.33612 68.1496 3.32953 68.0569C3.28772 67.8572 3.19009 67.6735 3.048 67.5271L2.4032 66.7961L1.45871 67.6134L2.09594 68.3415C2.18444 68.443 2.28627 68.5321 2.39866 68.6063C2.49685 68.6737 2.61415 68.7077 2.73317 68.7032C2.87319 68.6916 3.00483 68.6317 3.10551 68.5337L3.09492 68.5307ZM6.5081 71.3883C6.35926 71.5221 6.1895 71.6305 6.00558 71.7092C5.79358 71.7967 5.56169 71.8244 5.33505 71.7894C5.19965 71.7697 5.0683 71.7283 4.94606 71.6668C4.80216 71.5916 4.66797 71.4991 4.54647 71.3914C4.29734 71.19 4.11092 70.9217 4.00914 70.6179C3.92214 70.34 3.92214 70.0422 4.00914 69.7642C4.10793 69.4586 4.27044 69.1775 4.48592 68.9393C4.59989 68.8113 4.72172 68.6905 4.8507 68.5776C5.01772 68.4376 5.20437 68.3229 5.40468 68.237C5.64253 68.1332 5.90414 68.0961 6.16148 68.1296C6.48047 68.1791 6.77672 68.3248 7.01061 68.5473C7.22684 68.719 7.39866 68.9402 7.51162 69.1921C7.59553 69.3893 7.61769 69.6072 7.57519 69.8172C7.52858 70.0264 7.43831 70.2235 7.31031 70.3954L6.95764 70.0927C7.08056 69.9233 7.14294 69.7176 7.13473 69.5084C7.12867 69.2895 6.99951 69.0705 6.74725 68.8515C6.60458 68.7195 6.42885 68.6285 6.23867 68.5882C6.0717 68.5575 5.89963 68.5705 5.73918 68.626C5.57543 68.6824 5.42203 68.7652 5.2851 68.8712C5.2185 68.9227 5.15039 68.9817 5.07925 69.0468C5.00974 69.1115 4.94356 69.1797 4.88097 69.2511C4.75969 69.3879 4.65783 69.5407 4.57825 69.7052C4.54131 69.7838 4.51093 69.8653 4.48743 69.9489C4.46364 70.0314 4.44793 70.1161 4.44051 70.2017C4.42681 70.3661 4.45169 70.5314 4.51317 70.6845C4.58103 70.8482 4.68748 70.9931 4.82345 71.1068C4.95634 71.2267 5.11799 71.3101 5.29267 71.349C5.44831 71.3834 5.6103 71.3755 5.76189 71.3263C5.83732 71.3019 5.90989 71.2694 5.97833 71.2294C6.04231 71.1904 6.09998 71.1419 6.14937 71.0856L6.50356 71.3883H6.5081ZM8.62714 74.3762L6.5535 72.9277L8.60292 70.0231L10.6433 71.4413L10.4117 71.7698L8.7558 70.6194L8.111 71.5276L9.61098 72.5705L9.38394 72.8989L7.88396 71.8576L7.17257 72.8656L8.87234 74.0477L8.64076 74.3762H8.62714ZM12.6579 76.798L12.2598 76.5634L13.6901 74.1037L13.7658 73.9917L13.7537 73.9842L11.2759 75.9973L10.949 75.8111L11.4636 72.6704H11.4546L11.394 72.7915L9.96365 75.2511L9.55649 75.018L11.3425 71.9423L11.948 72.292L11.4258 75.36L13.8476 73.3757L14.453 73.7253L12.667 76.7965L12.6579 76.798ZM16.404 78.5628L15.9802 78.3661L17.2032 75.7642L14.2926 77.5805L13.8793 77.3913L15.393 74.1779L15.8198 74.3747L14.6089 76.9599L17.5105 75.1557L17.9358 75.3525L16.4222 78.5659L16.404 78.5628ZM20.9736 77.638C20.6931 78.3252 20.1744 78.5164 19.4176 78.2117L18.573 77.8741L18.0402 79.1849L17.6043 79.0109L18.9545 75.7263L20.2743 76.2561C21.0059 76.5477 21.243 77.0094 20.9857 77.641L20.9736 77.638ZM20.5195 77.47C20.563 77.3893 20.5857 77.2991 20.5857 77.2074C20.5857 77.1157 20.563 77.0255 20.5195 76.9448C20.3934 76.7785 20.2197 76.6545 20.0216 76.5891L19.2254 76.2712L18.7214 77.5063L19.5175 77.8257C19.7146 77.9264 19.9431 77.9465 20.1548 77.8817C20.2413 77.8419 20.3188 77.7848 20.3826 77.7141C20.4463 77.6433 20.495 77.5602 20.5256 77.47H20.5195ZM23.7662 81.1435L23.3121 81.0073L23.8041 79.4135L22.1497 78.9049L21.6578 80.4987L21.2037 80.3625L22.2481 76.972L22.7021 77.1083L22.2662 78.5235L23.9463 79.0336L24.3822 77.6183L24.8363 77.7531L23.7919 81.1435H23.7662ZM28.3645 82.1667L27.9105 82.0698L28.6688 78.6022L29.1229 78.6991L28.3797 82.1667H28.3645ZM27.7667 80.9785C27.6849 81.358 27.5184 81.5991 27.2672 81.702C27.0079 81.8053 26.7231 81.8265 26.4513 81.7626L25.0043 81.4599L25.7672 77.9967L26.2213 78.0936L25.9186 79.5058L26.9054 79.7132C27.0471 79.745 27.1847 79.7927 27.3156 79.8554C27.4806 79.9433 27.6164 80.0774 27.7061 80.2414C27.8262 80.4702 27.8527 80.7366 27.7803 80.9846L27.7667 80.9785ZM27.302 80.8665C27.3238 80.7832 27.3281 80.6962 27.3149 80.611C27.3016 80.5259 27.2709 80.4444 27.2248 80.3716C27.16 80.2881 27.0793 80.2183 26.9873 80.1664C26.8953 80.1144 26.7939 80.0812 26.689 80.0689L25.8217 79.8857L25.5492 81.1556L26.471 81.3509C26.6376 81.3858 26.8107 81.3732 26.9705 81.3146C27.0536 81.2858 27.1262 81.2332 27.1794 81.1632C27.2418 81.0724 27.2836 80.9691 27.302 80.8605V80.8665ZM32.3544 82.8161L31.9003 82.7434L32.3544 79.9084L30.0628 82.4543L29.5981 82.3816L30.1566 78.8807L30.6213 78.9533L30.1672 81.7686L32.4558 79.2424L32.919 79.3151L32.3589 82.8161H32.3544ZM32.5058 78.4417C32.3362 78.8655 32.0154 79.0472 31.5461 78.967C31.3347 78.9429 31.1388 78.8442 30.9937 78.6885C30.9307 78.6193 30.8819 78.5383 30.8502 78.4503C30.8185 78.3622 30.8045 78.2688 30.809 78.1753L31.1738 78.2329C31.1684 78.2913 31.175 78.3502 31.1932 78.4059C31.2114 78.4617 31.2409 78.5132 31.2797 78.5571C31.3186 78.6011 31.366 78.6366 31.4191 78.6615C31.4722 78.6865 31.5299 78.7003 31.5885 78.7021C31.6456 78.7196 31.7056 78.7252 31.7649 78.7185C31.8242 78.7118 31.8815 78.6929 31.9332 78.6631C31.9849 78.6333 32.0299 78.5931 32.0654 78.5452C32.1009 78.4972 32.1261 78.4424 32.1395 78.3842L32.5058 78.4417ZM37.9139 83.3458L37.2918 83.2928L36.1793 81.4205L35.5738 81.9215L35.4664 83.1324L34.9987 83.0915L35.3105 79.5603L35.7782 79.6012L35.6268 81.3524L37.5007 79.751L38.1424 79.8131L36.5622 81.1405L37.9245 83.3519L37.9139 83.3458ZM42.1368 81.6521C42.137 81.9172 42.0956 82.1808 42.0142 82.4331C41.945 82.6469 41.8327 82.8441 41.6843 83.0128C41.5371 83.176 41.3543 83.3029 41.15 83.3837C41.0428 83.4269 40.9311 83.4579 40.817 83.476C40.6913 83.4952 40.5642 83.5033 40.437 83.5002C40.3116 83.4987 40.1866 83.4865 40.0632 83.4639C39.9495 83.4412 39.8388 83.4056 39.7332 83.3579C39.5339 83.2718 39.3573 83.1408 39.2171 82.975C39.0719 82.7968 38.9648 82.5907 38.9022 82.3695C38.8292 82.1164 38.7961 81.8534 38.8039 81.59C38.8037 81.3027 38.855 81.0177 38.9552 80.7485C39.0349 80.5297 39.1626 80.3316 39.3291 80.1688C39.4826 80.0212 39.6665 79.9091 39.8679 79.8403C40.0733 79.7698 40.2896 79.7365 40.5067 79.7419C40.7249 79.7435 40.9411 79.7835 41.1454 79.86C41.3443 79.9341 41.5242 80.0514 41.6721 80.2036C41.8326 80.3722 41.9527 80.5751 42.0233 80.7969C42.1115 81.0715 42.1509 81.3594 42.1399 81.6476L42.1368 81.6521ZM41.6404 81.6415C41.6544 81.3728 41.6137 81.1039 41.5208 80.8514C41.4558 80.6759 41.3475 80.5197 41.206 80.3973C41.0975 80.305 40.9705 80.2368 40.8336 80.1975C40.7235 80.1671 40.6102 80.1498 40.4961 80.1461C40.1929 80.139 39.899 80.251 39.6772 80.4579C39.4381 80.6698 39.3134 81.0517 39.3034 81.6037C39.301 81.8228 39.3259 82.0415 39.3775 82.2545C39.4314 82.4775 39.5468 82.681 39.7105 82.8418C39.9115 83.0217 40.1752 83.1152 40.4446 83.1021C40.6224 83.1086 40.7993 83.075 40.9623 83.0037C41.1095 82.9345 41.2378 82.8307 41.3361 82.701C41.3854 82.6353 41.428 82.5648 41.4633 82.4906C41.5023 82.4093 41.5342 82.3247 41.5586 82.2379C41.6117 82.0404 41.6391 81.8369 41.6404 81.6324V81.6415ZM45.9859 83.199L45.5182 83.2232L45.4304 81.5583L43.6746 81.6491L43.7624 83.314L43.2932 83.3398L43.1222 79.7979L43.5914 79.7737L43.6686 81.251L45.4244 81.1602L45.3457 79.6814L45.8134 79.6572L46.0011 83.1975L45.9859 83.199ZM49.0404 79.7313L47.2967 79.9447L47.6781 83.0643L47.2104 83.1218L46.776 79.6027L48.9859 79.3333L49.0343 79.7313H49.0404ZM52.673 79.8509C52.7891 80.5825 52.4435 81.0113 51.6362 81.1375L50.7386 81.2782L50.9611 82.6768L50.498 82.7495L49.9379 79.2485L51.3441 79.0275C52.1221 78.9054 52.5651 79.1799 52.673 79.8509ZM52.2023 79.9342C52.1968 79.8426 52.1686 79.7538 52.1203 79.6759C52.0719 79.5979 52.0049 79.5332 51.9253 79.4876C51.7332 79.4102 51.5221 79.3928 51.3199 79.4377L50.4722 79.5709L50.6826 80.8877L51.5303 80.7545C51.7507 80.7407 51.9571 80.6413 52.1054 80.4775C52.1591 80.399 52.196 80.3101 52.2137 80.2166C52.2314 80.1231 52.2296 80.0269 52.2083 79.9342H52.2023ZM56.6311 81.587L54.1503 82.1546L53.3466 78.7006L55.7683 78.1451L55.8592 78.5356L53.8915 78.9897L54.1442 80.0764L55.9273 79.6678L56.0166 80.0537L54.2335 80.4624L54.5121 81.6627L56.5357 81.1995L56.6266 81.59L56.6311 81.587ZM60.241 79.3817C60.2736 79.5781 60.2736 79.7786 60.241 79.975C60.2036 80.1994 60.1045 80.409 59.955 80.5805C59.8666 80.6847 59.7611 80.7733 59.6432 80.8423C59.5029 80.9243 59.3529 80.9884 59.1967 81.033C58.8918 81.1371 58.5636 81.1519 58.2507 81.0754C57.9685 81.0001 57.7155 80.8419 57.5241 80.6213C57.3147 80.3774 57.1599 80.0915 57.07 79.7828C57.02 79.6191 56.9811 79.4522 56.9535 79.2833C56.9209 79.0691 56.9209 78.8512 56.9535 78.637C56.9888 78.382 57.0936 78.1417 57.2562 77.9423C57.4694 77.6996 57.7513 77.5275 58.0645 77.4488C58.3263 77.3582 58.606 77.3312 58.8803 77.3701C59.0934 77.4036 59.2916 77.5 59.4494 77.6471C59.6021 77.7976 59.7221 77.9779 59.8021 78.1769L59.348 78.3116C59.2666 78.1196 59.124 77.9599 58.9424 77.8575C58.7517 77.7455 58.4964 77.7379 58.1765 77.8348C57.9881 77.8838 57.8168 77.9839 57.6815 78.1239C57.5666 78.2472 57.4862 78.3986 57.4484 78.5628C57.4084 78.7323 57.3971 78.9073 57.4151 79.0805C57.4242 79.1637 57.4378 79.2515 57.456 79.3454C57.4742 79.4392 57.4984 79.5315 57.5256 79.6208C57.5794 79.7953 57.6563 79.9617 57.7542 80.1158C57.8017 80.1884 57.8554 80.2567 57.9146 80.3201C57.9726 80.384 58.0365 80.4423 58.1053 80.4942C58.2392 80.5942 58.3948 80.6611 58.5594 80.6894C58.735 80.7193 58.9152 80.7063 59.0846 80.6516C59.2566 80.6038 59.4131 80.512 59.5387 80.3852C59.6596 80.2713 59.7457 80.1253 59.787 79.9644C59.8071 79.8878 59.8183 79.809 59.8203 79.7298C59.8201 79.656 59.8094 79.5826 59.7885 79.5119L60.2426 79.3756L60.241 79.3817ZM64.0462 78.0482C64.0947 78.2415 64.1111 78.4414 64.0947 78.64C64.0756 78.8208 64.0181 78.9953 63.9259 79.152C63.8337 79.3086 63.7091 79.4437 63.5604 79.5482C63.4255 79.639 63.2801 79.7132 63.1275 79.7692C62.8306 79.893 62.5047 79.9302 62.1875 79.8766C61.9 79.8212 61.6361 79.6797 61.4307 79.471C61.2047 79.2416 61.0303 78.9665 60.9191 78.6642C60.8579 78.5048 60.8073 78.3415 60.7678 78.1753C60.7214 77.9638 60.7066 77.7465 60.7239 77.5306C60.7439 77.2731 60.834 77.0261 60.9842 76.8161C61.1798 76.5592 61.4491 76.368 61.7562 76.2682C62.0111 76.1597 62.288 76.113 62.5644 76.132C62.7796 76.1503 62.9843 76.2331 63.1517 76.3696C63.3152 76.508 63.4477 76.6792 63.5407 76.8721L63.1033 77.0386C63.0094 76.851 62.8554 76.7001 62.6658 76.6103C62.4676 76.5119 62.2118 76.521 61.8999 76.6406C61.7159 76.7026 61.5521 76.8135 61.4262 76.9614C61.3215 77.093 61.2527 77.2495 61.2264 77.4155C61.1969 77.5868 61.1969 77.7619 61.2264 77.9332C61.2415 78.0164 61.2612 78.1027 61.2869 78.195C61.3117 78.2864 61.3415 78.3764 61.3762 78.4644C61.4413 78.6354 61.5299 78.7964 61.6396 78.9427C61.6914 79.0122 61.7492 79.077 61.8122 79.1365C61.8753 79.195 61.9431 79.2481 62.015 79.2954C62.1544 79.3854 62.3131 79.4414 62.4781 79.4589C62.6557 79.4775 62.835 79.4521 63.0003 79.3847C63.1687 79.3255 63.3188 79.2239 63.4363 79.0896C63.5394 78.9686 63.6084 78.8223 63.6361 78.6657C63.6505 78.5884 63.6556 78.5097 63.6512 78.4311C63.6468 78.357 63.631 78.284 63.6043 78.2147L64.0432 78.0467L64.0462 78.0482ZM67.6365 74.2763L66.6179 74.7682L68.0073 77.5941L67.5866 77.7985L66.1956 74.9695L65.1724 75.4645L64.9953 75.1042L67.4579 73.91L67.635 74.2718L67.6365 74.2763ZM72.4573 75.2057L72.0199 75.4554L71.2631 74.8288L69.9841 75.5614L70.1612 76.518L69.7238 76.7677L69.0835 73.0412L69.521 72.7915L72.4513 75.2057H72.4573ZM70.9604 74.5427L69.5482 73.3318L69.8993 75.1481L70.9589 74.5427H70.9604ZM73.5184 70.6724L72.5905 71.3172L74.4069 73.8903L74.0239 74.1567L72.2076 71.5836L71.2752 72.2314L71.0436 71.903L73.2883 70.344L73.5199 70.6724H73.5184ZM78.371 70.7814L77.985 71.1038L77.1359 70.6149L76.0052 71.5564L76.3458 72.4645L75.9598 72.7854L74.6763 69.2254L75.0638 68.9045L78.371 70.7768V70.7814ZM76.7817 70.3863L75.1803 69.4434L75.8433 71.1674L76.7817 70.3863ZM79.1021 66.4752C79.6308 66.9989 79.6056 67.5473 79.0264 68.1205L78.3831 68.7638L79.3912 69.7642L79.0582 70.0942L76.532 67.5877L77.5385 66.5887C78.0955 66.0367 78.6162 66.0009 79.1005 66.4812L79.1021 66.4752ZM78.7721 66.8173C78.7128 66.7464 78.6372 66.6911 78.5518 66.656C78.4663 66.6209 78.3736 66.6072 78.2817 66.6159C78.0795 66.6659 77.8974 66.7762 77.7595 66.9323L77.1541 67.5377L78.1046 68.4807L78.71 67.8753C78.8808 67.7364 78.9896 67.5356 79.0128 67.3167C79.0099 67.2216 78.9873 67.128 78.9464 67.042C78.9055 66.9561 78.8472 66.8795 78.7751 66.8173H78.7721Z" fill="#D59D00"/>
<path d="M9.18765 29.6826C9.49065 30.0474 9.64329 30.5139 9.61448 30.9873C9.59492 31.2216 9.52336 31.4486 9.40501 31.6518C9.28666 31.855 9.1245 32.0292 8.93033 32.1619C8.67578 32.3578 8.37082 32.4775 8.05093 32.507C7.73118 32.5421 7.40858 32.4737 7.13066 32.3117C6.87926 32.1718 6.65887 31.9823 6.48284 31.7547C6.17269 31.3842 6.00805 30.9134 6.01967 30.4303C6.03511 30.1911 6.10523 29.9587 6.22462 29.7508C6.34402 29.543 6.50951 29.3653 6.70836 29.2315C6.89192 29.0816 7.10657 28.9745 7.33671 28.918C7.56685 28.8614 7.80669 28.8568 8.03882 28.9046C8.50418 29.0134 8.91284 29.2905 9.18613 29.6826H9.18765ZM6.35721 32.8248C6.48226 32.9565 6.57139 33.118 6.61603 33.294C6.65146 33.4707 6.62807 33.6541 6.54943 33.8162C6.44009 34.0368 6.28534 34.2318 6.09535 34.3884L4.99496 35.3707L2.60498 32.7401L3.70083 31.7623C3.76612 31.704 3.83541 31.6504 3.90819 31.6018C3.97322 31.5596 4.04156 31.5226 4.11253 31.4913C4.22778 31.4389 4.35383 31.4145 4.48034 31.4202C4.59435 31.4263 4.70554 31.4578 4.80576 31.5125C4.91047 31.5723 5.00457 31.6491 5.08426 31.7396C5.16205 31.8251 5.22176 31.9255 5.25984 32.0347C5.29768 32.144 5.3096 32.2606 5.29466 32.3753C5.28088 32.4912 5.23472 32.6008 5.16146 32.6916L5.17205 32.7022C5.25786 32.6496 5.3486 32.6055 5.44299 32.5705C5.54306 32.534 5.64831 32.5135 5.75479 32.51C5.87293 32.5157 5.98838 32.5472 6.09299 32.6024C6.1976 32.6576 6.28883 32.7351 6.36023 32.8294L6.35721 32.8248ZM4.76338 32.0907C4.66991 31.9894 4.54523 31.9223 4.4092 31.9C4.25784 31.8728 4.09285 31.9469 3.89457 32.124L3.22707 32.7219L3.97025 33.5408L4.62867 32.9535C4.70431 32.8983 4.76827 32.8287 4.81686 32.7487C4.86544 32.6687 4.89768 32.5798 4.91171 32.4873C4.91483 32.4144 4.903 32.3416 4.87698 32.2734C4.85095 32.2052 4.81126 32.143 4.76035 32.0907H4.76338ZM5.97426 33.1154C5.91961 33.0407 5.84616 32.9817 5.76136 32.9445C5.67657 32.9073 5.58344 32.8931 5.49142 32.9035C5.29117 32.9482 5.10756 33.0484 4.96166 33.1926L4.23816 33.8374L5.07518 34.7607L5.79717 34.1144C5.89787 34.0259 5.98597 33.9241 6.05903 33.8117C6.12543 33.7132 6.15785 33.5958 6.15136 33.4772C6.13593 33.3381 6.07282 33.2087 5.97275 33.1109L5.97426 33.1154ZM11.5035 26.6766L10.5332 27.2563L12.1649 29.9505L11.7638 30.1896L10.1306 27.4954L9.15586 28.0766L8.94698 27.7331L11.2961 26.333L11.5035 26.6766ZM16.0155 27.9344L13.7451 29.0817L12.118 25.9288L14.3384 24.8073L14.5216 25.1645L12.7204 26.0726L13.2305 27.0671L14.8621 26.2316L15.0438 26.5842L13.4121 27.4091L13.9752 28.5065L15.8263 27.5711L16.0095 27.9283L16.0155 27.9344ZM19.3954 26.5343L18.9595 26.7099L16.1321 24.8133L17.1916 27.4182L16.7572 27.5938L15.4176 24.3078L15.8551 24.1322L18.6825 26.0287L17.623 23.4238L18.0589 23.2498L19.3954 26.5343ZM22.5846 23.5858C22.7037 23.9034 22.7457 24.2447 22.7072 24.5817C22.6757 24.826 22.5749 25.0561 22.4165 25.2447C22.3482 25.3241 22.2721 25.3966 22.1895 25.4611C22.112 25.5231 22.0283 25.5769 21.9398 25.6216C21.7631 25.7097 21.5799 25.7841 21.3918 25.8441L20.3323 26.1846L19.2289 22.8123L20.4504 22.4188C20.7755 22.2969 21.1295 22.2743 21.4675 22.3537C21.7429 22.4269 21.9879 22.586 22.1668 22.8078C22.3504 23.0395 22.4904 23.3026 22.58 23.5843L22.5846 23.5858ZM22.1123 23.7477C22.0452 23.5239 21.938 23.3142 21.796 23.1287C21.6907 22.9923 21.5541 22.8833 21.3979 22.8108C21.2642 22.7531 21.1196 22.7252 20.9741 22.7291C20.8295 22.7332 20.6862 22.7582 20.5488 22.8032L19.801 23.0439L20.6547 25.6534L21.2753 25.4521C21.529 25.3814 21.7613 25.2494 21.9519 25.0676C22.1022 24.912 22.1946 24.7095 22.2137 24.4939C22.2311 24.2371 22.195 23.9794 22.1078 23.7371L22.1123 23.7477ZM30.8034 23.6115L30.3388 23.6932L27.9715 21.2488L28.4558 24.0156L28.0017 24.0959L27.3812 20.6055L27.8443 20.5238L30.2116 22.9622L29.7197 20.1953L30.1829 20.1151L30.8034 23.6055V23.6115ZM37.6146 22.9516L37.1121 22.9864L36.7141 22.0949L35.2413 22.1978L34.9764 23.1347L34.4739 23.1695L35.544 19.5369L36.0481 19.5021L37.6146 22.947V22.9516ZM36.5551 21.7044L35.8195 20.0061L35.3352 21.7891L36.5551 21.7044ZM47.9495 20.1423L46.8189 20.0636L46.5979 23.1998L46.1302 23.1665L46.3542 20.0258L45.219 19.9471L45.2478 19.5475L47.9813 19.7352L47.9541 20.1363L47.9495 20.1423ZM51.3491 23.8249L50.8572 23.7492L50.6544 22.7957L49.1922 22.5989L48.7381 23.4602L48.2386 23.3905L50.0474 20.0606L50.5469 20.1302L51.3567 23.8234L51.3491 23.8249ZM50.5817 22.387L50.2169 20.5707L49.3693 22.2145L50.5802 22.3825L50.5817 22.387ZM55.1149 21.388L54.007 21.1549L53.3471 24.2291L52.893 24.1322L53.5514 21.0581L52.4389 20.8235L52.5221 20.4299L55.2012 20.996L55.118 21.388H55.1149ZM57.9711 25.34L57.4822 25.219L57.3808 24.2503L55.9489 23.8946L55.398 24.7058L54.9091 24.5848L57.063 21.4622L57.5534 21.5833L57.9711 25.34ZM57.3657 23.8264L57.184 21.9935L56.1684 23.5404L57.3566 23.834L57.3657 23.8264ZM61.4524 26.4677L60.9983 26.3163C60.9983 26.165 60.9877 25.9818 60.9832 25.7805C60.9832 25.505 60.9756 25.2704 60.9832 25.0737C60.9827 25.0222 60.9741 24.9711 60.9575 24.9223C60.9392 24.8744 60.9131 24.8299 60.8803 24.7906C60.7779 24.6843 60.6479 24.6088 60.5049 24.5726L59.5574 24.2699L59.0897 25.7003L58.6356 25.5565L59.7405 22.1857L61.2117 22.6595C61.9463 22.8956 62.2148 23.3159 62.017 23.9203C61.97 24.0455 61.9019 24.1617 61.8157 24.2639C61.7383 24.367 61.639 24.4518 61.5251 24.5121C61.4115 24.5727 61.2816 24.5955 61.1542 24.5772V24.5938C61.2704 24.6743 61.3591 24.7884 61.4085 24.9208C61.424 24.97 61.4341 25.0207 61.4388 25.0721C61.4388 25.1403 61.4388 25.1932 61.4388 25.2235C61.4388 25.2538 61.4388 25.3945 61.4388 25.6261C61.4388 25.7775 61.4388 25.9288 61.4388 26.0802C61.4388 26.2089 61.4388 26.336 61.4388 26.4616L61.4524 26.4677ZM61.5205 23.8174C61.5549 23.7379 61.5693 23.6513 61.5624 23.565C61.5556 23.4787 61.5277 23.3954 61.4812 23.3224C61.3533 23.1691 61.1799 23.0605 60.9862 23.0121L60.0553 22.7094L59.6694 23.89L60.6668 24.2109C60.7614 24.2408 60.8599 24.2561 60.959 24.2563C61.0729 24.2561 61.1843 24.223 61.2799 24.161C61.399 24.078 61.4845 23.955 61.5205 23.8143V23.8174ZM66.1839 28.5474L65.6148 28.2961L65.1759 26.1665L64.4403 26.445L63.9408 27.5575L63.5124 27.3668L64.9655 24.1292L65.3953 24.3184L64.6582 25.9288L66.9559 25.0207L67.5371 25.278L65.6073 26.0212L66.1688 28.5534L66.1839 28.5474ZM70.4311 28.9031C70.3053 29.1374 70.144 29.3508 69.9528 29.5358C69.7904 29.6925 69.5978 29.8145 69.3867 29.8945C69.1802 29.9701 68.9589 29.9965 68.7404 29.9717C68.6254 29.9609 68.5121 29.9365 68.4029 29.899C68.1644 29.8158 67.9414 29.6935 67.7429 29.5373C67.6537 29.4639 67.5725 29.3812 67.5008 29.2906C67.3662 29.1209 67.2725 28.9225 67.2268 28.7108C67.1807 28.4877 67.1807 28.2574 67.2268 28.0343C67.2823 27.7763 67.3778 27.5286 67.5098 27.3002C67.6448 27.0458 67.8236 26.8172 68.0381 26.6251C68.2123 26.4692 68.4192 26.3544 68.6435 26.2891C68.848 26.2301 69.063 26.2167 69.2732 26.2497C69.486 26.2831 69.691 26.3544 69.8786 26.4601C70.0689 26.5657 70.2395 26.7034 70.3827 26.8673C70.5224 27.0256 70.6258 27.2126 70.6854 27.4152C70.7467 27.6397 70.7565 27.8751 70.7141 28.1039C70.6611 28.3875 70.5587 28.6595 70.4114 28.9076L70.4311 28.9031ZM69.9967 28.6639C70.137 28.4326 70.2287 28.1751 70.2661 27.9071C70.2921 27.7217 70.2707 27.5327 70.2041 27.3577C70.1513 27.226 70.0713 27.1068 69.9695 27.008C69.8863 26.9301 69.7943 26.862 69.6955 26.8052C69.4301 26.6585 69.1183 26.62 68.8252 26.6977C68.5134 26.7749 68.2197 27.0534 67.9533 27.5363C67.8473 27.727 67.7659 27.9305 67.7112 28.1417C67.6526 28.3638 67.6584 28.5979 67.7278 28.8168C67.7733 28.9417 67.843 29.0563 67.9329 29.1542C68.0227 29.2522 68.131 29.3314 68.2515 29.3874C68.4054 29.4754 68.5772 29.5271 68.754 29.5388C68.9162 29.5476 69.0781 29.5175 69.2263 29.451C69.3006 29.4151 69.3715 29.3725 69.4382 29.3239C69.5106 29.2694 69.5789 29.2097 69.6425 29.1452C69.7803 28.997 69.8993 28.8323 69.9967 28.6548V28.6639ZM72.6349 32.5327L72.2444 32.2708V28.8849L70.6491 31.2265L70.2601 30.9661L72.258 28.0267L72.6485 28.287V31.6745L74.2333 29.345L74.6223 29.6054L72.6243 32.5448L72.6349 32.5327ZM76.2101 34.676C76.1417 34.7315 76.0559 34.761 75.9679 34.7592C75.8513 34.7691 75.734 34.7656 75.6182 34.7486C75.4882 34.7318 75.36 34.7029 75.2353 34.6623C75.1611 34.6381 75.0627 34.6033 74.9417 34.5564C74.7789 34.4907 74.6292 34.3964 74.4997 34.2779C74.2971 34.0981 74.1381 33.8745 74.035 33.624C73.9281 33.3503 73.9112 33.0497 73.9866 32.7658C74.0965 32.4208 74.2753 32.1018 74.512 31.8278C74.7488 31.5539 75.0386 31.3308 75.3639 31.172C75.6344 31.0524 75.935 31.0186 76.2252 31.0751C76.5466 31.1447 76.8426 31.3019 77.0804 31.5292C77.208 31.6394 77.3209 31.7655 77.4164 31.9045C77.4938 32.0199 77.5488 32.1488 77.5783 32.2845C77.6346 32.4944 77.6293 32.7161 77.5632 32.9232C77.5149 33.0677 77.4466 33.2047 77.3604 33.3304L77.0107 33.0186C77.0528 32.9738 77.0875 32.9227 77.1137 32.8672C77.1405 32.8028 77.1608 32.7359 77.1742 32.6674C77.1971 32.5287 77.1798 32.3864 77.1243 32.2572C77.0537 32.09 76.9442 31.9421 76.8049 31.8258C76.7053 31.7232 76.5856 31.6421 76.4533 31.5877C76.3211 31.5333 76.179 31.5067 76.036 31.5095C75.8011 31.5202 75.5738 31.5957 75.3791 31.7275C75.2141 31.8391 75.0618 31.9686 74.925 32.1134C74.8239 32.227 74.7341 32.3502 74.6571 32.4812C74.6125 32.5525 74.574 32.6275 74.5421 32.7052C74.5076 32.786 74.4803 32.8695 74.4603 32.955C74.4139 33.1316 74.4139 33.3172 74.4603 33.4938C74.5175 33.6996 74.6363 33.8829 74.8009 34.0191C74.9658 34.1842 75.1843 34.2851 75.4169 34.3036C75.6064 34.3117 75.7946 34.2689 75.9618 34.1795C76.0395 34.1337 76.1143 34.0831 76.1858 34.0281C76.2505 33.9779 76.3108 33.9222 76.366 33.8616L75.6137 33.1941L75.8831 32.8914L76.9426 33.8404L76.1858 34.6699L76.2101 34.676ZM78.2988 38.0059L77.9749 37.6487C78.0491 37.5109 78.1354 37.3535 78.2322 37.1779C78.3669 36.9373 78.482 36.7239 78.5834 36.5619C78.6086 36.5176 78.6265 36.4696 78.6364 36.4196C78.6453 36.3696 78.6453 36.3183 78.6364 36.2683C78.6015 36.1258 78.527 35.9962 78.4214 35.8944L77.7388 35.1618L76.6127 36.1684L76.2978 35.8218L78.9527 33.4499L79.988 34.5912C80.5057 35.1603 80.5263 35.6573 80.0501 36.0821C79.9541 36.1668 79.8446 36.2348 79.7262 36.2834C79.6069 36.335 79.4776 36.3593 79.3477 36.3545C79.2197 36.3505 79.0962 36.306 78.9951 36.2274L78.9815 36.238C79.0417 36.3658 79.0612 36.5089 79.0375 36.6482C79.0257 36.7007 79.0074 36.7516 78.983 36.7995L78.9058 36.9373C78.8861 36.9691 78.8195 37.0886 78.7029 37.2839C78.6258 37.4141 78.5516 37.5442 78.4729 37.6759C78.3942 37.8076 78.3457 37.8984 78.2837 38.0089L78.2988 38.0059ZM79.6944 35.7446C79.7648 35.6924 79.8212 35.6237 79.8587 35.5444C79.8962 35.4652 79.9136 35.378 79.9093 35.2905C79.8751 35.0941 79.7797 34.9134 79.6368 34.7743L78.983 34.0539L78.0521 34.8848L78.7544 35.6583C78.8215 35.7306 78.899 35.7923 78.9845 35.8414C79.084 35.8975 79.1973 35.9242 79.3114 35.9186C79.4566 35.9066 79.5925 35.8427 79.6944 35.7385V35.7446ZM80.1772 40.7743L78.7075 38.7112L81.6272 36.6754L83.0561 38.6991L82.7246 38.9292L81.5667 37.2869L80.6449 37.9272L81.6953 39.4151L81.3684 39.6421L80.318 38.1542L79.3023 38.8611L80.492 40.5487L80.1621 40.7788L80.1772 40.7743ZM82.5596 43.5305C82.3918 43.6067 82.2077 43.6399 82.0238 43.6274C81.9313 43.6209 81.8407 43.5984 81.7559 43.5608C81.659 43.5156 81.568 43.4587 81.485 43.3913C81.2778 43.2031 81.1162 42.9702 81.0127 42.7102C80.9824 42.6405 80.9552 42.5739 80.931 42.5104C80.9083 42.4468 80.8871 42.3787 80.8674 42.3045C80.8304 42.1521 80.8187 41.9946 80.8326 41.8383C80.8375 41.7532 80.8559 41.6694 80.8871 41.5901C80.9218 41.5 80.9675 41.4146 81.0233 41.3358C81.0827 41.2472 81.1552 41.1681 81.2382 41.1012C81.335 41.0198 81.4431 40.953 81.5591 40.9029L81.7514 41.3282C81.6479 41.3707 81.5549 41.4351 81.4786 41.5168C81.4023 41.5986 81.3446 41.6959 81.3094 41.802C81.2693 41.9155 81.2568 42.0369 81.2731 42.1562C81.2907 42.2999 81.3311 42.4399 81.3926 42.5709C81.4714 42.7842 81.6224 42.9631 81.8195 43.0765C81.9016 43.1161 81.9916 43.1367 82.0828 43.1367C82.174 43.1367 82.2641 43.1161 82.3462 43.0765C82.4604 43.0322 82.5549 42.9484 82.6126 42.8403C82.6614 42.7434 82.6844 42.6355 82.6792 42.527C82.6731 42.4115 82.6579 42.2966 82.6338 42.1834C82.599 42.0079 82.5702 41.858 82.546 41.7384C82.5218 41.6189 82.5021 41.5084 82.4945 41.4584C82.4728 41.3254 82.4673 41.1902 82.4779 41.0558C82.4883 40.9197 82.5354 40.7889 82.6141 40.6774C82.7139 40.5509 82.8455 40.4532 82.9955 40.3944C83.1282 40.3243 83.2765 40.2893 83.4264 40.2928C83.5764 40.2962 83.723 40.338 83.8522 40.414C84.1308 40.5975 84.3467 40.8615 84.4713 41.1708C84.5788 41.3927 84.6307 41.6374 84.6227 41.8837C84.6167 42.0755 84.5546 42.2613 84.4441 42.418C84.3901 42.4927 84.3288 42.5616 84.2609 42.6239C84.1972 42.6811 84.1246 42.7276 84.046 42.7616L83.8553 42.3363C84.0059 42.2559 84.1209 42.122 84.1777 41.9609C84.2103 41.8714 84.2197 41.7751 84.2049 41.6809C84.185 41.5561 84.1473 41.4348 84.0929 41.3207C84.0329 41.1882 83.9521 41.0661 83.8537 40.9589C83.8097 40.9132 83.7586 40.8749 83.7024 40.8454C83.6496 40.8201 83.5936 40.8023 83.5359 40.7924C83.4859 40.7823 83.4345 40.7823 83.3845 40.7924C83.3268 40.8041 83.2705 40.8218 83.2165 40.8454C83.1612 40.8661 83.111 40.8982 83.069 40.9397C83.027 40.9812 82.9942 41.0311 82.9728 41.0861C82.9541 41.1346 82.9424 41.1856 82.938 41.2374C82.938 41.2753 82.938 41.3282 82.938 41.3964C82.938 41.4645 82.9471 41.5386 82.9577 41.6173C82.9683 41.6961 82.9849 41.7899 83.0092 41.8958C83.0334 42.0018 83.0531 42.0972 83.0712 42.1789C83.0894 42.2606 83.1015 42.3303 83.1075 42.3938C83.1272 42.4998 83.1393 42.5649 83.1423 42.5876C83.1507 42.6564 83.1507 42.7261 83.1423 42.7949C83.1245 42.944 83.0693 43.0861 82.9819 43.2081C82.8736 43.3535 82.7268 43.4657 82.5581 43.5321L82.5596 43.5305ZM83.663 47.0209C83.4864 47.0724 83.2998 47.0797 83.1197 47.0421C83.0281 47.0245 82.9407 46.9896 82.8623 46.9392C82.7721 46.8819 82.6897 46.8133 82.6171 46.7348C82.4388 46.5196 82.312 46.2664 82.2463 45.9947C82.2251 45.922 82.2069 45.8524 82.1933 45.7858C82.1785 45.7153 82.1674 45.6441 82.16 45.5724C82.1442 45.4165 82.1539 45.259 82.1888 45.1062C82.2068 45.0231 82.2369 44.943 82.2781 44.8686C82.3254 44.7842 82.3828 44.7059 82.4491 44.6355C82.5202 44.5559 82.6029 44.4875 82.6943 44.4326C82.8024 44.3665 82.919 44.3156 83.0409 44.2813L83.1711 44.7354C83.0628 44.7636 82.9618 44.8146 82.8748 44.8851C82.7879 44.9556 82.717 45.0439 82.6671 45.144C82.6119 45.2508 82.5824 45.369 82.5808 45.4891C82.5785 45.6343 82.5995 45.7789 82.6429 45.9175C82.6901 46.1394 82.8145 46.3373 82.994 46.476C83.0687 46.5281 83.1544 46.5623 83.2444 46.5759C83.3344 46.5896 83.4264 46.5823 83.5132 46.5547C83.6351 46.5292 83.7431 46.459 83.8159 46.358C83.8789 46.2687 83.9165 46.1641 83.9249 46.0552C83.9348 45.9404 83.9348 45.825 83.9249 45.7101C83.9158 45.53 83.9082 45.3787 83.9007 45.2561C83.8931 45.1334 83.8901 45.023 83.8901 44.973C83.8863 44.8382 83.8995 44.7034 83.9294 44.5719C83.9581 44.4376 84.0236 44.3139 84.1186 44.2147C84.2349 44.1033 84.3785 44.0245 84.5349 43.9861C84.6761 43.9356 84.8279 43.9219 84.9759 43.9463C85.124 43.9707 85.2634 44.0323 85.381 44.1254C85.6311 44.3474 85.8075 44.6405 85.8865 44.9654C85.9638 45.2 85.9825 45.45 85.941 45.6935C85.9085 45.8825 85.8211 46.0578 85.6898 46.1975C85.6257 46.2639 85.5552 46.3237 85.4794 46.3761C85.4088 46.4248 85.3305 46.4611 85.2478 46.4836L85.1176 46.0295C85.278 45.9705 85.4107 45.854 85.49 45.7026C85.5341 45.6186 85.5565 45.5249 85.555 45.4301C85.5536 45.3033 85.5337 45.1774 85.496 45.0563C85.4593 44.9111 85.399 44.7731 85.3174 44.6476C85.2806 44.5951 85.2344 44.55 85.1812 44.5144C85.1345 44.4822 85.0836 44.4567 85.0298 44.4387C84.9813 44.4217 84.9298 44.4145 84.8785 44.4175C84.8195 44.4212 84.7611 44.4314 84.7044 44.4478C84.6468 44.4608 84.5925 44.4857 84.5451 44.5208C84.4976 44.556 84.4581 44.6007 84.4289 44.6521C84.4036 44.6999 84.3847 44.7508 84.3729 44.8035C84.362 44.8534 84.3539 44.904 84.3487 44.9548C84.3406 45.0282 84.3365 45.102 84.3366 45.1758C84.3366 45.2561 84.3366 45.3499 84.3487 45.4589C84.3608 45.5679 84.3638 45.6647 84.3699 45.748C84.3759 45.8312 84.3699 45.8993 84.3699 45.9659C84.3699 46.0734 84.3775 46.1385 84.3775 46.1627C84.3749 46.2317 84.3648 46.3002 84.3472 46.367C84.3072 46.512 84.2324 46.6451 84.1292 46.7545C84.0017 46.8834 83.8408 46.9741 83.6645 47.0164L83.663 47.0209ZM82.9062 48.6859L82.8487 48.2227L86.3951 47.7913L86.4526 48.2454L82.9062 48.6783V48.6859ZM8.66243 29.8097C8.46225 29.5696 8.18902 29.4017 7.88443 29.3314C7.72396 29.299 7.55835 29.302 7.39916 29.3402C7.23996 29.3784 7.091 29.4508 6.96265 29.5524C6.83029 29.6457 6.71894 29.7657 6.63578 29.9046C6.55262 30.0436 6.49949 30.1984 6.47981 30.3592C6.45709 30.6786 6.54766 30.9959 6.73561 31.2552L8.66848 29.8097H8.66243ZM8.91368 30.1412L6.97476 31.5912C7.17259 31.8284 7.44266 31.9943 7.74367 32.0635C7.9037 32.0926 8.06796 32.0892 8.22665 32.0535C8.38534 32.0177 8.5352 31.9504 8.66729 31.8555C8.79937 31.7605 8.91098 31.6399 8.99544 31.5009C9.07991 31.3619 9.13549 31.2073 9.15889 31.0463C9.18396 30.7244 9.09737 30.4037 8.91368 30.1382V30.1412ZM26.7303 22.5596C26.863 23.0127 26.8198 23.4992 26.6092 23.9218C26.4992 24.1303 26.3442 24.3118 26.1555 24.4532C25.9668 24.5945 25.749 24.6922 25.5179 24.7391C25.2073 24.8213 24.8797 24.8134 24.5734 24.7164C24.2658 24.625 23.9957 24.4372 23.803 24.1806C23.6273 23.9564 23.4986 23.699 23.4246 23.4238C23.2861 22.961 23.3199 22.4636 23.52 22.0237C23.6372 21.8178 23.7948 21.6376 23.9834 21.4942C24.172 21.3507 24.3877 21.2469 24.6174 21.1889C24.8472 21.1309 25.0863 21.12 25.3204 21.1568C25.5545 21.1937 25.7787 21.2775 25.9796 21.4032C26.3672 21.6821 26.637 22.0955 26.7364 22.5626L26.7303 22.5596ZM26.196 22.4733C26.1061 22.1748 25.9205 21.9141 25.6678 21.7316C25.5317 21.6392 25.377 21.5777 25.2146 21.5516C25.0522 21.5254 24.886 21.5352 24.7278 21.5803C24.5703 21.6158 24.4217 21.6835 24.2915 21.7791C24.1613 21.8747 24.0522 21.9961 23.971 22.1357C23.8241 22.42 23.7828 22.7472 23.8545 23.059L26.2021 22.4778L26.196 22.4733ZM26.2974 22.8774L23.9423 23.4586C24.0302 23.754 24.2132 24.0121 24.4629 24.1927C24.5989 24.2825 24.7517 24.344 24.912 24.3733C25.0723 24.4027 25.2368 24.3994 25.3958 24.3636C25.5548 24.3279 25.705 24.2604 25.8373 24.1652C25.9696 24.0701 26.0813 23.9492 26.1657 23.8098C26.3146 23.5253 26.3611 23.1982 26.2974 22.8835V22.8774ZM33.7807 19.6988L32.8453 21.8421L32.9966 23.3557L32.5592 23.4011L32.4079 21.8966L31.029 19.9925L31.5133 19.9425L32.3488 21.1095C32.4308 21.2215 32.5051 21.3388 32.5713 21.4607C32.6031 21.3653 32.6546 21.2276 32.7227 21.0475L33.2555 19.7594L33.7746 19.7064L33.7807 19.6988Z" fill="#D59D00"/>
</g>
<defs>
<clipPath id="clip0_331_73138">
<rect width="86.4389" height="83" fill="white" transform="translate(0 0.5)"/>
</clipPath>
</defs>
</svg>
