<svg width="236" height="28" viewBox="0 0 236 28" fill="none" xmlns="http://www.w3.org/2000/svg">
<g clip-path="url(#clip0_331_73129)">
<path d="M227.419 14.2614H208.017V8.39034C208.011 8.04235 208.126 7.70311 208.343 7.43092C208.56 7.15872 208.865 6.97058 209.206 6.89881H226.224C226.565 6.97058 226.87 7.15872 227.087 7.43092C227.304 7.70311 227.419 8.04235 227.413 8.39034V14.2614H227.419ZM236 27.6197V4.65855C236 4.65855 236.077 -0.000244141 232.119 -0.000244141H203.317C199.359 -0.000244141 199.436 4.65855 199.436 4.65855V27.6435H208.017V21.4813H227.419V27.6435L236 27.6197Z" fill="#4F4F4A"/>
<path d="M188.158 18.6646C188.158 20.2631 187.201 21.1901 185.104 21.1901H168.691V16.0857H185.104C187.201 16.0857 188.158 17.1137 188.158 18.9855V18.6646ZM187.391 8.56267C187.391 10.1314 186.476 11.1654 184.908 11.1654H168.691V6.04312H184.908C186.476 6.04312 187.391 7.23158 187.391 8.82413V8.58644V8.56267ZM195.324 7.23158C195.324 1.83 192.044 -0.000244141 185.282 -0.000244141H160.877V27.6495H187.879C192.728 27.6495 196.317 26.3897 196.317 20.3166C196.317 16.157 194.944 14.1663 191.236 13.7087V13.5958C193.613 12.9065 195.324 11.9914 195.324 7.25535V7.23158Z" fill="#4F4F4A"/>
<path d="M148.933 10.6952C148.933 12.6799 148.095 13.5951 145.801 13.5951H131.266V6.87428H145.041C147.709 6.87428 148.933 7.33184 148.933 9.77414V10.6952ZM157.187 9.97024V8.18753C157.187 3.21974 155.404 -0.0247803 148.897 -0.0247803H122.787V27.6487H131.266V20.4703H145.118C147.75 20.4703 148.594 21.4271 148.594 24.3269V27.6487H157.068V22.9542C157.068 18.4084 154.97 17.3031 152.451 16.8396V16.7683C156.343 15.8472 157.205 13.6723 157.205 9.97024H157.187Z" fill="#4F4F4A"/>
<path d="M118.746 -0.000244141V6.14413H96.4444V11.0882H117.415V16.2936H96.4444V21.6358H118.746V27.6495H88.4282V-0.000244141H118.746Z" fill="#4F4F4A"/>
<path d="M84.6129 -0.000244141V6.28081L63.375 21.2377H84.6129V27.6495H51.2229V21.2377L72.0567 6.28081H51.7577V-0.000244141H84.6129Z" fill="#4F4F4A"/>
<path d="M38.5657 27.6495H47.0454V-0.000244141H38.5657V27.6495Z" fill="#4F4F4A"/>
<path d="M27.2813 18.6648C27.2813 20.2633 26.3246 21.1903 24.2269 21.1903H7.81418V16.0858H24.2269C26.3246 16.0858 27.2813 17.1138 27.2813 18.9857V18.6648ZM26.5147 8.56279C26.5147 10.1316 25.5996 11.1655 24.0308 11.1655H7.81418V6.04324H24.0308C25.5996 6.04324 26.5147 7.23171 26.5147 8.82425V8.58656V8.56279ZM34.4656 7.25547C34.4656 1.83012 31.1616 -0.00012207 24.4052 -0.00012207H0V27.6496H27.002C31.8509 27.6496 35.4401 26.3898 35.4401 20.3167C35.4401 16.1571 34.0674 14.1664 30.3594 13.7089V13.596C32.7364 12.9066 34.4477 11.9915 34.4477 7.25547H34.4656Z" fill="#4F4F4A"/>
</g>
<defs>
<clipPath id="clip0_331_73129">
<rect width="236" height="27.6497" fill="white"/>
</clipPath>
</defs>
</svg>
