<svg width="162" height="37" viewBox="0 0 162 37" fill="none" xmlns="http://www.w3.org/2000/svg">
<g clip-path="url(#clip0_331_131986)">
<path d="M10.4187 7.44182C7.32971 10.5298 10.6458 14.3034 14.2257 12.3933C15.454 11.7368 18.6836 10.1212 23.3298 8.02257C29.7009 5.14675 35.856 10.1456 37.1418 16.4517V5.84871C37.1418 3.17218 34.8715 1.00183 32.0705 1.00183H16.6308C16.4321 1.35549 16.1849 1.67954 15.8962 1.9645C14.3819 3.47767 12.0687 5.79173 10.4187 7.44182Z" fill="#0077BE"/>
<path d="M27.8851 26.2807C31.2779 22.8881 27.3789 17.5482 22.3487 20.7452C21.295 21.4137 19.6004 22.755 15.2876 25.1396C8.86238 28.6935 1.71761 25.0711 0 19.105V31.6539C0 34.3302 2.27022 36.5003 5.07101 36.5003H18.1749C18.3245 36.0335 18.5997 35.5651 19.0511 35.1135C21.3722 32.7924 25.944 28.2206 27.8851 26.2807Z" fill="#0077BE"/>
<path d="M9.97556 1.00183H5.07101C2.27022 1.00183 0 3.17288 0 5.84871V13.5407C0.594107 11.3553 1.90307 9.07316 4.12898 6.84772C6.54128 4.43565 8.45747 2.52016 9.97556 1.00183Z" fill="#0077BE"/>
<path d="M33.8319 27.1941C30.2965 30.7287 27.016 34.0097 24.5261 36.4994H32.0699C34.871 36.4994 37.1412 34.3292 37.1412 31.653V21.2228C36.7009 23.3155 35.6489 25.3773 33.8319 27.1941Z" fill="#0077BE"/>
<path d="M73.6363 15.3283C69.2316 13.5101 66.0693 12.3587 64.8377 11.9507C61.2517 10.7602 61.5502 5.55154 65.5842 5.55154H75.8941V0.792114H61.8646C47.1488 0.791411 46.7701 18.5204 57.2069 21.8027C61.582 23.1783 63.5634 23.4303 64.6883 23.7046C70.0616 25.0134 69.1195 31.6058 64.6883 31.6058H50.743V36.5007H67.9754C79.6017 36.5007 83.0839 19.2291 73.637 15.3295L73.6363 15.3283Z" fill="#0077BE"/>
<path d="M161.228 36.5003L151.034 5.05996C148.88 -1.11322 139.117 -0.969735 137.252 5.20368C135.779 10.074 128.277 36.5012 128.277 36.5012H134.59L141.47 12.5585L149.368 36.5003H161.228Z" fill="#0077BE"/>
<path d="M115.842 0.792114H99.2029V36.4995H109.962V29.4935C140.323 28.1103 135.844 0.792114 115.842 0.792114ZM109.962 25.3761V4.71266C122.916 4.71266 124.719 25.3756 109.962 25.3756V25.3761Z" fill="#0077BE"/>
<path d="M94.8594 4.57446V36.4856H82.6279V16.7323L94.8594 4.57446Z" fill="#0077BE"/>
<path d="M94.8594 0.811523H82.6279V12.9703L94.8594 0.811523Z" fill="#0077BE"/>
</g>
<defs>
<clipPath id="clip0_331_131986">
<rect width="161.228" height="36" fill="white" transform="translate(0 0.5)"/>
</clipPath>
</defs>
</svg>
