<svg width="139" height="45" viewBox="0 0 139 45" fill="none" xmlns="http://www.w3.org/2000/svg">
<path fill-rule="evenodd" clip-rule="evenodd" d="M18.1696 21.8903V17.7496L0.428783 35.4875C0.154238 35.762 0 36.1344 0 36.5227C0 36.9109 0.154238 37.2833 0.428783 37.5578C0.703328 37.8324 1.07569 37.9866 1.46396 37.9866C1.85222 37.9866 2.22458 37.8324 2.49913 37.5578L18.1696 21.8903Z" fill="#E3000F"/>
<path fill-rule="evenodd" clip-rule="evenodd" d="M32.9507 19.0151V28.215C32.9507 28.6017 33.1043 28.9726 33.3778 29.246C33.6512 29.5194 34.022 29.673 34.4087 29.673C34.7954 29.673 35.1662 29.5194 35.4397 29.246C35.7131 28.9726 35.8667 28.6017 35.8667 28.215V15.5247C35.872 15.3254 35.8373 15.1271 35.7646 14.9415V14.9123V14.8977V14.8773V14.8511L35.7501 14.8219C35.6407 14.6122 35.482 14.4322 35.2876 14.2975C35.0932 14.1628 34.8689 14.0774 34.6341 14.0487C34.3994 14.02 34.1611 14.0489 33.94 14.1328C33.7188 14.2167 33.5214 14.3531 33.3648 14.5303L26.8563 20.9747V25.1153L32.9507 19.0151Z" fill="#E3000F"/>
<path d="M22.5116 14.0112C22.1249 14.0112 21.7541 14.1648 21.4806 14.4383C21.2072 14.7117 21.0536 15.0825 21.0536 15.4692V28.215C21.0536 28.6017 21.2072 28.9725 21.4806 29.2459C21.7541 29.5194 22.1249 29.673 22.5116 29.673C22.8983 29.673 23.2691 29.5194 23.5425 29.2459C23.816 28.9725 23.9696 28.6017 23.9696 28.215V15.478C23.9696 15.0913 23.816 14.7204 23.5425 14.447C23.2691 14.1736 22.8983 14.02 22.5116 14.02" fill="white"/>
<path fill-rule="evenodd" clip-rule="evenodd" d="M35.9864 35.3183C34.2171 37.0878 32.1166 38.4914 29.8049 39.4491C27.4931 40.4067 25.0154 40.8996 22.5131 40.8996C20.0108 40.8996 17.5331 40.4067 15.2213 39.4491C12.9096 38.4914 10.8091 37.0878 9.03981 35.3183L8.92609 35.2046L6.8849 37.2458L6.99571 37.3595C10.8212 41.1872 15.929 43.4621 21.3333 43.7448C26.7375 44.0276 32.0549 42.2983 36.2589 38.8907C40.463 35.4831 43.2556 30.6389 44.0977 25.2932C44.9398 19.9475 43.7716 14.4794 40.8187 9.94439C37.8658 5.4094 33.3376 2.12914 28.1082 0.736832C22.8787 -0.655475 17.3189 -0.0611024 12.5019 2.40521C7.68498 4.87153 3.95249 9.0349 2.025 14.0916C0.097509 19.1483 0.111682 24.7398 2.06478 29.7867L4.32175 27.5298C3.31407 24.3054 3.18163 20.8712 3.93799 17.5788C4.69435 14.2865 6.31233 11.2543 8.62618 8.79306C10.94 6.33179 13.8666 4.52986 17.106 3.57185C20.3454 2.61383 23.7813 2.53418 27.0617 3.34106C30.342 4.14793 33.3489 5.81231 35.7743 8.16372C38.1998 10.5151 39.9565 13.469 40.8646 16.7228C41.7727 19.9766 41.7996 23.4133 40.9424 26.6808C40.0852 29.9484 38.3748 32.9293 35.9864 35.3183Z" fill="white"/>
<path d="M138.667 27.3577L133.438 20.9892L137.702 16.5686C137.972 16.289 138.121 15.9134 138.114 15.5243C138.108 15.1352 137.948 14.7645 137.668 14.4939C137.388 14.2232 137.013 14.0747 136.624 14.0809C136.235 14.0872 135.864 14.2478 135.593 14.5274L129.129 21.2342V15.5509C129.129 15.1623 128.974 14.7896 128.699 14.5148C128.425 14.24 128.052 14.0856 127.663 14.0856C127.275 14.0856 126.902 14.24 126.627 14.5148C126.352 14.7896 126.198 15.1623 126.198 15.5509V28.2908C126.198 28.6794 126.352 29.0521 126.627 29.3269C126.902 29.6017 127.275 29.7561 127.663 29.7561C128.052 29.7561 128.425 29.6017 128.699 29.3269C128.974 29.0521 129.129 28.6794 129.129 28.2908V25.4594L131.394 23.1091L136.404 29.2327C136.526 29.3813 136.676 29.5043 136.846 29.5948C137.016 29.6854 137.202 29.7416 137.393 29.7603C137.584 29.7789 137.778 29.7597 137.962 29.7037C138.146 29.6477 138.317 29.556 138.466 29.4339C138.614 29.3117 138.737 29.1615 138.828 28.9918C138.918 28.8221 138.974 28.6362 138.993 28.4448C139.012 28.2533 138.993 28.0601 138.937 27.8761C138.881 27.6921 138.789 27.5209 138.667 27.3723" fill="white"/>
<path d="M122.387 17.0147C122.774 17.0147 123.144 16.8611 123.418 16.5877C123.691 16.3143 123.845 15.9434 123.845 15.5567C123.845 15.1701 123.691 14.7992 123.418 14.5258C123.144 14.2524 122.774 14.0988 122.387 14.0988H113.896C113.557 14.1037 113.23 14.2206 112.965 14.4312C112.894 14.4931 112.828 14.5603 112.767 14.6324C112.55 14.8934 112.432 15.223 112.435 15.5626V28.285C112.433 28.6253 112.551 28.9554 112.767 29.2181C112.826 29.2906 112.893 29.357 112.965 29.4164C113.228 29.6304 113.556 29.7486 113.896 29.7517H122.387C122.774 29.7517 123.144 29.5981 123.418 29.3247C123.691 29.0513 123.845 28.6804 123.845 28.2937C123.845 27.9071 123.691 27.5362 123.418 27.2628C123.144 26.9894 122.774 26.8358 122.387 26.8358H115.362V23.3862H121.142C121.528 23.3862 121.899 23.2325 122.173 22.9591C122.446 22.6857 122.6 22.3148 122.6 21.9282C122.6 21.5415 122.446 21.1706 122.173 20.8972C121.899 20.6238 121.528 20.4702 121.142 20.4702H115.362V17.0147H122.387Z" fill="white"/>
<path d="M108.626 14.0346H97.9363C97.5496 14.0346 97.1787 14.1882 96.9053 14.4616C96.6319 14.7351 96.4783 15.1059 96.4783 15.4926C96.4783 15.8793 96.6319 16.2501 96.9053 16.5236C97.1787 16.797 97.5496 16.9506 97.9363 16.9506H101.817V28.2354C101.817 28.6241 101.972 28.9968 102.247 29.2715C102.521 29.5463 102.894 29.7007 103.283 29.7007C103.671 29.7007 104.044 29.5463 104.319 29.2715C104.594 28.9968 104.748 28.6241 104.748 28.2354V16.9652H108.626C109.013 16.9652 109.384 16.8116 109.657 16.5381C109.931 16.2647 110.084 15.8939 110.084 15.5072C110.084 15.1205 109.931 14.7496 109.657 14.4762C109.384 14.2028 109.013 14.0492 108.626 14.0492" fill="white"/>
<path d="M67.2544 15.5509C67.256 15.334 67.2081 15.1196 67.1144 14.924C67.0257 14.7388 66.8996 14.574 66.7441 14.4399L66.6712 14.3816C66.4182 14.1934 66.1116 14.0912 65.7964 14.09H65.6885C65.5197 14.1045 65.3543 14.1458 65.1986 14.2125C65.0235 14.2939 64.866 14.4088 64.735 14.5507L64.6941 14.5945L56.4506 24.2988V15.5509C56.4506 15.1642 56.297 14.7934 56.0236 14.5199C55.7502 14.2465 55.3793 14.0929 54.9927 14.0929C54.606 14.0929 54.2351 14.2465 53.9617 14.5199C53.6883 14.7934 53.5347 15.1642 53.5347 15.5509V28.32C53.5398 28.5283 53.5895 28.7332 53.6805 28.9207C53.7517 29.0753 53.8505 29.2156 53.9721 29.3347C53.9941 29.3585 54.0186 29.38 54.045 29.3989C54.1088 29.4561 54.1782 29.5069 54.252 29.5505C54.3069 29.5807 54.3634 29.6079 54.4211 29.6322H54.4503C54.5744 29.6817 54.705 29.7131 54.8381 29.7255H54.9722C55.1846 29.7252 55.3944 29.6795 55.5875 29.5914C55.7655 29.5067 55.925 29.3878 56.057 29.2414L56.0803 29.2123L64.3267 19.54V28.2879C64.3267 28.6765 64.4811 29.0492 64.7559 29.324C65.0307 29.5988 65.4034 29.7532 65.792 29.7532C66.1806 29.7532 66.5533 29.5988 66.8281 29.324C67.1029 29.0492 67.2573 28.6765 67.2573 28.2879V15.5509H67.2544Z" fill="white"/>
<path fill-rule="evenodd" clip-rule="evenodd" d="M80.3938 19.54V28.3229C80.3975 28.566 80.4638 28.804 80.5862 29.014C80.7035 29.2186 80.8686 29.3917 81.0674 29.5185L81.1199 29.5505C81.1742 29.5818 81.2307 29.6091 81.289 29.6322C81.4596 29.7004 81.6418 29.735 81.8255 29.7342C82.0927 29.7351 82.355 29.6624 82.5837 29.5243C82.7195 29.4407 82.8415 29.3364 82.9453 29.2152L91.1654 19.5254V28.2733C91.1654 28.66 91.319 29.0309 91.5925 29.3043C91.8659 29.5777 92.2367 29.7313 92.6234 29.7313C93.0101 29.7313 93.3809 29.5777 93.6544 29.3043C93.9278 29.0309 94.0814 28.66 94.0814 28.2733V15.5509C94.0814 15.3595 94.0437 15.1699 93.9704 14.993C93.8972 14.8161 93.7898 14.6553 93.6544 14.52C93.519 14.3846 93.3582 14.2772 93.1814 14.2039C93.0045 14.1306 92.8149 14.0929 92.6234 14.0929H92.5097C92.3146 14.1076 92.1245 14.1614 91.9507 14.2511C91.7769 14.3407 91.6229 14.4645 91.4978 14.6149L83.3243 24.2989V15.4343C83.3258 15.4119 83.3258 15.3895 83.3243 15.3672C83.2864 15.0755 83.162 14.8018 82.9671 14.5814C82.7722 14.361 82.5158 14.2041 82.2309 14.1308H82.2134H82.1959H82.1696H82.1434H82.1259C82.0431 14.1167 81.9591 14.1099 81.8751 14.1104C81.6609 14.1101 81.4493 14.1569 81.2552 14.2476C81.0612 14.3384 80.8895 14.4707 80.7525 14.6353L75.7428 20.4964L73.8153 22.7709L69.9517 27.3227C69.8272 27.4694 69.7329 27.6391 69.674 27.8223C69.6152 28.0054 69.5929 28.1983 69.6087 28.39C69.6244 28.5817 69.6777 28.7685 69.7655 28.9396C69.8534 29.1107 69.9741 29.2628 70.1208 29.3872C70.2675 29.5117 70.4372 29.606 70.6203 29.6649C70.8034 29.7238 70.9964 29.746 71.1881 29.7303C71.3798 29.7146 71.5665 29.6612 71.7376 29.5734C71.9087 29.4855 72.0609 29.3648 72.1853 29.2181L74.1827 26.8649L80.3938 19.54Z" fill="white"/>
</svg>
